<svg xmlns="http://www.w3.org/2000/svg" width="16.79" height="16.714" viewBox="0 0 16.79 16.714">
  <g id="chatbubbles-outline" transform="translate(-2.673 -2.75)" opacity="0.7">
    <path id="Path_45" data-name="Path 45" d="M19.876,13.508A.681.681,0,0,1,20,13.055a1.252,1.252,0,0,1,.078-.115A6.022,6.022,0,0,0,21.1,9.583a6.323,6.323,0,0,0-6.457-6.208,6.412,6.412,0,0,0-6.33,4.941,5.974,5.974,0,0,0-.137,1.271,6.306,6.306,0,0,0,6.356,6.286,7.658,7.658,0,0,0,1.755-.286c.42-.115.836-.268.944-.309a.983.983,0,0,1,.346-.063.966.966,0,0,1,.375.075l2.108.747a.5.5,0,0,0,.145.037.3.3,0,0,0,.3-.3.478.478,0,0,0-.019-.1Z" transform="translate(-2.264)" fill="none" stroke="#c3c3c3" stroke-linecap="round" stroke-miterlimit="10" stroke-width="1.25"/>
    <path id="Path_46" data-name="Path 46" d="M4.061,16.313A5.436,5.436,0,0,0,4.3,21.988c.086.13.134.23.119.3s-.444,2.3-.444,2.3a.3.3,0,0,0,.1.285.3.3,0,0,0,.192.066.27.27,0,0,0,.108-.022L6.465,24.1a.584.584,0,0,1,.446.007,6.3,6.3,0,0,0,2.261.446,5.918,5.918,0,0,0,2.975-.8" transform="translate(0 -6.098)" fill="none" stroke="#c3c3c3" stroke-linecap="round" stroke-miterlimit="10" stroke-width="1.25"/>
  </g>
</svg>
