<svg xmlns="http://www.w3.org/2000/svg" width="14.645" height="14.355" viewBox="0 0 14.645 14.355">
  <g id="coin-bag-line" transform="translate(-2.054 -2)">
    <path id="Path_4447" data-name="Path 4447" d="M17.189,28.449A.449.449,0,0,0,16.74,28H14.049a.449.449,0,1,0,0,.9H16.74A.449.449,0,0,0,17.189,28.449Z" transform="translate(-6.367 -14.337)" fill="#c3c3c3"/>
    <path id="Path_4448" data-name="Path 4448" d="M18.68,24H15.989a.449.449,0,1,0,0,.9H18.68a.449.449,0,1,0,0-.9Z" transform="translate(-7.436 -12.131)" fill="#c3c3c3"/>
    <path id="Path_4449" data-name="Path 4449" d="M18.14,32H15.449a.449.449,0,0,0,0,.9H18.14a.449.449,0,0,0,0-.9Z" transform="translate(-7.139 -16.542)" fill="#c3c3c3"/>
    <path id="Path_4450" data-name="Path 4450" d="M28.289,32h-3.14a.449.449,0,0,0,0,.9h3.14a.449.449,0,1,0,0-.9Z" transform="translate(-12.487 -16.542)" fill="#c3c3c3"/>
    <path id="Path_4451" data-name="Path 4451" d="M29.289,28h-3.14a.449.449,0,0,0,0,.9h3.14a.449.449,0,0,0,0-.9Z" transform="translate(-13.039 -14.337)" fill="#c3c3c3"/>
    <path id="Path_4452" data-name="Path 4452" d="M16.268,12.766A12.561,12.561,0,0,0,15,8.226,9.08,9.08,0,0,0,12.168,5.01l1.077-2.373A.439.439,0,0,0,12.854,2H5.529a.449.449,0,0,0-.408.637l1.1,2.382A9.12,9.12,0,0,0,3.4,8.226a13.6,13.6,0,0,0-1.346,5.509,1.615,1.615,0,0,0,.449,1.216,1.7,1.7,0,0,0,1.229.48H6.516v-.87H3.7a.754.754,0,0,1-.543-.233.727.727,0,0,1-.2-.552A13.107,13.107,0,0,1,4.192,8.639,8.075,8.075,0,0,1,7,5.589h.449A13.821,13.821,0,0,0,6.61,6.9,10.219,10.219,0,0,0,5.95,8.4l.615.413a10.766,10.766,0,0,1,.668-1.557,13.054,13.054,0,0,1,1.1-1.664h.449a9.622,9.622,0,0,1,.633,2.243,10.111,10.111,0,0,1,.144,1.732l.709-.5a10.833,10.833,0,0,0-.144-1.346,11.134,11.134,0,0,0-.574-2.131H9.9l.408-.9H7.058L6.228,2.9h5.926L11.033,5.351a4.455,4.455,0,0,1,.552.35,8.357,8.357,0,0,1,2.629,2.947,11.928,11.928,0,0,1,1.153,4.118Z" fill="#c3c3c3"/>
  </g>
</svg>
