<svg xmlns="http://www.w3.org/2000/svg" width="18" height="16.654" viewBox="0 0 18 16.654">
  <g id="group-line" transform="translate(-3 -4.244)">
    <path id="Path_4457" data-name="Path 4457" d="M15.94,13.42A2.91,2.91,0,1,0,13,10.48,2.945,2.945,0,0,0,15.94,13.42ZM15.88,8.8h0a1.741,1.741,0,0,1,1.74,1.74,1.71,1.71,0,0,1-3.42,0A1.73,1.73,0,0,1,15.88,8.8Z" transform="translate(-4 -1.342)" fill="#c3c3c3"/>
    <path id="Path_4458" data-name="Path 4458" d="M29.22,15.7a5.941,5.941,0,0,0-4.2-1.5h-.48a4,4,0,0,1-.54,1.26,5.821,5.821,0,0,1,1.02-.06,4.99,4.99,0,0,1,3.18.96v4.32h1.2v-4.8Z" transform="translate(-8.4 -3.979)" fill="#c3c3c3"/>
    <path id="Path_4459" data-name="Path 4459" d="M22.84,6.4a1.465,1.465,0,1,1,2.7,1.14,1.5,1.5,0,0,1-1.32.9,1.021,1.021,0,0,1-.42-.06,4.251,4.251,0,0,1,.06.84v.36c.12,0,.24.06.36.06a2.67,2.67,0,1,0,.06-5.34A2.573,2.573,0,0,0,22,5.62a2.562,2.562,0,0,1,.84.78Z" transform="translate(-7.6 -0.022)" fill="#c3c3c3"/>
    <path id="Path_4460" data-name="Path 4460" d="M8.4,15.557a4,4,0,0,1-.54-1.26H7.38a6.174,6.174,0,0,0-4.2,1.44l-.18.18v4.8H4.2V16.4a5.1,5.1,0,0,1,3.18-.96A5.284,5.284,0,0,1,8.4,15.557Z" transform="translate(0 -4.019)" fill="#c3c3c3"/>
    <path id="Path_4461" data-name="Path 4461" d="M8.518,9.558a.761.761,0,0,0,.36-.06v-.36a3.69,3.69,0,0,1,.06-.84,1.021,1.021,0,0,1-.42.06,1.44,1.44,0,0,1,0-2.88,1.516,1.516,0,0,1,1.38.9,5.973,5.973,0,0,1,.9-.84,2.665,2.665,0,1,0-2.28,4.02Z" transform="translate(-1.138)" fill="#c3c3c3"/>
    <path id="Path_4462" data-name="Path 4462" d="M19.66,21.218l-.12-.18A6.056,6.056,0,0,0,14.86,19a6.181,6.181,0,0,0-4.74,2.04l-.12.18v4.56a1.011,1.011,0,0,0,1.02,1.02H18.7a1.051,1.051,0,0,0,1.02-1.02v-4.56Zm-1.2,4.38H11.2v-3.96a5.12,5.12,0,0,1,3.66-1.44,4.839,4.839,0,0,1,3.6,1.44Z" transform="translate(-2.8 -5.9)" fill="#c3c3c3"/>
  </g>
</svg>
