<svg id="Component_4_23" data-name="Component 4 – 23" xmlns="http://www.w3.org/2000/svg" width="20.342" height="20.342" viewBox="0 0 20.342 20.342">
  <path id="Path_617" data-name="Path 617" d="M9,11.247c7.748-.14,9-7.218,9-2.247A9,9,0,0,1,0,9C0,4.029,1.252,11.387,9,11.247Z" transform="translate(12.728 -5.114) rotate(45)" fill="#fcee8f"/>
  <line id="Line_156" data-name="Line 156" transform="translate(11.171 10.921) rotate(180)" fill="none"/>
  <line id="Line_157" data-name="Line 157" transform="translate(11.171 9.921)" fill="none"/>
  <line id="Line_158" data-name="Line 158" transform="translate(10.171 10.787) rotate(-150)" fill="none"/>
  <line id="Line_159" data-name="Line 159" transform="translate(10.671 9.921) rotate(30)" fill="none"/>
  <line id="Line_160" data-name="Line 160" transform="translate(10.171 10.421) rotate(-120)" fill="none"/>
  <line id="Line_161" data-name="Line 161" transform="translate(11.037 9.921) rotate(60)" fill="none"/>
  <line id="Line_162" data-name="Line 162" transform="translate(10.171 10.921) rotate(-90)" fill="none"/>
  <line id="Line_163" data-name="Line 163" transform="translate(11.171 10.921) rotate(90)" fill="none"/>
  <line id="Line_164" data-name="Line 164" transform="translate(10.171 9.921) rotate(-60)" fill="none"/>
  <line id="Line_165" data-name="Line 165" transform="translate(11.037 10.421) rotate(120)" fill="none"/>
  <line id="Line_166" data-name="Line 166" transform="translate(10.171 9.921) rotate(-30)" fill="none"/>
  <line id="Line_167" data-name="Line 167" transform="translate(10.671 10.787) rotate(150)" fill="none"/>
</svg>
