<svg xmlns="http://www.w3.org/2000/svg" width="19.688" height="18.375" viewBox="0 0 19.688 18.375">
  <g id="receipt-outline" transform="translate(-0.657 -1.313)" opacity="0.7">
    <path id="Path_389" data-name="Path 389" d="M6.563,13.781V1.969l1.313.656,1.313-.656,1.31.656,1.328-.656,1.3.656,1.3-.656,1.31.656,1.324-.656,1.313.656,1.312-.656v9.188" fill="none" stroke="#c3c3c3" stroke-linejoin="round" stroke-width="1.313"/>
    <path id="Path_390" data-name="Path 390" d="M19.688,11.156V15.75a3.281,3.281,0,0,1-3.281,3.281h0a3.281,3.281,0,0,1-3.281-3.281V13.781H1.969a.651.651,0,0,0-.656.656c0,2.625.276,4.594,3.281,4.594H16.407" fill="none" stroke="#c3c3c3" stroke-linejoin="round" stroke-width="1.313"/>
    <path id="Path_391" data-name="Path 391" d="M9.188,5.906h7.875" fill="none" stroke="#c3c3c3" stroke-linecap="round" stroke-linejoin="round" stroke-width="1.313"/>
    <path id="Path_392" data-name="Path 392" d="M11.813,9.188h5.25" fill="none" stroke="#c3c3c3" stroke-linecap="round" stroke-linejoin="round" stroke-width="1.313"/>
  </g>
</svg>
