<svg xmlns="http://www.w3.org/2000/svg" width="18" height="18" viewBox="0 0 18 18">
  <g id="settings-line" transform="translate(-2 -2)" opacity="0.7">
    <path id="Path_281" data-name="Path 281" d="M15.038,11a3.938,3.938,0,1,0,3.938,3.938A3.913,3.913,0,0,0,15.038,11Zm0,6.75a2.813,2.813,0,1,1,2.813-2.813A2.785,2.785,0,0,1,15.038,17.75Z" transform="translate(-3.981 -3.937)" fill="#c3c3c3"/>
    <path id="Path_282" data-name="Path 282" d="M19.325,9.144,17.75,8.638l-.338-.844L18.2,6.331a.946.946,0,0,0-.169-1.069l-1.35-1.35a.946.946,0,0,0-1.069-.169l-1.463.788-.844-.338L12.8,2.619A.914.914,0,0,0,11.956,2H10.044a.789.789,0,0,0-.788.675L8.75,4.25a2.485,2.485,0,0,0-.9.338L6.388,3.8a.946.946,0,0,0-1.069.169l-1.35,1.35A.946.946,0,0,0,3.8,6.388l.731,1.406c-.113.281-.225.619-.338.9L2.619,9.2A.914.914,0,0,0,2,10.044v1.913a.9.9,0,0,0,.675.844l1.575.506.338.844L3.8,15.613a.946.946,0,0,0,.169,1.069l1.35,1.35a.946.946,0,0,0,1.069.169l1.463-.788.844.337L9.2,19.381a.914.914,0,0,0,.844.619h1.913a.914.914,0,0,0,.844-.619l.506-1.631.844-.337,1.463.788a.946.946,0,0,0,1.069-.169l1.35-1.35a.946.946,0,0,0,.169-1.069l-.788-1.463.337-.844,1.631-.506A.914.914,0,0,0,20,11.956V10.044a.963.963,0,0,0-.675-.9Zm-.45,2.644-2.025.619-.056.281-.506,1.181-.169.281,1.012,1.856-1.125,1.125L14.15,16.119l-.281.169a5.34,5.34,0,0,1-1.181.506l-.281.056-.619,2.025H10.213L9.594,16.85l-.281-.056-1.181-.506-.281-.169L5.994,17.131,4.869,16.006,5.881,14.15l-.169-.281a5.34,5.34,0,0,1-.506-1.181l-.056-.281-2.025-.619V10.213L5.038,9.65l.113-.281a4.775,4.775,0,0,1,.506-1.238l.169-.281L4.869,5.994,5.994,4.869l1.8,1.013.281-.169a4.775,4.775,0,0,1,1.238-.506l.281-.113.619-1.969h1.575l.619,1.969.281.112a5.34,5.34,0,0,1,1.181.506l.281.169,1.856-1.013,1.125,1.125L16.119,7.85l.169.281a5.34,5.34,0,0,1,.506,1.181l.056.281,2.025.619Z" fill="#c3c3c3"/>
  </g>
</svg>
