<svg xmlns="http://www.w3.org/2000/svg" width="17" height="17" viewBox="0 0 17 17">
  <path id="tasks" d="M14.889,10.624H2.14A2.048,2.048,0,0,1,.637,10,2.125,2.125,0,0,1,.637,7a2.045,2.045,0,0,1,1.5-.622H14.889A2.125,2.125,0,0,1,17.015,8.5a2.125,2.125,0,0,1-2.125,2.125Zm0-3.187H6.92a.539.539,0,0,0-.531.531V9.031a.539.539,0,0,0,.531.531h7.968a1.034,1.034,0,0,0,.747-.307,1,1,0,0,0,.315-.747,1.031,1.031,0,0,0-.315-.755,1.018,1.018,0,0,0-.747-.315Zm0-3.187H2.14a2.048,2.048,0,0,1-1.5-.622,2.043,2.043,0,0,1-.622-1.5A2.052,2.052,0,0,1,.637.622,2.045,2.045,0,0,1,2.14,0H14.889a2.048,2.048,0,0,1,1.5.622,2.045,2.045,0,0,1,.622,1.5,2.05,2.05,0,0,1-.622,1.5,2.046,2.046,0,0,1-1.5.622Zm0-3.187H13.3a.509.509,0,0,0-.373.158.513.513,0,0,0-.158.373V2.657a.5.5,0,0,0,.158.382.525.525,0,0,0,.373.149h1.594a1.034,1.034,0,0,0,.747-.307,1,1,0,0,0,.315-.747,1.031,1.031,0,0,0-.315-.755,1.018,1.018,0,0,0-.747-.315ZM2.14,12.75H14.889a2.125,2.125,0,0,1,1.5,3.628,2.046,2.046,0,0,1-1.5.622H2.14a2.048,2.048,0,0,1-1.5-.622,2.126,2.126,0,0,1,0-3.006,2.05,2.05,0,0,1,1.5-.622Zm7.437,2.656a.539.539,0,0,0,.531.531h4.781a1.034,1.034,0,0,0,.747-.307,1,1,0,0,0,.315-.747,1.031,1.031,0,0,0-.315-.755,1.018,1.018,0,0,0-.747-.315H10.108a.539.539,0,0,0-.531.531v1.063Z" transform="translate(-0.015)" fill="#c3c3c3" opacity="0.7"/>
</svg>
