<svg xmlns="http://www.w3.org/2000/svg" width="20.445" height="17.92" viewBox="0 0 20.445 17.92">
  <g id="bank-line" transform="translate(-1.964 -2.92)">
    <path id="Path_4474" data-name="Path 4474" d="M2.944,9.71,12.2,4.394,21.451,9.71a.638.638,0,0,0,.638-1.1L12.2,2.92,2.306,8.606a.638.638,0,1,0,.638,1.1Z" transform="translate(0)" fill="#fff"/>
    <path id="Path_4475" data-name="Path 4475" d="M4,22.971a.638.638,0,0,0,.638.638H21.231a.638.638,0,0,0,0-1.276H19.316v-4.7H18.04v4.7H13.573v-4.7H12.3v4.7H7.829v-4.7H6.553v4.7H4.638A.638.638,0,0,0,4,22.971Z" transform="translate(-0.737 -5.323)" fill="#fff"/>
    <path id="Path_4476" data-name="Path 4476" d="M5.02,14H21.612v1.276H5.02Z" transform="translate(-1.106 -4.009)" fill="#fff"/>
    <path id="Path_4477" data-name="Path 4477" d="M21.783,29H2.638a.638.638,0,0,0,0,1.276H21.783a.638.638,0,0,0,0-1.276Z" transform="translate(-0.013 -9.436)" fill="#fff"/>
    <path id="Path_4478" data-name="Path 4478" d="M18.163,10.145h2.049L15.929,7.681a.511.511,0,0,0-.511,0L11.13,10.145h2.049l2.489-1.43Z" transform="translate(-3.317 -1.698)" fill="#fff"/>
  </g>
</svg>
