<svg xmlns="http://www.w3.org/2000/svg" width="20.739" height="20.739" viewBox="0 0 20.739 20.739">
  <path id="basket" d="M16.417,7.777,12.962,0H11.232l3.455,7.777ZM9.506,0H7.777L4.322,7.777H6.051ZM1.729,19.009a1.731,1.731,0,0,0,1.729,1.729H17.283a1.731,1.731,0,0,0,1.729-1.729l.863-7.777H.863l.867,7.777Zm12.962-6.048H16.42l-.866,6.048H13.825Zm-5.185,0h1.729v6.048H9.506Zm-3.459,0,.863,6.048H5.185l-.863-6.048H6.047ZM19.876,8.64H.863A.864.864,0,0,0,0,9.506v.863H20.739V9.506a.864.864,0,0,0-.863-.867Z" fill="#e3b358"/>
</svg>
