<svg xmlns="http://www.w3.org/2000/svg" width="16" height="13.818" viewBox="0 0 16 13.818">
  <g id="briefcase" transform="translate(0)">
    <path id="Path_4434" data-name="Path 4434" d="M17.909,16.5H15v1.455h2.909Z" transform="translate(-8.455 -9.955)" fill="#f9f9f9"/>
    <path id="Path_4435" data-name="Path 4435" d="M5.864,5.182V4.455A1.455,1.455,0,0,1,7.318,3h4.364a1.455,1.455,0,0,1,1.455,1.455v.727h2.182A2.182,2.182,0,0,1,17.5,7.364v7.273a2.182,2.182,0,0,1-2.182,2.182H3.682A2.182,2.182,0,0,1,1.5,14.636V7.364A2.182,2.182,0,0,1,3.682,5.182Zm1.455-.727h4.364v.727H7.318ZM3.682,6.636a.727.727,0,0,0-.727.727v4.364H16.045V7.364a.727.727,0,0,0-.727-.727Zm-.727,8V13.182H16.045v1.455a.727.727,0,0,1-.727.727H3.682A.727.727,0,0,1,2.955,14.636Z" transform="translate(-1.5 -3)" fill="#f9f9f9" fill-rule="evenodd"/>
  </g>
</svg>
