<svg xmlns="http://www.w3.org/2000/svg" width="14.323" height="14.323" viewBox="0 0 14.323 14.323">
  <g id="building" transform="translate(-1.125 -1.125)">
    <path id="Path_4437" data-name="Path 4437" d="M13.777,14.493V1.125H2.8V14.493H1.125v.955H15.448v-.955Zm-.955,0H8.764v-1.91H7.809v1.91H3.751V2.08h9.071Z" fill="#fff"/>
    <path id="Path_4438" data-name="Path 4438" d="M11.25,21.375H12.2v.955H11.25Z" transform="translate(-5.828 -11.656)" fill="#fff"/>
    <path id="Path_4439" data-name="Path 4439" d="M16.875,21.375h.955v.955h-.955Z" transform="translate(-9.066 -11.656)" fill="#fff"/>
    <path id="Path_4440" data-name="Path 4440" d="M22.5,21.375h.955v.955H22.5Z" transform="translate(-12.304 -11.656)" fill="#fff"/>
    <path id="Path_4441" data-name="Path 4441" d="M11.25,14.625H12.2v.955H11.25Z" transform="translate(-5.828 -7.771)" fill="#fff"/>
    <path id="Path_4442" data-name="Path 4442" d="M16.875,14.625h.955v.955h-.955Z" transform="translate(-9.066 -7.771)" fill="#fff"/>
    <path id="Path_4443" data-name="Path 4443" d="M22.5,14.625h.955v.955H22.5Z" transform="translate(-12.304 -7.771)" fill="#fff"/>
    <path id="Path_4444" data-name="Path 4444" d="M11.25,7.875H12.2V8.83H11.25Z" transform="translate(-5.828 -3.885)" fill="#fff"/>
    <path id="Path_4445" data-name="Path 4445" d="M16.875,7.875h.955V8.83h-.955Z" transform="translate(-9.066 -3.885)" fill="#fff"/>
    <path id="Path_4446" data-name="Path 4446" d="M22.5,7.875h.955V8.83H22.5Z" transform="translate(-12.304 -3.885)" fill="#fff"/>
  </g>
</svg>
