<svg xmlns="http://www.w3.org/2000/svg" width="16" height="17.23" viewBox="0 0 16 17.23">
  <g id="clean" transform="translate(-4.499 -2.25)">
    <path id="Path_4453" data-name="Path 4453" d="M26.192,21.481H22.5V20.25h3.692Z" transform="translate(-8.154 -8.154)" fill="#333"/>
    <path id="Path_4454" data-name="Path 4454" d="M30.692,30.481H27V29.25h3.692Z" transform="translate(-10.193 -12.231)" fill="#333"/>
    <path id="Path_4455" data-name="Path 4455" d="M28.442,25.981H24.75V24.75h3.692Z" transform="translate(-9.174 -10.193)" fill="#333"/>
    <path id="Path_4456" data-name="Path 4456" d="M12.5,13.327a3.012,3.012,0,0,0-1.479-2.568l4.554-7.893L14.512,2.25,9.849,10.327a3.507,3.507,0,0,0-3.226.925c-2.3,2.222-2.126,7.417-2.117,7.637a.615.615,0,0,0,.615.591h9.225a.615.615,0,0,0,.369-1.108C12.537,16.738,12.5,13.36,12.5,13.327ZM9.379,11.479a1.914,1.914,0,0,1,1.892,1.848c0,.024,0,.128.01.289L7.651,12A2.338,2.338,0,0,1,9.379,11.479Zm2.166,6.771a3.2,3.2,0,0,1-.892-1.846H9.423a4,4,0,0,0,.6,1.846H8.65a10.225,10.225,0,0,1-.458-2.461H6.961A10.672,10.672,0,0,0,7.37,18.25H5.73A12.283,12.283,0,0,1,6.84,12.986l4.636,2.062a8.015,8.015,0,0,0,1.391,3.2Z" transform="translate(0)" fill="#333"/>
  </g>
</svg>
