<svg id="Group_458" data-name="Group 458" xmlns="http://www.w3.org/2000/svg" xmlns:xlink="http://www.w3.org/1999/xlink" width="20" height="24.486" viewBox="0 0 20 24.486">
  <defs>
    <clipPath id="clip-path">
      <rect id="Rectangle_1258" data-name="Rectangle 1258" width="20" height="24.486" fill="none"/>
    </clipPath>
  </defs>
  <g id="Group_457" data-name="Group 457" clip-path="url(#clip-path)">
    <path id="Path_4598" data-name="Path 4598" d="M16.8,3.685A11.324,11.324,0,0,0,8.326,0H0V12.077H6.028V6.028h2.3c3.706,0,5.646,3.126,5.646,6.215s-1.939,6.215-5.646,6.215H6.035v6.028H8.326A11.324,11.324,0,0,0,16.8,20.8,12.614,12.614,0,0,0,20,12.243a12.614,12.614,0,0,0-3.2-8.558" fill="#652f86"/>
    <path id="Path_4599" data-name="Path 4599" d="M2.408,27.856a.646.646,0,1,1-.646-.646.646.646,0,0,1,.646.646" transform="translate(-0.569 -13.885)" fill="#23a079"/>
    <path id="Path_4600" data-name="Path 4600" d="M8.826,27.856a.646.646,0,1,1-.646-.646.646.646,0,0,1,.646.646" transform="translate(-3.844 -13.885)" fill="#23a079"/>
    <path id="Path_4601" data-name="Path 4601" d="M2.393,30.154a1.015,1.015,0,0,0-2.031,0,1.035,1.035,0,0,0,.006.111H2.387a1.035,1.035,0,0,0,.006-.111" transform="translate(-0.185 -14.869)" fill="#23a079"/>
    <path id="Path_4602" data-name="Path 4602" d="M8.811,30.154a1.015,1.015,0,0,0-2.031,0,1.035,1.035,0,0,0,.006.111H8.8a1.035,1.035,0,0,0,.006-.111" transform="translate(-3.46 -14.869)" fill="#23a079"/>
    <path id="Path_4603" data-name="Path 4603" d="M2.408,33.986a.646.646,0,1,1-.646-.646.646.646,0,0,1,.646.646" transform="translate(-0.569 -17.012)" fill="#23a079"/>
    <path id="Path_4604" data-name="Path 4604" d="M8.826,33.986a.646.646,0,1,1-.646-.646.646.646,0,0,1,.646.646" transform="translate(-3.844 -17.012)" fill="#23a079"/>
    <path id="Path_4605" data-name="Path 4605" d="M2.393,36.285a1.015,1.015,0,0,0-2.031,0,1.035,1.035,0,0,0,.006.111H2.387a1.035,1.035,0,0,0,.006-.111" transform="translate(-0.185 -17.997)" fill="#23a079"/>
    <path id="Path_4606" data-name="Path 4606" d="M8.811,36.285a1.015,1.015,0,0,0-2.031,0,1.035,1.035,0,0,0,.006.111H8.8a1.035,1.035,0,0,0,.006-.111" transform="translate(-3.46 -17.997)" fill="#23a079"/>
    <path id="Path_4607" data-name="Path 4607" d="M2.408,40.117a.646.646,0,1,1-.646-.646.646.646,0,0,1,.646.646" transform="translate(-0.569 -20.141)" fill="#23a079"/>
    <path id="Path_4608" data-name="Path 4608" d="M8.826,40.117a.646.646,0,1,1-.646-.646.646.646,0,0,1,.646.646" transform="translate(-3.844 -20.141)" fill="#23a079"/>
    <path id="Path_4609" data-name="Path 4609" d="M2.393,42.416a1.015,1.015,0,0,0-2.031,0,1.035,1.035,0,0,0,.006.111H2.387a1.035,1.035,0,0,0,.006-.111" transform="translate(-0.185 -21.126)" fill="#23a079"/>
    <path id="Path_4610" data-name="Path 4610" d="M8.811,42.416a1.015,1.015,0,0,0-2.031,0,1.035,1.035,0,0,0,.006.111H8.8a1.035,1.035,0,0,0,.006-.111" transform="translate(-3.46 -21.126)" fill="#23a079"/>
    <path id="Path_4611" data-name="Path 4611" d="M2.408,46.248a.646.646,0,1,1-.646-.646.646.646,0,0,1,.646.646" transform="translate(-0.569 -23.269)" fill="#23a079"/>
    <path id="Path_4612" data-name="Path 4612" d="M8.826,46.248A.646.646,0,1,1,8.18,45.6a.646.646,0,0,1,.646.646" transform="translate(-3.844 -23.269)" fill="#23a079"/>
    <path id="Path_4613" data-name="Path 4613" d="M2.393,48.546a1.015,1.015,0,0,0-2.031,0,1.035,1.035,0,0,0,.006.111H2.387a1.035,1.035,0,0,0,.006-.111" transform="translate(-0.185 -24.254)" fill="#23a079"/>
    <path id="Path_4614" data-name="Path 4614" d="M8.811,48.546a1.015,1.015,0,0,0-2.031,0,1.035,1.035,0,0,0,.006.111H8.8a1.035,1.035,0,0,0,.006-.111" transform="translate(-3.46 -24.254)" fill="#23a079"/>
  </g>
</svg>
