<svg xmlns="http://www.w3.org/2000/svg" width="18" height="18" viewBox="0 0 18 18">
  <g id="document-pdf" transform="translate(-2.25 -2.25)">
    <path id="Path_4426" data-name="Path 4426" d="M30.857,19.286V18H27v6.429h1.286V21.857h1.929V20.571H28.286V19.286Z" transform="translate(-10.607 -6.75)" fill="#fff"/>
    <path id="Path_4427" data-name="Path 4427" d="M19.446,24.429H16.875V18h2.571a1.93,1.93,0,0,1,1.929,1.929V22.5A1.93,1.93,0,0,1,19.446,24.429Zm-1.286-1.286h1.286a.643.643,0,0,0,.643-.643V19.929a.643.643,0,0,0-.643-.643H18.161Z" transform="translate(-6.268 -6.75)" fill="#fff"/>
    <path id="Path_4428" data-name="Path 4428" d="M9.964,18H6.75v6.429H8.036V22.5H9.964a1.287,1.287,0,0,0,1.286-1.286V19.286A1.287,1.287,0,0,0,9.964,18ZM8.036,21.214V19.286H9.964v1.929Z" transform="translate(-1.929 -6.75)" fill="#fff"/>
    <path id="Path_4429" data-name="Path 4429" d="M15.107,9.964V7.393a.585.585,0,0,0-.193-.45l-4.5-4.5a.585.585,0,0,0-.45-.193H3.536A1.29,1.29,0,0,0,2.25,3.536V18.964A1.286,1.286,0,0,0,3.536,20.25H13.821V18.964H3.536V3.536H8.679V7.393A1.29,1.29,0,0,0,9.964,8.678h3.857V9.964ZM9.964,7.393v-3.6l3.6,3.6Z" transform="translate(0 0)" fill="#fff"/>
  </g>
</svg>
