<svg xmlns="http://www.w3.org/2000/svg" width="18.197" height="13.647" viewBox="0 0 18.197 13.647">
  <path id="foodtray" d="M17.628,11.373H.569a.546.546,0,0,1-.4-.169A.546.546,0,0,1,0,10.8a8.328,8.328,0,0,1,2.07-5.7A8.5,8.5,0,0,1,7.392,2.275a.546.546,0,0,0,.4-.169.558.558,0,0,0,0-.8.546.546,0,0,0-.4-.169.546.546,0,0,1-.4-.169.546.546,0,0,1-.169-.4.546.546,0,0,1,.169-.4A.546.546,0,0,1,7.392,0H10.8a.546.546,0,0,1,.4.169.546.546,0,0,1,.169.4.546.546,0,0,1-.169.4.546.546,0,0,1-.4.169.546.546,0,0,0-.4.169.558.558,0,0,0,0,.8.546.546,0,0,0,.4.169,8.5,8.5,0,0,1,5.322,2.834,8.33,8.33,0,0,1,2.07,5.7.577.577,0,0,1-.569.569ZM.569,12.51H17.628a.569.569,0,0,1,0,1.137H.569a.546.546,0,0,1-.4-.169.558.558,0,0,1,0-.8A.546.546,0,0,1,.569,12.51Z" fill="#e89059"/>
</svg>
