<svg id="Group_364" data-name="Group 364" xmlns="http://www.w3.org/2000/svg" xmlns:xlink="http://www.w3.org/1999/xlink" width="10" height="10" viewBox="0 0 10 10">
  <defs>
    <clipPath id="clip-path">
      <rect id="Rectangle_1036" data-name="Rectangle 1036" width="10" height="10" fill="none"/>
    </clipPath>
  </defs>
  <g id="Group_329" data-name="Group 329" clip-path="url(#clip-path)">
    <path id="Path_974" data-name="Path 974" d="M58.68.564A.564.564,0,1,1,58.116,0a.564.564,0,0,1,.564.564" transform="translate(-53.116)" fill="#fff"/>
    <path id="Path_975" data-name="Path 975" d="M58.68,115.668a.564.564,0,1,1-.564-.564.564.564,0,0,1,.564.564" transform="translate(-53.116 -106.232)" fill="#fff"/>
    <path id="Path_976" data-name="Path 976" d="M29.827,7.991a.564.564,0,1,1-.77-.206.564.564,0,0,1,.77.206" transform="translate(-26.557 -7.115)" fill="#fff"/>
    <path id="Path_977" data-name="Path 977" d="M87.391,107.688a.563.563,0,1,1-.769-.206.563.563,0,0,1,.769.206" transform="translate(-79.686 -99.127)" fill="#fff"/>
    <path id="Path_978" data-name="Path 978" d="M8.555,28.851a.564.564,0,1,1-.77.206.564.564,0,0,1,.77-.206" transform="translate(-7.115 -26.558)" fill="#fff"/>
    <path id="Path_979" data-name="Path 979" d="M108.239,86.4a.564.564,0,1,1-.77.206.564.564,0,0,1,.77-.206" transform="translate(-99.115 -79.674)" fill="#fff"/>
    <path id="Path_980" data-name="Path 980" d="M.564,57.553A.564.564,0,1,1,0,58.117a.564.564,0,0,1,.564-.564" transform="translate(0 -53.117)" fill="#fff"/>
    <path id="Path_981" data-name="Path 981" d="M115.668,57.553a.564.564,0,1,1-.564.564.564.564,0,0,1,.564-.564" transform="translate(-106.232 -53.117)" fill="#fff"/>
    <path id="Path_982" data-name="Path 982" d="M7.684,86.087a.589.589,0,1,1-.215.8.589.589,0,0,1,.215-.8" transform="translate(-6.82 -79.378)" fill="#fff"/>
    <path id="Path_983" data-name="Path 983" d="M107.674,28.851a.564.564,0,1,1-.206.77.564.564,0,0,1,.206-.77" transform="translate(-99.115 -26.558)" fill="#fff"/>
    <path id="Path_984" data-name="Path 984" d="M28.85,107.675a.564.564,0,1,1,.206.77.564.564,0,0,1-.206-.77" transform="translate(-26.557 -99.115)" fill="#fff"/>
    <path id="Path_985" data-name="Path 985" d="M86.4,7.991a.564.564,0,1,1,.206.77.564.564,0,0,1-.206-.77" transform="translate(-79.673 -7.115)" fill="#fff"/>
    <path id="Path_986" data-name="Path 986" d="M60.695,28.612a.38.38,0,1,1-.38-.38.38.38,0,0,1,.38.38" transform="translate(-55.314 -26.056)" fill="#fff"/>
    <path id="Path_987" data-name="Path 987" d="M60.591,91.9a.39.39,0,1,1-.39-.39.39.39,0,0,1,.39.39" transform="translate(-55.201 -84.453)" fill="#fff"/>
    <path id="Path_988" data-name="Path 988" d="M44.8,32.67a.38.38,0,1,1-.519-.139.38.38,0,0,1,.519.139" transform="translate(-40.689 -29.977)" fill="#fff"/>
    <path id="Path_989" data-name="Path 989" d="M76.387,87.454a.39.39,0,1,1-.533-.143.39.39,0,0,1,.533.143" transform="translate(-69.828 -80.534)" fill="#fff"/>
    <path id="Path_990" data-name="Path 990" d="M32.943,44.01a.39.39,0,1,1-.533.143.39.39,0,0,1,.533-.143" transform="translate(-29.864 -40.569)" fill="#fff"/>
    <path id="Path_991" data-name="Path 991" d="M87.847,75.709a.39.39,0,1,1-.533.143.39.39,0,0,1,.533-.143" transform="translate(-80.536 -69.825)" fill="#fff"/>
    <path id="Path_992" data-name="Path 992" d="M28.5,59.808a.39.39,0,1,1-.39.39.39.39,0,0,1,.39-.39" transform="translate(-25.945 -55.198)" fill="#fff"/>
    <path id="Path_993" data-name="Path 993" d="M91.9,59.808a.39.39,0,1,1-.39.39.39.39,0,0,1,.39-.39" transform="translate(-84.457 -55.198)" fill="#fff"/>
    <path id="Path_994" data-name="Path 994" d="M32.691,75.851a.379.379,0,1,1-.139.517.379.379,0,0,1,.139-.517" transform="translate(-29.997 -69.957)" fill="#fff"/>
    <path id="Path_995" data-name="Path 995" d="M87.457,44.01a.39.39,0,1,1-.143.533.39.39,0,0,1,.143-.533" transform="translate(-80.536 -40.569)" fill="#fff"/>
    <path id="Path_996" data-name="Path 996" d="M44.135,87.572a.38.38,0,1,1,.139.52.38.38,0,0,1-.139-.52" transform="translate(-40.686 -80.647)" fill="#fff"/>
    <path id="Path_997" data-name="Path 997" d="M75.854,32.687a.379.379,0,1,1,.139.517.379.379,0,0,1-.139-.517" transform="translate(-69.96 -29.993)" fill="#fff"/>
    <path id="Path_998" data-name="Path 998" d="M61.361,51.969a.32.32,0,1,1-.32-.32.32.32,0,0,1,.32.32" transform="translate(-56.042 -47.668)" fill="#fff"/>
    <path id="Path_999" data-name="Path 999" d="M61.361,69.782a.32.32,0,1,1-.32-.32.32.32,0,0,1,.32.32" transform="translate(-56.042 -64.108)" fill="#fff"/>
    <path id="Path_1000" data-name="Path 1000" d="M52.135,60.556a.32.32,0,1,1-.32.32.32.32,0,0,1,.32-.32" transform="translate(-47.821 -55.888)" fill="#fff"/>
    <path id="Path_1001" data-name="Path 1001" d="M69.948,60.556a.32.32,0,1,1-.32.32.32.32,0,0,1,.32-.32" transform="translate(-64.261 -55.888)" fill="#fff"/>
  </g>
</svg>
