<svg xmlns="http://www.w3.org/2000/svg" xmlns:xlink="http://www.w3.org/1999/xlink" width="10" height="8" viewBox="0 0 10 8">
  <defs>
    <clipPath id="clip-path">
      <rect id="Rectangle_1037" data-name="Rectangle 1037" width="10" height="8" transform="translate(0.184 0.227)" fill="none"/>
    </clipPath>
  </defs>
  <g id="Group_365" data-name="Group 365" transform="translate(-0.184 -0.227)">
    <g id="Group_331" data-name="Group 331" clip-path="url(#clip-path)">
      <path id="Path_1002" data-name="Path 1002" d="M34.738,26.16a.3.3,0,0,1,.3-.144c.373.006.746,0,1.119,0,.2,0,.265.069.265.263,0,.315,0,.63,0,.947.045,0,.045-.039.058-.063.168-.306.336-.612.5-.921a.376.376,0,0,1,.376-.228c.307.009.615,0,.922,0a.912.912,0,0,1,.916.827c.013.125.013.252.02.381.044-.008.046-.048.061-.075q.251-.459.5-.921a.363.363,0,0,1,.361-.214c.311.008.623,0,.934,0a.92.92,0,0,1,.917.866c.01.153.006.307.006.461q0,1.637,0,3.274c0,.234-.059.293-.291.293H40.583c-.2,0-.264-.067-.264-.262q0-1.447,0-2.893a.36.36,0,0,0-.368-.371c-.215,0-.431,0-.646,0-.074,0-.1.018-.1.1,0,.242,0,.484,0,.726q0,1.2,0,2.409c0,.24-.058.3-.3.3H37.791c-.188,0-.258-.069-.258-.257q0-1.452,0-2.905a.356.356,0,0,0-.339-.363c-.234-.009-.469,0-.7,0-.05,0-.069.015-.066.066s0,.115,0,.173q0,1.5,0,3c0,.231-.062.293-.295.292-.192,0-.384-.005-.576-.008a.182.182,0,0,1,.039-.129c.2-.358.427-.7.624-1.063.023-.041.082-.082.05-.13s-.093-.021-.142-.021c-.411,0-.823,0-1.234,0-.066,0-.144.016-.175-.074-.014-.2-.005-.405-.006-.608,0-.559,0-1.117,0-1.676a.282.282,0,0,0-.016-.146c-.062-.06-.139-.025-.209-.033-.038,0-.077,0-.115,0-.057-.007-.091-.035-.062-.092.128-.245.247-.494.383-.734.01-.017.03-.024.046-.034" transform="translate(-32.102 -24.351)" fill="#565656"/>
      <path id="Path_1003" data-name="Path 1003" d="M2.638,5.152c.033.039.079.023.119.023.448,0,.9,0,1.345,0,.042,0,.1-.025.125.024s-.025.08-.048.118c-.13.216-.255.434-.382.652-.114.195-.23.388-.345.583-.034,0-.069.008-.1.008-.776,0-1.552,0-2.328,0-.1,0-.112-.031-.112-.117q0-1.647,0-3.295c0-.2.031-.181-.187-.181H0l.409-.6c.161-.234.321-.469.483-.7a.259.259,0,0,0,.048-.16c0-.223,0-.445,0-.668A.114.114,0,0,1,1.015.721Q1.779.371,2.54.015c.091-.043.082.011.082.068q0,.8,0,1.6a.224.224,0,0,0,.013.124L2.2,2.645h.416a.28.28,0,0,1,.01.125q0,1.128,0,2.257a.31.31,0,0,0,.009.125" transform="translate(0 0)" fill="#949494"/>
      <path id="Path_1004" data-name="Path 1004" d="M19.173,116.985q-2.243,0-4.485,0c-.108,0-.149-.024-.142-.138.01-.161,0-.323,0-.484s0-.164.158-.164h8.936c.155,0,.156,0,.156.155v.438c0,.191,0,.191-.185.191H19.173" transform="translate(-13.613 -108.763)" fill="#e6e6e6"/>
    </g>
  </g>
</svg>
