<svg xmlns="http://www.w3.org/2000/svg" xmlns:xlink="http://www.w3.org/1999/xlink" width="10" height="7.726" viewBox="0 0 10 7.726">
  <defs>
    <clipPath id="clip-path">
      <rect id="Rectangle_1029" data-name="Rectangle 1029" width="10" height="7.726" transform="translate(0 0)" fill="none"/>
    </clipPath>
  </defs>
  <g id="Group_361" data-name="Group 361" transform="translate(0 0)">
    <g id="Group_311" data-name="Group 311" transform="translate(0 0)" clip-path="url(#clip-path)">
      <path id="Path_761" data-name="Path 761" d="M43.921,14.11c.026.053.108.042.119.11s.029.106.088.121a.155.155,0,0,0,.161-.055c.029-.035.059-.068.1-.116-.013.09.007.15.079.18a.158.158,0,0,0,.183-.061c.013-.015.024-.028.035-.042s.031-.026.055,0c.081.077.123.081.211.02.024-.017.035-.022.048.011a.129.129,0,0,0,.227.051c.061-.055.119-.116.174-.176a2.054,2.054,0,0,0,.268-.334c.031-.053.051-.11.007-.16a1.64,1.64,0,0,0-.114-.136c-.042-.039-.031-.055,0-.092.123-.161.1-.264-.062-.356.015-.018.028-.037.04-.055.079-.11.169-.215.237-.332s.035-.2-.094-.233c-.029-.007-.028-.017-.024-.042a.123.123,0,0,0-.1-.161c-.035-.011-.039-.02-.02-.05a.855.855,0,0,0,.072-.134.125.125,0,0,0-.029-.156c-.028-.024-.084-.017-.086-.055s.035-.062.053-.1a.147.147,0,0,0-.011-.18.141.141,0,0,0-.178-.017c-.02.011-.04.031-.068.015a2.5,2.5,0,0,0,.279-.411c.07-.141.005-.231-.149-.22,0,0-.007,0-.009-.006,0-.018.011-.029.018-.044.064-.117.013-.215-.119-.22-.035,0-.033-.015-.037-.04a.131.131,0,0,0-.207-.1l-.079.042c0,.006-.005.013-.011.007s0-.009,0-.015a.169.169,0,0,0-.015-.132.062.062,0,0,0-.026-.016c-.11-.039-.048-.084-.018-.132.011-.018.022-.035.031-.053a.139.139,0,0,0-.194-.195,1.748,1.748,0,0,0-.2.147c-.011.007-.02.029-.044.007.062-.073.125-.145.183-.22a.629.629,0,0,0,.143-.264.14.14,0,0,0-.059-.15.127.127,0,0,0-.149,0c-.039.024-.075.05-.116.075-.007-.134-.029-.156-.16-.174a.043.043,0,0,1-.039-.024.136.136,0,0,0-.11-.062c-.035,0-.048-.016-.04-.053a.115.115,0,0,0-.062-.128c-.059-.031-.114-.057-.116-.136,0-.015-.026-.031-.04-.046a.133.133,0,0,1-.044-.068.145.145,0,0,0-.217-.094c-.024.013-.042.037-.072.04a.249.249,0,0,1,.007-.083.2.2,0,0,0-.1-.193.148.148,0,0,0-.178.05c-.132.128-.26.259-.391.389a.268.268,0,0,0,.081.062.5.5,0,0,1,.088.055.389.389,0,0,1,.156.343c-.006.07.018.092.088.1a.352.352,0,0,1,.3.488c-.028.059-.011.073.039.094a.587.587,0,0,1,.279.8.575.575,0,0,1-.626.3.151.151,0,0,0-.16.053.339.339,0,0,0-.088.268c0,.037,0,.073,0,.11a.6.6,0,0,1,.116.018l.026.007.02.007a.2.2,0,0,1,.127.18.2.2,0,0,1-.149.178l-.029.007c-.029.005-.061.007-.092.013,0,.042,0,.082,0,.125.075.037.147,0,.231-.015a.323.323,0,0,1-.217.121c0,.017.007.042-.022.04-.2-.005-.409.013-.613-.009a.273.273,0,0,0-.035.031.122.122,0,0,0-.015.018.18.18,0,0,0-.015.02c-.226.341-.455.682-.679,1.026a3.038,3.038,0,0,0-.231.376.14.14,0,0,0,.011.15.13.13,0,0,0,.136.048c.051-.007.077-.046.1-.083l.238-.321.015.011c-.051.077-.1.152-.152.231q-.245.393-.486.787a.14.14,0,1,0,.226.163,1.161,1.161,0,0,0,.1-.147c.027-.048.057-.061.1-.037a.112.112,0,0,0,.154-.05c.046-.064.09-.128.134-.193.059-.086.117-.174.178-.264.05.084.05.084.139.1.029.007.035.017.02.04a.3.3,0,0,0-.024.05.133.133,0,0,0,.05.163.132.132,0,0,0,.171-.018.948.948,0,0,0,.068-.079c.312-.407.613-.824.936-1.224.154-.189.3-.387.462-.565,0-.007.007-.011.013-.007s0,.011,0,.016c-.116.163-.233.327-.347.49-.253.36-.473.741-.708,1.114a.6.6,0,0,0-.084.189.139.139,0,0,0,.1.183.167.167,0,0,0,.158-.07c.05-.059.094-.119.139-.18l.229-.3c.066.149.161.167.27.059.006,0,.022-.022.026-.013m.567-3.888c0-.006.009-.009.015-.011s.011.006.011.009-.006.011-.015.033a.158.158,0,0,1-.011-.031m.013,1.7a.313.313,0,0,1,.418-.171.2.2,0,0,1,.138.2.241.241,0,0,1-.207.176.245.245,0,0,1-.195-.07c-.013-.011-.029-.031-.048-.018s-.009.035-.007.051c.005.117.2.222.325.172a.461.461,0,0,1,.127-.053.3.3,0,0,1-.378.125.32.32,0,0,1-.172-.415m-.668-.083c-.015.006-.022,0-.033-.011l0,0a.111.111,0,0,0-.174.088.9.9,0,0,0,.013.371.1.1,0,0,1,0,.059.425.425,0,0,1-.1-.512.22.22,0,0,1,.134-.112.054.054,0,0,1,.017,0,.177.177,0,0,1,.031,0,.124.124,0,0,1,.117.125m.281.506A.438.438,0,0,1,44,11.734c.007.092-.015.176,0,.259a.453.453,0,0,0,.1.224c.05.059.088.059.134,0a.524.524,0,0,0,.1-.356c0-.037-.009-.073-.015-.128a.319.319,0,0,1,.079.249.435.435,0,0,1-.128.332c-.044.046-.1.079-.161.039" transform="translate(-37.737 -7.841)" fill="#f9f9f9"/>
      <path id="Path_762" data-name="Path 762" d="M53.889,51.793h0a.273.273,0,0,0-.035.031.143.143,0,0,1,.035-.031" transform="translate(-49.118 -47.238)" fill="#f9f9f9"/>
      <path id="Path_763" data-name="Path 763" d="M82.179,29.686h0a.169.169,0,0,0-.015-.132.169.169,0,0,1,.015.132" transform="translate(-74.939 -26.955)" fill="#f9f9f9"/>
      <path id="Path_764" data-name="Path 764" d="M69.159,54.63h0c-.116.163-.233.327-.347.49.114-.163.231-.327.347-.49" transform="translate(-62.761 -49.826)" fill="#f9f9f9"/>
      <path id="Path_765" data-name="Path 765" d="M33.932,37.544h0s0,0,0,.006,0,0,0-.006" transform="translate(-30.946 -34.242)" fill="#f9f9f9"/>
      <path id="Path_766" data-name="Path 766" d="M23.914,3.2a.05.05,0,0,0,0-.016c0-.015,0-.028,0-.042a.564.564,0,0,1,.292-.572c.057-.031.068-.062.031-.117a.448.448,0,0,1,.378-.679c.042,0,.061-.015.062-.061a.514.514,0,0,1,.088-.3.407.407,0,0,1,.3-.18c.05-.006.1-.011.15-.015l.071-.1c.007-.011.017-.02.024-.031a2.157,2.157,0,0,0,.209-.273c.022-.037.053-.081.037-.121a.15.15,0,0,1,.02-.134.131.131,0,0,0-.02-.16.134.134,0,0,0-.16-.022.38.38,0,0,0-.066.037L25.16.537c-.005.013-.013.017-.026.009l.015-.02.035-.05c.035-.05.072-.1.1-.149a.138.138,0,0,0-.006-.167.133.133,0,0,0-.156-.04.384.384,0,0,0-.121.064,1.073,1.073,0,0,0-.1.1C24.835.1,24.8.1,24.547.262c-.07-.119-.139-.139-.246-.068a.52.52,0,0,0-.07.057c-.046.042-.086.088-.158.079-.028,0-.051.018-.073.035s-.033.028-.055.013a.138.138,0,0,0,.013-.172.131.131,0,0,0-.172-.042c-.07.029-.1,0-.117-.057a.134.134,0,0,0-.233-.059,1.861,1.861,0,0,0-.169.172c-.04.044-.071.1-.143.09a.074.074,0,0,0-.055.026c-.075.092-.182.147-.259.237A5.078,5.078,0,0,1,22.421,1a.114.114,0,0,0-.044.077.348.348,0,0,1-.066.156,2.055,2.055,0,0,1-.218.38c-.04.044-.024.1.018.15.026.028.048.061.073.092a.057.057,0,0,1,0,.079c-.057.075-.108.154-.161.233-.04.057-.046.136.005.169.079.051.044.1.011.147a.314.314,0,0,0-.031.061.128.128,0,0,0,.081.193c.048.017.039.031.018.064-.048.079-.04.143.026.189.037.026.031.044.015.077a.831.831,0,0,0-.112.22.122.122,0,0,0,.05.139.13.13,0,0,0,.161-.006.889.889,0,0,0,.075-.068v0c.009-.009.018-.018.028-.029.022-.035.033-.079.073-.1a.264.264,0,0,1-.073.1.13.13,0,0,1-.026.029l0,0a.12.12,0,0,1,.011.022c.016.1-.015.2.053.284.015.018-.006.035-.015.048-.072.1-.143.207-.217.312a.422.422,0,0,0-.068.127.133.133,0,0,0,.2.147.442.442,0,0,0,.114-.127l.026-.037A1.621,1.621,0,0,1,22.6,3.88a.143.143,0,0,1,.013-.033.045.045,0,0,1,.013-.013.111.111,0,0,1,.015-.009,5.268,5.268,0,0,1,.4-.523s0,0,0-.005l0,0a.954.954,0,0,1,.119-.15.593.593,0,0,1-.119.15s0,0,0,0l0,0a.29.29,0,0,1-.024.04s0,0,0,0a.39.39,0,0,1-.031.046l-.033.044c-.015.02-.031.04-.046.059s-.029.039-.042.059a.586.586,0,0,0-.053.094.17.17,0,0,0,.031,0,.449.449,0,0,1,.484.2c.029.039.04.033.068,0l.259-.325.259-.323s0,0,0,0m-.723-.075a.033.033,0,0,0-.009.013c.015-.042.042-.055.046-.083v0h.009a.017.017,0,0,0-.009,0v0c.006.028-.015.042-.037.068" transform="translate(-20.055 -0.001)" fill="#f9f9f9"/>
      <path id="Path_767" data-name="Path 767" d="M58.59,12.813l.071-.1c-.024.033-.048.064-.071.1" transform="translate(-53.438 -11.6)" fill="#f9f9f9"/>
      <path id="Path_768" data-name="Path 768" d="M32.386,39.188c.015-.02.031-.04.046-.059-.015.018-.031.039-.046.059" transform="translate(-29.538 -35.688)" fill="#f9f9f9"/>
      <path id="Path_769" data-name="Path 769" d="M33.284,38.132c.011-.015.022-.031.031-.046-.011.017-.02.031-.031.046" transform="translate(-30.357 -34.737)" fill="#f9f9f9"/>
      <path id="Path_770" data-name="Path 770" d="M33.93,37.548l0,0s0,0,0,0" transform="translate(-30.946 -34.242)" fill="#f9f9f9"/>
      <path id="Path_771" data-name="Path 771" d="M33.951,37.544" transform="translate(-30.965 -34.242)" fill="#f9f9f9"/>
      <path id="Path_772" data-name="Path 772" d="M33.683,37.586a.29.29,0,0,1-.024.04c.007-.013.017-.026.024-.04" transform="translate(-30.699 -34.281)" fill="#f9f9f9"/>
      <path id="Path_773" data-name="Path 773" d="M25.66,38.177h0s0,0,0,0h0" transform="translate(-23.403 -34.818)" fill="#f9f9f9"/>
      <path id="Path_774" data-name="Path 774" d="M25.648,38.17h0s0,0,0,0,0,0,0,0" transform="translate(-23.393 -34.813)" fill="#f9f9f9"/>
      <path id="Path_775" data-name="Path 775" d="M57.9,5.487h0l.035-.05-.035.05" transform="translate(-52.809 -4.959)" fill="#f9f9f9"/>
      <path id="Path_776" data-name="Path 776" d="M55.8,42.113h0" transform="translate(-50.892 -38.41)" fill="#686868"/>
      <path id="Path_777" data-name="Path 777" d="M44.736,17.182c.2.02.409,0,.613.009.029,0,.02-.024.022-.04a.651.651,0,0,1-.174-.059.259.259,0,0,1-.128-.235v-.018a.222.222,0,0,0-.02-.128L45,16.775a.079.079,0,0,0-.009.013c0-.147,0-.27,0-.393a.143.143,0,0,0-.05-.127,2.714,2.714,0,0,1-.229-.253.079.079,0,0,0-.121-.022.354.354,0,0,1-.512-.156.285.285,0,0,1,.037-.316.289.289,0,0,0,.033-.05.338.338,0,0,1,.563.033.31.31,0,0,1,.007.35c-.026.044-.028.075.02.108a2.25,2.25,0,0,1,.178.149.082.082,0,0,0,.073.029c.031-.009.015-.044.017-.066a7.1,7.1,0,0,1,.042-.815c.026.009.018.035.018.055.013.215.033.427.033.642,0,.022-.006.051.016.062s.035-.017.05-.029q.091-.074.176-.154c.011-.011.022-.02.033-.013s0,.026-.007.033a2.15,2.15,0,0,1-.22.283c-.017.018-.033.035-.031.059.006.134-.016.266,0,.4.082-.015.141-.09.229-.088,0-.037,0-.073,0-.11a.341.341,0,0,1,.088-.268.143.143,0,0,1,.16-.053.576.576,0,0,0,.626-.3.589.589,0,0,0-.279-.8c-.048-.018-.064-.035-.039-.094a.352.352,0,0,0-.3-.488c-.068,0-.094-.026-.088-.1a.389.389,0,0,0-.156-.343.586.586,0,0,0-.088-.055.266.266,0,0,1-.081-.062l-.035.005a.053.053,0,0,1-.033-.005l-.15.015a.407.407,0,0,0-.3.18.528.528,0,0,0-.088.3c0,.046-.018.059-.062.061a.447.447,0,0,0-.378.679c.037.055.026.084-.031.117a.57.57,0,0,0-.292.572c0,.015,0,.028,0,.042a.051.051,0,0,1,0,.017s0,.005,0,.009a.054.054,0,0,1,.02.046.037.037,0,0,1,.033.029.564.564,0,0,0,.624.352.2.2,0,0,1,.141,0,.571.571,0,0,1,.125.018l.007,0,.04.005a.065.065,0,0,1,.062.051.664.664,0,0,0-.121,0l-.04.005c.066.059.05.139.051.215,0,.039,0,.077,0,.116a.13.13,0,0,0,.075.061.227.227,0,0,1,.051.026.2.2,0,0,1-.04.358c-.024.009-.048.017-.07.028a.141.141,0,0,0-.024.011l-.007,0a.033.033,0,0,0-.009.013s0,.007,0,.015m.824-2.563a.134.134,0,0,1,.134.145.144.144,0,0,1-.145.13.14.14,0,0,1-.132-.141.131.131,0,0,1,.143-.134m.13.527a.362.362,0,0,1,.356.365.358.358,0,0,1-.365.361.332.332,0,0,1-.345-.36.366.366,0,0,1,.354-.367m-.637-1.07a.246.246,0,0,1,.244.261.246.246,0,0,1-.492-.02.228.228,0,0,1,.248-.24m-.519.549a.219.219,0,0,1,.215.224.229.229,0,0,1-.224.226.225.225,0,0,1,.009-.449" transform="translate(-39.966 -12.628)" fill="#686868"/>
      <path id="Path_778" data-name="Path 778" d="M54.25,51.431a.034.034,0,0,1,.009-.013.058.058,0,0,0-.009.013" transform="translate(-49.479 -46.896)" fill="#686868"/>
      <path id="Path_779" data-name="Path 779" d="M58.59,13.8a.043.043,0,0,0,.033.006.043.043,0,0,1-.033-.006" transform="translate(-53.438 -12.589)" fill="#686868"/>
      <path id="Path_780" data-name="Path 780" d="M54.354,51.4a.01.01,0,0,1,.007,0,.01.01,0,0,0-.007,0" transform="translate(-49.574 -46.876)" fill="#686868"/>
      <path id="Path_781" data-name="Path 781" d="M53.958,42.1a.152.152,0,0,1,.04-.006.162.162,0,0,0-.04.006" transform="translate(-49.213 -38.39)" fill="#686868"/>
      <path id="Path_782" data-name="Path 782" d="M54.538,42.059h0a.672.672,0,0,0-.121,0,.9.9,0,0,1,.121,0" transform="translate(-49.632 -38.356)" fill="#686868"/>
      <path id="Path_783" data-name="Path 783" d="M55.8,42.113h0l0,0Z" transform="translate(-50.887 -38.41)" fill="#686868"/>
      <path id="Path_784" data-name="Path 784" d="M55.794,42.12h0s0,0,0,0h0" transform="translate(-50.888 -38.414)" fill="#686868"/>
      <path id="Path_785" data-name="Path 785" d="M54.55,41.468l-.007,0s.005,0,.007,0" transform="translate(-49.747 -37.82)" fill="#686868"/>
      <path id="Path_786" data-name="Path 786" d="M61.1,43c0-.037,0-.073,0-.11a1.1,1.1,0,0,1,0,.11" transform="translate(-55.721 -39.114)" fill="#686868"/>
      <path id="Path_787" data-name="Path 787" d="M59.463,13.886a.265.265,0,0,1-.081-.062.245.245,0,0,0,.081.062" transform="translate(-54.16 -12.608)" fill="#686868"/>
      <path id="Path_788" data-name="Path 788" d="M30.5,37.342a.567.567,0,0,1-.624-.352c-.006-.017-.013-.029-.033-.029-.163.231-.328.461-.492.692a.135.135,0,0,0-.039.094.4.4,0,0,1-.266.435.165.165,0,0,0-.084.057c-.16.233-.312.472-.462.712a.135.135,0,0,0,0,.156.126.126,0,0,0,.145.053.045.045,0,0,1,.057.018.132.132,0,0,0,.237,0c.066-.086.125-.176.183-.268.024-.039.039-.037.062,0a.115.115,0,0,0,.163.033c.013-.006.026-.017.037-.009s0,0,.005,0a.025.025,0,0,1,.006.007,1.05,1.05,0,0,0-.138.231.294.294,0,0,0-.015.035.1.1,0,0,0,.022.127c.073.042.121.13.231.121-.026.037-.046.064-.064.094a.882.882,0,0,0-.051.09.136.136,0,0,0,.039.183.139.139,0,0,0,.185-.033.8.8,0,0,0,.068-.088l.789-1.108.242-.343a.637.637,0,0,1-.286-.077.709.709,0,0,0,.152,0c.167-.02.178-.037.183-.178a.1.1,0,0,0-.079-.121,1.7,1.7,0,0,1-.266-.114.187.187,0,0,1-.062-.288.3.3,0,0,1,.191-.114l.108-.022a.188.188,0,0,0-.141,0m-.657.793a.2.2,0,0,1-.341.026.468.468,0,0,1-.039-.488c.011.064-.015.125,0,.185.005.024.007.05.015.073a.179.179,0,0,0,.35.013.407.407,0,0,0,0-.3c.024-.009.031,0,.035.017a.537.537,0,0,1-.018.479" transform="translate(-25.969 -33.71)" fill="#f9f9f9"/>
      <path id="Path_789" data-name="Path 789" d="M37.531,59.47a1.057,1.057,0,0,0-.138.231,1.087,1.087,0,0,1,.138-.231" transform="translate(-34.105 -54.24)" fill="#f9f9f9"/>
      <path id="Path_790" data-name="Path 790" d="M26.5,43.383c.017.013.013.022.006.029l0,0,0,0-.006.005s0,0-.005,0l0,0c-.061.092-.123.183-.185.275s-.042.24.112.238c0,0,.006.006.011.015-.028.046-.057.092-.084.139a.513.513,0,0,0-.057.125.129.129,0,0,0,.044.143.121.121,0,0,0,.149.009.968.968,0,0,0,.286-.323c.02-.029-.005-.035-.026-.04a.166.166,0,0,1-.128-.145,1.249,1.249,0,0,1-.018-.35c0-.07.007-.139.009-.205-.031-.011-.028.046-.059.022,0,.035-.007.05-.04.053" transform="translate(-23.957 -39.498)" fill="#f9f9f9"/>
      <path id="Path_791" data-name="Path 791" d="M28.923,44.178h0c.017.013.013.022.006.029.007-.009.011-.018-.006-.029" transform="translate(-26.38 -40.293)" fill="#f9f9f9"/>
      <path id="Path_792" data-name="Path 792" d="M28.861,44.559l.006-.006-.006.006" transform="translate(-26.323 -40.635)" fill="#f9f9f9"/>
      <path id="Path_793" data-name="Path 793" d="M31.755,43.54c.055-.079.117-.154.176-.229.094-.121.088-.161-.035-.26a.385.385,0,0,0-.114-.064.121.121,0,0,0-.18.1,1.794,1.794,0,0,0-.029.261c0,.042.009.1.016.156.006.035.018.068.061.075a.1.1,0,0,0,.1-.037" transform="translate(-28.796 -39.195)" fill="#f9f9f9"/>
      <path id="Path_794" data-name="Path 794" d="M59.373,81.5c.075,0,.152,0,.228,0,.033,0,.053-.009.055-.044s-.031-.026-.05-.026c-.1,0-.193,0-.29,0-.046,0-.064.013-.071.059-.02.11-.046.22-.068.33-.011.051-.042.121-.02.15s.1.009.156.013a.322.322,0,0,0,.042,0h.172c.029,0,.048-.007.05-.042s-.028-.028-.048-.029c-.057,0-.116,0-.172,0-.121,0-.119,0-.1-.121.009-.05.029-.062.077-.059.073,0,.147,0,.22,0,.031,0,.039-.018.042-.042s-.022-.028-.042-.028h-.215c-.015,0-.039.009-.044-.009-.015-.044.011-.084.016-.127s.035-.026.057-.026" transform="translate(-53.947 -74.263)" fill="#f9f9f9"/>
      <path id="Path_795" data-name="Path 795" d="M88.847,83.065a.148.148,0,0,0-.106.04c-.017.015-.024.018-.042,0-.042-.053-.1-.042-.15-.022-.018.007-.031.048-.057,0-.011-.022-.062-.017-.072.037-.018.1-.042.2-.064.3,0,.018-.024.048.015.055s.051-.007.057-.04c.009-.055.02-.108.033-.161a.172.172,0,0,1,.1-.134.055.055,0,0,1,.064,0,.053.053,0,0,1,.011.057c-.017.072-.033.143-.046.217,0,.018-.029.051.015.061s.051-.016.059-.048c.011-.057.022-.112.035-.169a.158.158,0,0,1,.079-.116.073.073,0,0,1,.079,0c.022.017.016.044.011.07-.017.073-.031.149-.046.224,0,.017-.017.04.013.042s.05.013.057-.022l.057-.266c0-.094-.024-.121-.1-.121" transform="translate(-80.578 -75.759)" fill="#f9f9f9"/>
      <path id="Path_796" data-name="Path 796" d="M9.412,83.114a.046.046,0,0,0-.066.017l-.066.138a.383.383,0,0,1-.064.114c-.006-.081-.007-.147-.013-.213,0-.022.011-.053-.029-.059a.059.059,0,0,0-.073.044c-.031.075-.068.149-.1.224a1.364,1.364,0,0,1-.033-.224c0-.031-.015-.046-.046-.044s-.026.031-.024.051c.009.1.018.2.029.3,0,.022,0,.053.035.057a.056.056,0,0,0,.068-.04c.031-.075.068-.149.1-.224a.044.044,0,0,0,.015,0c0,.066.007.132.013.2,0,.022-.013.055.026.061a.063.063,0,0,0,.075-.042c.048-.1.1-.207.149-.312.009-.013.033-.031.007-.044" transform="translate(-8.108 -75.799)" fill="#f9f9f9"/>
      <path id="Path_797" data-name="Path 797" d="M34.771,81.342a.264.264,0,0,0-.066,0,.249.249,0,0,0-.053.013l-.02.007a.185.185,0,0,0-.042.022.332.332,0,0,0-.138.284.25.25,0,0,0,.055.172.207.207,0,0,0,.02.02.25.25,0,0,0,.376-.1c.007-.015.029-.033,0-.046s-.05-.02-.068.007-.015.035-.026.05a.157.157,0,0,1-.167.07.131.131,0,0,1-.108-.127.3.3,0,0,1,.062-.233.152.152,0,0,1,.266.02c.018.031.042.026.064.02s.013-.035.007-.051a.178.178,0,0,0-.165-.127" transform="translate(-31.422 -74.188)" fill="#f9f9f9"/>
      <path id="Path_798" data-name="Path 798" d="M36.726,81.389a.249.249,0,0,1,.053-.013.249.249,0,0,0-.053.013" transform="translate(-33.496 -74.22)" fill="#f9f9f9"/>
      <path id="Path_799" data-name="Path 799" d="M36.037,81.628a.183.183,0,0,1,.042-.022.183.183,0,0,0-.042.022" transform="translate(-32.868 -74.43)" fill="#f9f9f9"/>
      <path id="Path_800" data-name="Path 800" d="M22.977,81.448c-.028,0-.05,0-.053.035s-.016.075-.024.114-.015.044-.048.018a.133.133,0,0,0-.167,0,.255.255,0,0,0-.1.194c0,.141.07.215.167.185.035-.009.061-.029.1-.005s.042-.015.05-.046c.029-.15.062-.3.094-.451.006-.015.029-.044-.015-.048m-.182.473a.077.077,0,0,1-.134-.046.214.214,0,0,1,.033-.163.093.093,0,0,1,.114-.053.083.083,0,0,1,.057.088.228.228,0,0,1-.07.174" transform="translate(-20.595 -74.285)" fill="#f9f9f9"/>
      <path id="Path_801" data-name="Path 801" d="M47.27,83.087a.162.162,0,0,0-.152.062c-.013.017-.04.039-.02.057a.047.047,0,0,0,.075-.015.105.105,0,0,1,.123-.04.052.052,0,0,1,.05.055c0,.042-.029.042-.055.046a.7.7,0,0,0-.163.02.118.118,0,0,0-.066.174.138.138,0,0,0,.183.04c.028-.013.05-.035.079,0,.007.009.062.026.059-.024a.906.906,0,0,1,.031-.211c.017-.121-.024-.169-.143-.169m-.068.356c-.037,0-.072-.006-.081-.048a.059.059,0,0,1,.051-.075.531.531,0,0,1,.143-.017c-.005.084-.046.134-.114.139" transform="translate(-42.907 -75.78)" fill="#f9f9f9"/>
      <path id="Path_802" data-name="Path 802" d="M15.09,83.083a.166.166,0,0,0-.158.079c-.007.013-.026.028-.009.042a.049.049,0,0,0,.059.006c.011-.007.017-.022.026-.031a.116.116,0,0,1,.127-.026.048.048,0,0,1,.037.051c0,.029-.017.04-.042.042a1.231,1.231,0,0,0-.143.015.115.115,0,0,0-.108.106c-.009.11.088.167.2.117.024-.011.048-.04.073,0,.005.009.061.028.059-.022a1.014,1.014,0,0,1,.031-.211c.02-.121-.022-.172-.15-.172m-.05.354c-.044.009-.083,0-.092-.048s.02-.068.061-.075.09-.013.143-.018c-.015.073-.042.125-.112.141" transform="translate(-13.568 -75.776)" fill="#f9f9f9"/>
      <path id="Path_803" data-name="Path 803" d="M95.963,83.082a.211.211,0,0,0-.226.2.173.173,0,0,0,.092.209.191.191,0,0,0,.229-.081c.009-.013.033-.031.013-.046a.046.046,0,0,0-.068.005.157.157,0,0,1-.059.057.088.088,0,0,1-.13-.046c-.017-.042-.011-.072.046-.066a.851.851,0,0,0,.1,0c.035,0,.07,0,.1,0a.037.037,0,0,0,.044-.031.158.158,0,0,0-.141-.2m.02.169c-.02,0-.04,0-.062,0a.073.073,0,0,1-.02,0c-.026-.006-.064.018-.071-.013s.022-.053.046-.072a.093.093,0,0,1,.15.026c.015.037.015.066-.042.059" transform="translate(-87.314 -75.775)" fill="#f9f9f9"/>
      <path id="Path_804" data-name="Path 804" d="M42.553,83.078a.212.212,0,0,0-.244.189.172.172,0,0,0,.084.211.194.194,0,0,0,.235-.079c.009-.015.031-.033.011-.048a.046.046,0,0,0-.068.007l-.026.033a.123.123,0,0,1-.071.037.085.085,0,0,1-.094-.088c0-.064.048-.031.075-.037a.283.283,0,0,1,.068,0h.11c.015,0,.029,0,.039-.018a.162.162,0,0,0-.119-.206m.05.149c-.007.035-.042.013-.064.018a.151.151,0,0,1-.04,0,.144.144,0,0,1-.028,0c-.024,0-.061.013-.068-.009s.018-.053.042-.073a.1.1,0,0,1,.114-.02.073.073,0,0,1,.044.084" transform="translate(-38.583 -75.769)" fill="#f9f9f9"/>
      <path id="Path_805" data-name="Path 805" d="M4.093,83.085a.215.215,0,0,0-.246.237c0,.119.053.178.161.178a.239.239,0,0,0,.2-.339.142.142,0,0,0-.112-.075m-.018.33a.091.091,0,0,1-.154-.061c-.018-.1.057-.218.143-.216a.092.092,0,0,1,.086.081.209.209,0,0,1-.075.2" transform="translate(-3.509 -75.777)" fill="#f9f9f9"/>
      <path id="Path_806" data-name="Path 806" d="M79.06,83.086a.233.233,0,0,0-.213.284.146.146,0,0,0,.139.128.222.222,0,0,0,.238-.248.151.151,0,0,0-.165-.165m.05.3a.105.105,0,0,1-.123.053c-.057-.017-.07-.061-.066-.114a.2.2,0,0,1,.072-.156.1.1,0,0,1,.1-.018.091.091,0,0,1,.057.086.235.235,0,0,1-.042.149" transform="translate(-71.91 -75.78)" fill="#f9f9f9"/>
      <path id="Path_807" data-name="Path 807" d="M27.486,83.067a.111.111,0,0,0-.1.1.1.1,0,0,0,.068.114.709.709,0,0,1,.1.05c.042.028.035.07-.013.088a.091.091,0,0,1-.13-.057c-.013-.039-.037-.029-.059-.026s-.02.035-.015.055a.11.11,0,0,0,.009.022.155.155,0,0,0,.15.073.15.15,0,0,0,.04,0,.127.127,0,0,0,.121-.1c.011-.062-.028-.1-.081-.121-.028-.013-.055-.024-.081-.039s-.042-.026-.033-.053a.056.056,0,0,1,.053-.039.082.082,0,0,1,.094.053c.013.037.042.026.062.018s.011-.035,0-.053a.163.163,0,0,0-.187-.073" transform="translate(-24.922 -75.758)" fill="#f9f9f9"/>
      <path id="Path_808" data-name="Path 808" d="M100.678,83.084a.169.169,0,0,0-.1.031c-.009.005-.028.026-.029,0-.006-.039-.029-.031-.049-.028s-.024.031-.028.05c-.022.1-.042.2-.062.3,0,.018-.026.048.015.055s.051,0,.057-.04a1.6,1.6,0,0,1,.04-.182.158.158,0,0,1,.1-.117c.068-.022.1,0,.086.071s-.031.149-.048.222c0,.017-.02.039.011.042s.051.011.061-.028c.018-.09.039-.18.055-.251,0-.09-.029-.123-.1-.127" transform="translate(-91.568 -75.778)" fill="#f9f9f9"/>
      <path id="Path_809" data-name="Path 809" d="M.4,81.506c.035,0,.044-.018.046-.046S.417,81.436.4,81.436c-.057,0-.116,0-.172,0s-.125,0-.187,0c-.033,0-.037.022-.04.044s.022.026.042.026.055,0,.083,0,.051.009.042.051c-.029.123-.053.248-.077.371,0,.018-.031.051.017.059s.053-.007.061-.046c.018-.1.042-.2.062-.3.026-.127.024-.127.154-.13Z" transform="translate(0 -74.273)" fill="#f9f9f9"/>
      <path id="Path_810" data-name="Path 810" d="M.654,81.45H.827c-.059,0-.116,0-.172,0s-.125,0-.187,0Z" transform="translate(-0.426 -74.287)" fill="#f9f9f9"/>
      <path id="Path_811" data-name="Path 811" d="M83.845,83.083a.158.158,0,0,0-.1.033c-.009.005-.026.026-.029,0s-.024-.028-.044-.028-.028.028-.031.046c-.022.1-.042.2-.062.3,0,.018-.028.046.015.051s.051,0,.057-.04a1.659,1.659,0,0,1,.042-.189.155.155,0,0,1,.1-.112c.066-.024.1.006.086.072s-.031.149-.048.224c0,.017-.018.039.013.042s.05.009.057-.022c.02-.092.04-.183.057-.257,0-.092-.037-.128-.112-.125" transform="translate(-76.224 -75.777)" fill="#f9f9f9"/>
      <path id="Path_812" data-name="Path 812" d="M65.074,83.084a.167.167,0,0,0-.1.031c-.009.005-.028.031-.033,0s-.028-.024-.046-.024-.026.024-.029.04c-.022.1-.042.207-.062.31,0,.018-.029.046.015.051s.051,0,.057-.04c.011-.062.026-.127.042-.187a.152.152,0,0,1,.094-.112c.066-.024.1,0,.088.071s-.031.149-.048.222c0,.018-.022.042.015.046s.048.007.055-.026c.02-.092.04-.183.057-.26,0-.084-.033-.121-.1-.123" transform="translate(-59.091 -75.777)" fill="#f9f9f9"/>
      <path id="Path_813" data-name="Path 813" d="M52.1,83.072a.185.185,0,0,0-.145.051c-.013-.018,0-.049-.037-.048s-.037.016-.042.042c-.02.1-.044.2-.064.3,0,.018-.029.051.018.059s.048-.011.055-.044c.011-.061.024-.121.04-.182a.148.148,0,0,1,.1-.114c.066-.022.1.009.084.077l-.05.222c0,.015-.017.039.017.04s.048.009.055-.026c.018-.1.044-.189.057-.284a.093.093,0,0,0-.09-.1" transform="translate(-47.243 -75.766)" fill="#f9f9f9"/>
      <path id="Path_814" data-name="Path 814" d="M51.628,42.339c0-.075.017-.154-.051-.215a.215.215,0,0,0-.218.132c-.011.035-.024.075.015.1a.631.631,0,0,0,.059.037.418.418,0,0,0,.194.061c0-.039,0-.077,0-.116" transform="translate(-46.832 -38.419)" fill="#f9f9f9"/>
      <path id="Path_815" data-name="Path 815" d="M70.251,83.192c-.044.086-.094.169-.139.253l-.015,0c-.013-.086-.026-.171-.037-.257-.005-.037-.028-.039-.055-.035s-.022.028-.018.046l.05.306c0,.022,0,.049.035.049s.051.007.068-.022c.07-.123.141-.246.213-.372-.05-.018-.077-.011-.1.035" transform="translate(-63.828 -75.836)" fill="#f9f9f9"/>
      <path id="Path_816" data-name="Path 816" d="M105.6,81.684c-.053,0-.035-.033-.031-.061s.018-.048,0-.081c-.031.028-.072.033-.077.079,0,.029,0,.062-.053.066a.026.026,0,0,0,0,.051c.039.013.024.033.02.053-.015.07-.029.139-.042.209a.064.064,0,0,0,.022.073.128.128,0,0,0,.094.013c.02,0,.02-.022.024-.039s0-.024-.015-.024c-.061,0-.046-.037-.04-.07.009-.05.02-.1.031-.149.007-.033,0-.077.061-.068.018,0,.026-.017.028-.035s-.007-.02-.022-.02" transform="translate(-96.144 -74.372)" fill="#f9f9f9"/>
      <path id="Path_817" data-name="Path 817" d="M76.2,83.111c0-.037-.042-.02-.068-.02a.064.064,0,0,0-.031.011c-.02.011-.04.053-.059-.006a.037.037,0,0,0-.057.02c-.026.114-.048.227-.072.343,0,.017-.005.033.018.035s.048,0,.053-.035a1.058,1.058,0,0,1,.051-.213c.02-.046.05-.1.1-.086s.064-.024.061-.05" transform="translate(-69.235 -75.78)" fill="#f9f9f9"/>
      <path id="Path_818" data-name="Path 818" d="M19.872,83.109c.007-.031-.022-.028-.04-.029-.044-.005-.072.024-.1.05-.011-.018,0-.05-.037-.046s-.035.02-.04.044c-.02.1-.042.2-.062.3,0,.018-.024.048.013.057s.05-.007.057-.042a1.755,1.755,0,0,1,.046-.195c.02-.057.05-.11.127-.1.035.005.037-.028.04-.046" transform="translate(-17.859 -75.773)" fill="#f9f9f9"/>
      <path id="Path_819" data-name="Path 819" d="M40.376,81.445c-.026,0-.05,0-.057.033-.033.16-.066.319-.1.484,0,.011-.009.031.022.035a.046.046,0,0,0,.057-.042c.031-.154.062-.306.094-.459.005-.02.02-.046-.015-.051" transform="translate(-36.68 -74.282)" fill="#f9f9f9"/>
      <path id="Path_820" data-name="Path 820" d="M74.06,83.14c-.029,0-.048,0-.055.037-.022.11-.044.22-.066.323-.007.026-.009.042.02.042s.048,0,.055-.035c.02-.1.044-.209.064-.316,0-.018.022-.048-.018-.051" transform="translate(-67.432 -75.828)" fill="#f9f9f9"/>
      <path id="Path_821" data-name="Path 821" d="M107.9,86.752c-.048-.006-.042.031-.048.059s.022.022.035.026c.05.007.05-.026.053-.057s-.022-.026-.04-.028" transform="translate(-98.369 -79.123)" fill="#f9f9f9"/>
      <path id="Path_822" data-name="Path 822" d="M110.3,86.747c-.044-.007-.046.026-.051.055s.018.028.044.031.037-.029.044-.055-.018-.028-.037-.031" transform="translate(-100.556 -79.118)" fill="#f9f9f9"/>
      <path id="Path_823" data-name="Path 823" d="M112.707,86.728c-.031-.007-.028.031-.033.059s.024.026.04.028c.046.007.042-.031.05-.057s-.024-.026-.057-.029" transform="translate(-102.764 -79.1)" fill="#f9f9f9"/>
      <path id="Path_824" data-name="Path 824" d="M75.09,81.435c-.048,0-.042.035-.048.061s.022.022.031.024c.05,0,.042-.029.048-.055s-.011-.028-.031-.029" transform="translate(-68.443 -74.274)" fill="#f9f9f9"/>
      <path id="Path_825" data-name="Path 825" d="M25.65,38.17h0Z" transform="translate(-23.393 -34.813)" fill="#686868"/>
      <path id="Path_826" data-name="Path 826" d="M59.29,47.867c-.011-.009-.026-.024-.042-.017s-.015.031-.013.05a.2.2,0,0,0,.18.158c0-.042,0-.083,0-.125a.491.491,0,0,1-.127-.066" transform="translate(-54.024 -43.641)" fill="#686868"/>
      <path id="Path_827" data-name="Path 827" d="M33.951,37.544" transform="translate(-30.965 -34.242)" fill="#686868"/>
      <path id="Path_828" data-name="Path 828" d="M33.953,37.523l0,0a0,0,0,0,0,0,0" transform="translate(-30.965 -34.223)" fill="#686868"/>
      <path id="Path_829" data-name="Path 829" d="M33.951,37.544" transform="translate(-30.965 -34.242)" fill="#686868"/>
      <path id="Path_830" data-name="Path 830" d="M47.472,31.266c-.015-.134.009-.266,0-.4,0-.024.015-.04.031-.059a2.078,2.078,0,0,0,.22-.282c.005-.007.02-.022.007-.033s-.022,0-.033.013q-.085.08-.176.154c-.015.013-.029.04-.05.029s-.017-.04-.017-.062c0-.215-.02-.427-.033-.642,0-.02.007-.046-.018-.055a7.12,7.12,0,0,0-.042.815c0,.024.015.059-.017.066a.084.084,0,0,1-.073-.029,1.733,1.733,0,0,0-.178-.149c-.05-.033-.048-.064-.02-.108a.313.313,0,0,0-.007-.35.338.338,0,0,0-.563-.033.471.471,0,0,1-.033.05.288.288,0,0,0-.037.316.354.354,0,0,0,.512.156.079.079,0,0,1,.121.022,2.724,2.724,0,0,0,.229.253.154.154,0,0,1,.05.127c0,.123,0,.246,0,.393a.058.058,0,0,0,.009-.013l.051-.064c.02-.037.042-.073.064-.112" transform="translate(-42.325 -27.297)" fill="#f9f9f9"/>
      <path id="Path_831" data-name="Path 831" d="M57.192,46.5l.051-.064-.051.064" transform="translate(-52.163 -42.349)" fill="#f9f9f9"/>
      <path id="Path_832" data-name="Path 832" d="M61.413,29.362A.358.358,0,0,0,61.778,29a.365.365,0,0,0-.356-.365.361.361,0,0,0-.354.367.333.333,0,0,0,.345.36" transform="translate(-55.697 -26.117)" fill="#f9f9f9"/>
      <path id="Path_833" data-name="Path 833" d="M55.262,16.947a.261.261,0,0,0,.253-.235.245.245,0,0,0-.244-.261.231.231,0,0,0-.249.238.259.259,0,0,0,.24.257" transform="translate(-50.183 -15.005)" fill="#f9f9f9"/>
      <path id="Path_834" data-name="Path 834" d="M49.586,23.139a.229.229,0,0,0,.224-.226.221.221,0,0,0-.215-.224.225.225,0,0,0-.009.449" transform="translate(-45.027 -20.695)" fill="#f9f9f9"/>
      <path id="Path_835" data-name="Path 835" d="M62.1,22.9a.144.144,0,0,0,.145-.13.135.135,0,0,0-.134-.145.133.133,0,0,0-.143.134.138.138,0,0,0,.132.141" transform="translate(-56.52 -20.638)" fill="#f9f9f9"/>
      <path id="Path_836" data-name="Path 836" d="M78.36,45.827a.252.252,0,0,0,.172-.059.057.057,0,0,0,0-.1.2.2,0,0,0-.194-.033c-.059.02-.114.064-.1.121s.079.068.128.073" transform="translate(-71.351 -41.608)" fill="#f9f9f9"/>
      <path id="Path_837" data-name="Path 837" d="M61.135,45.71a.112.112,0,0,0,0,.024.386.386,0,0,1,0,.046.183.183,0,0,1-.006.07.214.214,0,0,0,.145-.039.056.056,0,0,0,.022-.04c0-.066-.057-.106-.16-.11h-.007v.05" transform="translate(-55.759 -41.645)" fill="#f9f9f9"/>
      <path id="Path_838" data-name="Path 838" d="M61.176,45.692h.007s-.005,0-.007,0" transform="translate(-55.796 -41.674)" fill="#f9f9f9"/>
      <path id="Path_839" data-name="Path 839" d="M59.747,45.818c0-.015,0-.031,0-.046s0-.015,0-.024a.38.38,0,0,1,0-.046.13.13,0,0,0-.039.011c-.046.029-.11.059-.1.119a.067.067,0,0,0,.035.044.288.288,0,0,0,.1.013.234.234,0,0,0,0-.072" transform="translate(-54.366 -41.683)" fill="#686868"/>
      <path id="Path_840" data-name="Path 840" d="M61.144,45.7h0a.192.192,0,0,0,0,.046.128.128,0,0,1,0-.046" transform="translate(-55.764 -41.682)" fill="#686868"/>
    </g>
  </g>
</svg>
