<svg id="Group_363" data-name="Group 363" xmlns="http://www.w3.org/2000/svg" xmlns:xlink="http://www.w3.org/1999/xlink" width="10" height="9.247" viewBox="0 0 10 9.247">
  <defs>
    <clipPath id="clip-path">
      <rect id="Rectangle_1034" data-name="Rectangle 1034" width="10" height="9.247" fill="none"/>
    </clipPath>
    <clipPath id="clip-path-2">
      <path id="Path_954" data-name="Path 954" d="M62.619,51.194a1.286,1.286,0,0,1-1.009,1.433,4.522,4.522,0,0,0,2.543,3.8,4.567,4.567,0,0,0,2.628-3.8,1.249,1.249,0,0,1-.989-1.433,4.838,4.838,0,0,0-1.513-.185,5.6,5.6,0,0,0-1.66.185" transform="translate(-61.61 -51.009)" fill="none"/>
    </clipPath>
  </defs>
  <g id="Group_323" data-name="Group 323">
    <g id="Group_322" data-name="Group 322" clip-path="url(#clip-path)">
      <path id="Path_845" data-name="Path 845" d="M44.019,15.166a.127.127,0,0,0-.047-.008.424.424,0,0,0-.074,0,.377.377,0,0,0-.09.012.845.845,0,0,0-.093.027.253.253,0,0,0-.109.078.085.085,0,0,0-.008.086.062.062,0,0,0,.035.035.124.124,0,0,0,.055.012.655.655,0,0,0,.078-.008c.031,0,.066-.012.105-.019a1.013,1.013,0,0,1,.144-.016.285.285,0,0,1,.117.012.2.2,0,0,1,.09.047.274.274,0,0,1,.058.093.254.254,0,0,1,.016.128.267.267,0,0,1-.043.109.376.376,0,0,1-.09.086.6.6,0,0,1-.121.066.938.938,0,0,1-.21.062.8.8,0,0,1-.214.008c0-.058,0-.117.008-.175.012,0,.031,0,.055.008h.086c.031,0,.066-.008.105-.012a.591.591,0,0,0,.109-.035c.1-.043.136-.09.113-.148a.07.07,0,0,0-.035-.039A.148.148,0,0,0,44,15.56a.4.4,0,0,0-.09.008c-.035,0-.07.012-.113.019s-.093.016-.132.019a.3.3,0,0,1-.105-.008.206.206,0,0,1-.078-.035.19.19,0,0,1-.058-.074.242.242,0,0,1-.027-.125.331.331,0,0,1,.035-.121.4.4,0,0,1,.093-.105.665.665,0,0,1,.136-.082.6.6,0,0,1,.21-.055.937.937,0,0,1,.183,0,1.452,1.452,0,0,0-.031.16" transform="translate(-41.702 -14.416)" fill="#6c6c6c"/>
      <path id="Path_846" data-name="Path 846" d="M76.324,5.213l.183-.047c.206.269.393.545.568.825l-.187.035c-.043-.07-.09-.136-.136-.206-.113.023-.226.055-.335.082l-.023.245c-.062.019-.125.035-.183.055a7.936,7.936,0,0,1,.113-.989m.362.495c-.074-.109-.148-.214-.222-.319-.019.128-.039.261-.055.389.093-.027.183-.051.276-.07" transform="translate(-73.244 -4.965)" fill="#6c6c6c"/>
      <path id="Path_847" data-name="Path 847" d="M105.024,1.708c-.039-.308-.074-.611-.113-.919l.21-.023c.027.308.058.611.086.919l-.183.023" transform="translate(-100.826 -0.736)" fill="#6c6c6c"/>
      <path id="Path_848" data-name="Path 848" d="M123.934.926,123.911,0c.16,0,.319,0,.479,0a.307.307,0,0,1,.136.035.352.352,0,0,1,.105.078.29.29,0,0,1,.062.105.228.228,0,0,1,.016.113.3.3,0,0,1-.062.16.278.278,0,0,1-.14.1c.07.121.136.241.195.362-.07-.008-.136-.012-.206-.016-.058-.105-.121-.214-.183-.319-.062,0-.128,0-.191,0V.93a1.5,1.5,0,0,0-.187,0m.187-.471c.082,0,.164,0,.249,0a.2.2,0,0,0,.051-.008.11.11,0,0,0,.043-.031A.14.14,0,0,0,124.5.373a.156.156,0,0,0,.012-.058A.161.161,0,0,0,124.5.252.137.137,0,0,0,124.468.2a.187.187,0,0,0-.043-.035.12.12,0,0,0-.051-.012c-.086,0-.167,0-.253,0Z" transform="translate(-119.086 0)" fill="#6c6c6c"/>
      <path id="Path_849" data-name="Path 849" d="M152.141,3.466c.062.012.121.023.183.039.07.331.121.662.16.989l-.187-.047-.035-.245q-.169-.041-.339-.07c-.043.07-.086.14-.125.21-.062-.012-.125-.019-.187-.027a8.519,8.519,0,0,1,.53-.849m.113.6c-.019-.128-.039-.257-.062-.385-.074.109-.144.218-.214.327.09.019.183.035.276.058" transform="translate(-145.708 -3.331)" fill="#6c6c6c"/>
      <path id="Path_850" data-name="Path 850" d="M183.943,11.338c.086-.183.175-.37.261-.553-.148.1-.292.2-.428.308a1.014,1.014,0,0,0-.1-.039c-.019-.171-.047-.347-.082-.522l-.21.572c-.058-.023-.117-.043-.175-.062.1-.292.195-.584.3-.876.074.023.144.051.214.078.039.2.074.4.1.6.164-.121.331-.238.506-.35.07.031.136.066.206.1-.14.273-.28.549-.421.822l-.171-.082" transform="translate(-176.077 -9.77)" fill="#6c6c6c"/>
      <path id="Path_851" data-name="Path 851" d="M11.114,183.866c.047.035.1.07.144.1a9.31,9.31,0,0,0-.144,1c-.066-.039-.132-.082-.2-.125.012-.086.023-.167.035-.253-.109-.074-.218-.152-.327-.23-.074.039-.148.082-.226.117-.062-.047-.125-.1-.187-.148a7.909,7.909,0,0,0,.9-.467m-.128.6q.035-.193.082-.385c-.113.07-.226.136-.339.2.082.062.171.125.257.183" transform="translate(-9.813 -176.707)" fill="#6c6c6c"/>
      <path id="Path_852" data-name="Path 852" d="M45.636,199.911a.441.441,0,0,1,.109-.132.468.468,0,0,1,.156-.086.587.587,0,0,1,.187-.027.593.593,0,0,1,.206.051.491.491,0,0,1,.2.144.382.382,0,0,1,.093.191l-.179.035a.229.229,0,0,0-.023-.078.353.353,0,0,0-.043-.062.2.2,0,0,0-.055-.047.5.5,0,0,0-.062-.035.279.279,0,0,0-.132-.027.285.285,0,0,0-.117.023.257.257,0,0,0-.093.066.355.355,0,0,0-.066.09.289.289,0,0,0-.031.117.293.293,0,0,0,.016.117.3.3,0,0,0,.066.105.343.343,0,0,0,.113.078.258.258,0,0,0,.078.023.581.581,0,0,0,.082.008.252.252,0,0,0,.078-.016.163.163,0,0,0,.07-.043c.043.047.09.093.136.14a.239.239,0,0,1-.1.058.681.681,0,0,1-.128.023.852.852,0,0,1-.14-.012.555.555,0,0,1-.136-.043.508.508,0,0,1-.187-.132.525.525,0,0,1-.109-.175.45.45,0,0,1-.031-.187.357.357,0,0,1,.043-.167" transform="translate(-43.817 -191.892)" fill="#6c6c6c"/>
      <path id="Path_853" data-name="Path 853" d="M74.538,209.766l.167.035a8.726,8.726,0,0,0,.241.977l-.226-.035c-.019-.082-.043-.164-.062-.245q-.187-.035-.374-.082c-.051.066-.105.132-.156.2-.074-.019-.148-.039-.218-.062.222-.253.432-.514.627-.787m.109.6c-.027-.129-.047-.257-.066-.385-.074.109-.152.214-.23.319.1.023.195.047.3.066" transform="translate(-71.033 -201.598)" fill="#6c6c6c"/>
      <path id="Path_854" data-name="Path 854" d="M111.711,214.289c.023-.308.047-.615.074-.923.121.008.238.016.358.019a.563.563,0,0,1,.21.039.475.475,0,0,1,.156.093.4.4,0,0,1,.1.14.526.526,0,0,1,.043.175.437.437,0,0,1-.027.191.4.4,0,0,1-.1.152.492.492,0,0,1-.171.1.609.609,0,0,1-.23.031,3.69,3.69,0,0,1-.413-.016m.736-.444a.3.3,0,0,0-.023-.121.263.263,0,0,0-.062-.093.279.279,0,0,0-.1-.062.343.343,0,0,0-.128-.023c-.058,0-.113,0-.171,0-.008.2-.019.4-.027.607.062,0,.125,0,.187.008a.377.377,0,0,0,.14-.023.27.27,0,0,0,.1-.066.251.251,0,0,0,.058-.1.231.231,0,0,0,.023-.125" transform="translate(-107.361 -205.058)" fill="#6c6c6c"/>
      <path id="Path_855" data-name="Path 855" d="M147.164,210.306c.012.051.023.1.039.152a7.537,7.537,0,0,1-.775.144c-.039-.3-.078-.611-.117-.915a6.377,6.377,0,0,0,.662-.121l.035.152c-.16.039-.323.07-.483.1.012.074.023.148.035.218.144-.023.288-.051.432-.086.012.047.023.093.031.14-.148.035-.3.062-.444.086.012.078.027.16.039.238a5.386,5.386,0,0,0,.545-.105" transform="translate(-140.614 -201.406)" fill="#6c6c6c"/>
      <path id="Path_856" data-name="Path 856" d="M175.264,197.489c-.086-.183-.175-.37-.261-.553-.016.175-.043.354-.07.53l-.109.047c-.148-.105-.288-.214-.424-.327.066.191.136.385.2.576l-.21.07c-.093-.292-.187-.588-.28-.88.066-.019.132-.043.2-.066.152.132.312.261.475.382.035-.2.058-.4.074-.607.062-.031.125-.058.187-.093.14.273.28.549.421.822-.066.035-.132.07-.2.1" transform="translate(-167.332 -188.912)" fill="#6c6c6c"/>
      <path id="Path_857" data-name="Path 857" d="M207.194,178.1q.228.117.467.222c-.012-.175-.027-.347-.047-.518.058-.043.113-.09.171-.136a6.2,6.2,0,0,1,.055.716l.191.261c-.062.047-.125.09-.187.132-.062-.09-.121-.179-.183-.269a7.04,7.04,0,0,1-.65-.3c.062-.039.125-.074.183-.113" transform="translate(-198.951 -170.748)" fill="#6c6c6c"/>
      <path id="Path_858" data-name="Path 858" d="M53.474,45.139l-.017-.005c-1.68-.524-2.781-2.213-2.946-4.518l0-.059.059,0a1.089,1.089,0,0,0,.692-.357,1.316,1.316,0,0,0,.239-1.019l0-.035.029-.02a6.364,6.364,0,0,1,4.019,0l.038.019-.007.042a1.071,1.071,0,0,0,.917,1.374l.047.011,0,.048a5.968,5.968,0,0,1-.706,2.5,3.968,3.968,0,0,1-2.337,2.019Zm-2.842-4.476c.174,2.218,1.233,3.842,2.843,4.354,2.042-.619,2.873-2.925,2.941-4.36A1.169,1.169,0,0,1,55.45,39.2a5.067,5.067,0,0,0-2.139-.291,4.788,4.788,0,0,0-1.7.287,1.406,1.406,0,0,1-.27,1.072,1.186,1.186,0,0,1-.714.39" transform="translate(-48.54 -37.284)" fill="#6c6c6c"/>
      <path id="Path_859" data-name="Path 859" d="M63.371,55.724l-.01,0a3.634,3.634,0,0,1-1.7-1.42,5.326,5.326,0,0,1-.863-2.409l0-.026.026-.005a1.246,1.246,0,0,0,.985-1.4l0-.02.018-.009a6.9,6.9,0,0,1,3.2,0l.022.008,0,.023a1.221,1.221,0,0,0,.967,1.4l.025.006,0,.026a4.606,4.606,0,0,1-2.647,3.829Zm-2.511-3.813a4.521,4.521,0,0,0,2.511,3.751,4.545,4.545,0,0,0,2.6-3.751,1.276,1.276,0,0,1-.99-1.436,7.119,7.119,0,0,0-3.11,0,1.313,1.313,0,0,1-1.008,1.437" transform="translate(-58.429 -48.284)" fill="#161616"/>
    </g>
  </g>
  <g id="Group_325" data-name="Group 325" transform="translate(2.399 1.986)">
    <g id="Group_324" data-name="Group 324" clip-path="url(#clip-path-2)">
      <path id="Path_860" data-name="Path 860" d="M133.33,96.237a.355.355,0,0,0-.1-.093l.016-.039s-.012.019-.023.035a.364.364,0,0,0-.039-.019c0-.012,0-.027.008-.035a.111.111,0,0,1-.016.031.3.3,0,0,0-.07-.019v-.012s0,.008,0,.012a.3.3,0,0,0-.062-.008.085.085,0,0,0,0-.023c0,.008,0,.016,0,.023a.468.468,0,0,0-.074,0c-.129,0-.241.125-.206.152s.086-.128.218-.128h.058a.2.2,0,0,0-.008.035.287.287,0,0,0-.234.109.067.067,0,0,1-.051.008s-.031.039.074.043a1.086,1.086,0,0,1,.393-.023c-.14.012-.35.047-.374.047s-.1,0-.121.016c0,0,.051-.008.179.074a.493.493,0,0,0,.319-.019,1.426,1.426,0,0,0-.164-.008.287.287,0,0,0,.1-.047.141.141,0,0,1,.117-.051c.019.012.082.047.109.027-.035-.008-.1-.023-.093-.039s.109-.012.125-.074c-.016.012-.051.039-.07.027m-.533.035a.668.668,0,0,1,.109-.07c.019.031.008.035.058.066a.607.607,0,0,1-.167,0m.253-.058c-.016,0-.027-.008-.027-.019s.012-.019.027-.019.027.008.027.019a.036.036,0,0,1-.027.019m.031-.066c-.012,0-.023,0-.035,0v-.035c.019,0,.035,0,.051,0a.152.152,0,0,1-.016.035m.031-.031a.131.131,0,0,1,.055.019.169.169,0,0,1-.023.027l-.039-.012c0-.008,0-.023.008-.035m.093.14s-.023.027-.1,0v0c.023,0,.035-.039.035-.039s.07.012.062.047m-.012-.078-.027-.012a.063.063,0,0,0,.016-.027.118.118,0,0,1,.027.019c-.008.008-.012.016-.016.019M133,96.37a.631.631,0,0,1-.164-.023,2.68,2.68,0,0,1,.327-.051.4.4,0,0,1-.164.074m.21-.183s0-.008.008-.016a.223.223,0,0,1,.027.031.1.1,0,0,1-.035-.016" transform="translate(-129.943 -94.312)" fill="#b2b2b2"/>
      <path id="Path_861" data-name="Path 861" d="M107.528,98.566c-.191.012-.245-.039-.23-.043s.1.012.234.016.276-.051.257-.086c-.055-.117-.128-.164-.206-.164l-.012-.023c0,.008,0,.016,0,.023a.146.146,0,0,0-.043,0,.233.233,0,0,1-.012-.027c0,.008,0,.016,0,.031-.008,0-.016,0-.023,0,0-.019.008-.035.008-.035a.078.078,0,0,0-.035.043l-.035.012a.047.047,0,0,1,0-.019l-.012.023a.232.232,0,0,0-.031.016c-.008-.027-.016-.051-.016-.051a.092.092,0,0,0,0,.058l-.039.023a.2.2,0,0,1-.012-.019v.027a.215.215,0,0,0-.031.023.172.172,0,0,0-.023-.019.042.042,0,0,0,.012.027.7.7,0,0,0-.066.058.086.086,0,0,1-.1.016c0,.066.14.047.156.055.082.086.28.058.4.051a.289.289,0,0,1-.327,0s.008.086.167.086a.311.311,0,0,0,.245-.16c0,.008-.031.035-.222.047m.222-.125a.4.4,0,0,0-.136-.066.205.205,0,0,0-.012-.047c.175.043.167.125.148.113m-.093-.019c.012,0,.078.055.012.082a.21.21,0,0,1-.074.008.557.557,0,0,0,.062-.09m-.074-.1v.047c-.012,0-.019,0-.031,0a.2.2,0,0,0-.008-.051.115.115,0,0,0,.039.008m-.031.109a.024.024,0,1,1-.023-.019.02.02,0,0,1,.023.019m-.058-.109c.008,0,.019,0,.027,0,0,.019,0,.039,0,.051a.086.086,0,0,0-.031,0Zm-.023,0a.259.259,0,0,0,0,.051s-.008,0-.012,0a.057.057,0,0,1-.016-.047.092.092,0,0,0,.031-.008m-.043.016c0,.019,0,.035,0,.047s0,0-.008,0a.091.091,0,0,1-.019-.039c.008-.008.016-.008.023-.012m-.012.086s.016.078.066.09c0,0-.113.027-.14-.019-.012-.035.074-.07.074-.07m-.031-.066a.242.242,0,0,0,.012.039s-.012,0-.016.008a.061.061,0,0,1-.027-.027.218.218,0,0,0,.031-.019m-.043.031a.061.061,0,0,0,.019.031.014.014,0,0,0-.008,0,.158.158,0,0,1-.035-.019.06.06,0,0,1,.023-.016m-.082.105s-.031.012-.027,0a.308.308,0,0,1,.07-.074l.023.023a.254.254,0,0,0-.066.051" transform="translate(-105.339 -96.426)" fill="#b2b2b2"/>
      <path id="Path_862" data-name="Path 862" d="M123.311,99.266s.093.086.093.14a.413.413,0,0,1-.074.171.173.173,0,0,0,.117-.167.147.147,0,0,0-.136-.144" transform="translate(-120.909 -97.387)" fill="#b2b2b2"/>
      <path id="Path_863" data-name="Path 863" d="M100.665,83.2a4.077,4.077,0,0,1,1.2-.347s-.288-.117-1.191.308c-.156.066.055-.245.323-.362a2.313,2.313,0,0,1,.931-.183,1.923,1.923,0,0,0-.977.156c-.35.164-.452.4-.284.428" transform="translate(-99.068 -81.372)" fill="#b2b2b2"/>
      <path id="Path_864" data-name="Path 864" d="M118.415,125.05s0,.008,0,.012v.008a.008.008,0,0,0,.008.008.014.014,0,0,0,.012,0h.012s0,0,0,0,0,0,.008,0l.031-.031h0a.253.253,0,0,0,.043.035.56.56,0,0,0,.323.109h.035a.467.467,0,0,0,.276-.121.587.587,0,0,0,.093-.1h.016a.1.1,0,0,0,.051.019.029.029,0,0,0,.019,0,.039.039,0,0,0,.016-.019.029.029,0,0,0,0-.016v-.008s0,0,0-.008a.471.471,0,0,0-.319-.125h-.012v-.012a.058.058,0,0,0,0-.027.045.045,0,0,0-.012.027v.008a.431.431,0,0,0-.109.016V124.8a.059.059,0,0,0-.016-.031c0,.008,0,.019,0,.031s0,.012,0,.016a.25.25,0,0,0-.027.008.641.641,0,0,0-.082-.008.411.411,0,0,0-.276.109.18.18,0,0,0-.027.027s0-.012,0-.016a.041.041,0,0,0-.023-.035.249.249,0,0,1,.008.035c0,.016,0,.023,0,.035s-.012.012-.016.019,0-.008,0-.012,0-.023.008-.035a.224.224,0,0,0,0-.058.211.211,0,0,0-.008.058.108.108,0,0,1,0,.035V125c-.008.012-.016.019-.019.027V125a.086.086,0,0,0,0-.035.074.074,0,0,0-.012.035.049.049,0,0,0,0,.023.01.01,0,0,1,0,.016s0,0,0,.008m.444.109a.423.423,0,0,1-.07,0c.016-.027,0-.09,0-.09a.133.133,0,0,1-.035.082.223.223,0,0,1-.055-.016.122.122,0,0,1,0-.074.1.1,0,0,0-.016.066c-.023-.012-.047-.019-.066-.031a.4.4,0,0,1-.074-.051s-.008,0-.008-.008c.062,0,.179-.008.241-.008h.035a.29.29,0,0,0,.07.008h.012a.19.19,0,0,1-.027.125m.288-.109c-.019.016-.043.031-.066.047a.044.044,0,0,1-.019-.016.081.081,0,0,0,.008.023.464.464,0,0,1-.062.031c0-.016-.031-.035-.031-.035a.1.1,0,0,1,0,.047.46.46,0,0,1-.078.016c.019-.023.008-.1,0-.125a.348.348,0,0,0,.078-.023.2.2,0,0,1,.058-.019,1.169,1.169,0,0,1,.195-.027c-.019.016-.047.047-.09.082m.039-.109a.064.064,0,0,0-.012-.023s0,.016,0,.023-.023,0-.035,0l-.012-.027a.043.043,0,0,1,0,.031.023.023,0,0,0-.016,0,.6.6,0,0,0-.082.016.537.537,0,0,0-.062.023.2.2,0,0,1-.1.023.221.221,0,0,1-.062-.008h-.012a.28.28,0,0,1-.035-.062.183.183,0,0,0,.016.062h-.039a.477.477,0,0,1-.027-.066.2.2,0,0,0,0,.066c-.066,0-.156.008-.2.008a.593.593,0,0,1,.09-.062.384.384,0,0,1,.171-.043.321.321,0,0,1,.1.016h.008a.372.372,0,0,1,.164-.043.352.352,0,0,1,.191.062.122.122,0,0,0-.047,0m-.748.113h0a.448.448,0,0,1,.093-.109.377.377,0,0,1,.253-.1.581.581,0,0,1,.082.008h.008a.508.508,0,0,1,.167-.027.44.44,0,0,1,.3.113.014.014,0,0,1,0,.012,0,0,0,0,1,0,0h0a.1.1,0,0,1-.051-.023.346.346,0,0,0-.4-.035.49.49,0,0,0-.105-.016.411.411,0,0,0-.245.086c-.023.019-.043.035-.058.051l-.012.012-.023.023s0,0,0,0" transform="translate(-116.199 -121.894)" fill="#b2b2b2"/>
      <path id="Path_865" data-name="Path 865" d="M138.011,128.694h0" transform="translate(-135.036 -125.666)" fill="#b2b2b2"/>
      <path id="Path_866" data-name="Path 866" d="M158.687,103.021a.072.072,0,0,1,.008.027.023.023,0,0,1,0,.016s-.008.012-.016.016-.008.012,0,.016.012.008.016,0a.132.132,0,0,0,.023-.023.072.072,0,0,0,.008-.027.059.059,0,0,0-.016-.039.115.115,0,0,0-.012-.016.011.011,0,0,0-.016.016l.012.012" transform="translate(-154.89 -100.967)" fill="#b2b2b2"/>
      <path id="Path_867" data-name="Path 867" d="M130.433,91.436a.164.164,0,0,0-.078.039.12.12,0,0,1-.008-.043.268.268,0,0,1,.008-.051c0-.008,0-.012-.008-.016s-.012,0-.016.008a.142.142,0,0,0-.008.055.222.222,0,0,0,.012.062.131.131,0,0,0-.047.074s0,.008-.008.012a.082.082,0,0,1-.016.023.19.19,0,0,0-.012.027s0,.008,0,.016a.169.169,0,0,0,0,.019v.031a.091.091,0,0,1-.008.031c0,.012-.012.019-.016.031s0,.012-.008.019a.042.042,0,0,0,0,.019v0c0,.008,0,.016.008.023s0,.016.008.023a.086.086,0,0,0,.012.019.069.069,0,0,0,.016.019.252.252,0,0,0,.035.031.427.427,0,0,0,.043.023.786.786,0,0,0,.09.027.189.189,0,0,1,.043.016l.019.012L130.5,92h.008V92a.069.069,0,0,1-.019-.016l-.019-.012-.043-.019c-.031-.012-.058-.019-.086-.031a.344.344,0,0,1-.039-.023.119.119,0,0,1-.031-.031.085.085,0,0,1-.012-.019c0-.008-.008-.012-.008-.019s0-.012-.008-.019a.035.035,0,0,1,0-.019.014.014,0,0,1,0-.012.03.03,0,0,1,.008-.016c0-.012.012-.019.016-.031a.114.114,0,0,0,.012-.039v-.043a.012.012,0,0,1,0-.008s0-.008,0-.012l.012-.023a.082.082,0,0,1,.016-.023l0,0a.368.368,0,0,0,.125-.051c.027-.016.491-.117.592.148,0,.019,0-.288-.6-.238" transform="translate(-127.54 -89.795)" fill="#b2b2b2"/>
      <path id="Path_868" data-name="Path 868" d="M108.039,94.266s.023.082-.008.093a.523.523,0,0,0-.72.245s.156-.241.366-.238.109.055.276.058.148-.16.086-.16" transform="translate(-105.532 -92.582)" fill="#b2b2b2"/>
      <path id="Path_869" data-name="Path 869" d="M138.274,89.133a3.193,3.193,0,0,0-.763-.167,2.88,2.88,0,0,1,.724.214.047.047,0,0,0,.039-.047" transform="translate(-134.556 -87.488)" fill="#b2b2b2"/>
      <path id="Path_870" data-name="Path 870" d="M157.8,109.093a.125.125,0,0,1-.027.023.029.029,0,0,1-.016,0h0s0,0-.008-.008a.055.055,0,0,1-.008-.023v-.012a.012.012,0,0,0-.023,0,.145.145,0,0,0,0,.031l.012.023s.008.008.012.008a.023.023,0,0,0,.016,0,.072.072,0,0,0,.027-.008.194.194,0,0,0,.031-.027.012.012,0,0,0,0-.016c0-.008-.012,0-.016,0" transform="translate(-153.969 -106.805)" fill="#b2b2b2"/>
      <path id="Path_871" data-name="Path 871" d="M86.319,142.278h0c.016,0,.039,0,.062,0a.135.135,0,0,1,.082.019h.008v-.008a.169.169,0,0,0-.09-.019.6.6,0,0,0-.066,0s0,0,0,.008a.005.005,0,0,1,.008,0" transform="translate(-85.349 -138.713)" fill="#b2b2b2"/>
      <path id="Path_872" data-name="Path 872" d="M94.5,142.878h0c.008,0,.023,0,.043,0a.213.213,0,0,1,.132.035h.008a.005.005,0,0,0,0-.008.242.242,0,0,0-.14-.035.194.194,0,0,0-.043,0s0,0,0,.008,0,0,0,0" transform="translate(-93.215 -139.289)" fill="#b2b2b2"/>
      <path id="Path_873" data-name="Path 873" d="M132.956,132.566a.3.3,0,0,1,.1.3c-.09.444-1.032,2.305-1.16,2.94-.008.055.051.039.066.008a1.846,1.846,0,0,1,.253-.775c.218-.549.864-2.021.88-2.149s0-.284-.136-.327" transform="translate(-129.156 -129.39)" fill="#b2b2b2"/>
      <path id="Path_874" data-name="Path 874" d="M61.405,49.134a2.7,2.7,0,0,1-1.906-.773,2.585,2.585,0,0,1-.788-1.863V44.306a2.6,2.6,0,0,1,.788-1.867,2.737,2.737,0,0,1,3.812,0,2.6,2.6,0,0,1,.788,1.867V46.5a2.6,2.6,0,0,1-.788,1.863,2.713,2.713,0,0,1-1.906.773m0-7.429a2.674,2.674,0,0,0-1.879.762,2.565,2.565,0,0,0-.777,1.839V46.5a2.547,2.547,0,0,0,.777,1.836,2.7,2.7,0,0,0,3.758,0,2.561,2.561,0,0,0,.777-1.816h-.019a2.52,2.52,0,0,1-.573,1.585l-.044.054.01-.069a1.427,1.427,0,0,1,.03-.149l-.014,0q-.017.109-.038.229l0,.016,0,0a1.38,1.38,0,0,1-.13.134,2.668,2.668,0,0,1-1.721.753h-.013l-.006-.011a.143.143,0,0,0-.025-.031c-.112-.052-.127-.117-.168-.307l-.018-.083-.009-.043c.025.13.045.231.047.251a.435.435,0,0,0,.074.2l.023.031h-.038a2.554,2.554,0,0,1-.815-.128v.006l-.033-.011a2.662,2.662,0,0,1-1.016-.62,1.776,1.776,0,0,1-.165-.177l-.006-.007v0l-.01-.012a2.628,2.628,0,0,1-.373-.6L59,47.537l-.015-.034a2.464,2.464,0,0,1-.208-1v-.29l0,0c.033-.05.067-.1.1-.146L58.925,46l.025-.033c.02-.026.04-.053.062-.078l.046-.054.064-.064h0l0-.02.006-.032a.431.431,0,0,1,.016-.069c0-.008,0-.019.007-.03s.006-.021.008-.03l.016-.063.039-.126.012-.032.012-.032a.134.134,0,0,1,.017-.035v0a.091.091,0,0,1,.015-.025l.014-.026c.005-.01.01-.02.016-.03l.035-.058a1.09,1.09,0,0,1,.075-.111.5.5,0,0,1,.044-.052.49.49,0,0,1,.049-.045.093.093,0,0,1,.026-.017.061.061,0,0,1,.028-.006.028.028,0,0,1,.021.007.054.054,0,0,1,.012.01l0,0h0l.014.014a.3.3,0,0,1,.014-.053l.012-.031.012-.032a.47.47,0,0,1,.065-.118.091.091,0,0,0,.013-.017l.006-.009.026-.026a.049.049,0,0,1,.016-.012.036.036,0,0,1,.016-.009.088.088,0,0,1,.033-.008h.024l.012.006a.116.116,0,0,1,.028.023l.012.014,0,.006,0-.006c.008-.02.016-.036.024-.052a.193.193,0,0,1,.035-.048.084.084,0,0,1,.06-.025h.027a.031.031,0,0,1,.014,0h.005l.006.006.009.005a.145.145,0,0,1,.043.043.215.215,0,0,1,.023.058c0,.006,0,.008,0,.01a.045.045,0,0,1,0,.023.1.1,0,0,1-.008.028l-.058.29a.275.275,0,0,0,0,.027c0,.01,0,.021,0,.031l-.008.071,0,0,.01.007,0,.012,0,.008h0l.008-.008h.012l.029-.026v.01a.48.48,0,0,0,.014-.06,1,1,0,0,1,.028-.1.714.714,0,0,1,.031-.1l.006-.016a.536.536,0,0,1,.034-.08.109.109,0,0,1,.013-.021.057.057,0,0,1,.015-.016l.006-.006.018,0h.035a.123.123,0,0,1,.055.014.088.088,0,0,1,.044.04.285.285,0,0,1,.014.094.07.07,0,0,1,0,.029l-.006.039.093-.1v-.054l-.017-.049a.359.359,0,0,1-.014-.048.252.252,0,0,0-.01-.026.058.058,0,0,1-.006-.024.1.1,0,0,0,0-.022.059.059,0,0,1,0,.006v.008l-.006.006-.015.013-.012.01,0,0-.011,0a.086.086,0,0,1-.031.007.1.1,0,0,1-.067-.048.31.31,0,0,1-.033-.075l-.012-.04a.065.065,0,0,1,0-.019v-.017a.094.094,0,0,0-.012-.031l0,0a.116.116,0,0,0-.007-.015.155.155,0,0,1-.009-.02l-.03-.064.027-.014-.037-.073-.017-.033a1.226,1.226,0,0,1-.069-.244v.036h-.019l-.019,0a.04.04,0,0,1,0-.012.142.142,0,0,1,0-.021c0-.005,0-.011,0-.018l0-.042v-.076a.055.055,0,0,1,0-.024.036.036,0,0,1,.005-.02.127.127,0,0,1,.036-.064l.012-.012a.039.039,0,0,1,.011-.008l.006,0a.094.094,0,0,1,.04-.01h.02l.014,0a.024.024,0,0,1,.021.011.56.56,0,0,1,.053.051.337.337,0,0,1-.011-.069.149.149,0,0,0-.006-.051l0-.007a.615.615,0,0,1,.24-.495.959.959,0,0,1,.284-.154.82.82,0,0,0-.538.469l-.026.059-.054-.225,0-.005a.945.945,0,0,1,.209-.344,1.422,1.422,0,0,0-.186.222l-.035.05-.008-.047a.734.734,0,0,1,.189-.623,1.614,1.614,0,0,1,1.054-.5h.025a1.379,1.379,0,0,1,1.374,1c.047.155.028.168.022.172l-.012.008-.012-.01a1.278,1.278,0,0,0-.578-.275,1.122,1.122,0,0,1,.635.339l0,0a.139.139,0,0,1,.025.125.025.025,0,0,1-.035,0,.956.956,0,0,0-.439-.177,1.112,1.112,0,0,1,.445.194l.012.009a.056.056,0,0,1,.02.074H62.9l-.013.014,0,.012.029.027.006.006v.008a.078.078,0,0,1,0,.016l.005.017.031.021a.232.232,0,0,1,.1.1.2.2,0,0,1,0,.024l.012.01.019.014c.048.035.136.1.14.187,0,.031,0,.073,0,.121q0-.039.008-.079l0-.045.108.12v.006s0,.009,0,.022h.006a.052.052,0,0,1,.042.023.1.1,0,0,1,.016.066.036.036,0,0,1-.023.028,1.589,1.589,0,0,1-.015.2l0-.012.007-.017.018.007a.4.4,0,0,1,.179.235.468.468,0,0,0-.174-.277l-.01,0,0-.011c-.006-.035-.009-.073.014-.092a.053.053,0,0,1,.055,0l0,0,0,0a1.025,1.025,0,0,1,.245.506.185.185,0,0,0,.027.085,2.14,2.14,0,0,1,.288.512v.333l.023.017V44.306a2.565,2.565,0,0,0-.777-1.84,2.66,2.66,0,0,0-1.879-.761m-.782,7.208a2.506,2.506,0,0,0,.762.124.458.458,0,0,1-.062-.186c-.007-.059-.185-.942-.187-.951l.036-.011c-.025-.061-.05-.116-.068-.159l-.018-.041c-.009-.02-.015-.034-.021-.047a2.544,2.544,0,0,1-.139-.446,2.255,2.255,0,0,0-.217-.586l-.01.032-.023.072-.02.058a.29.29,0,0,1-.008.029c0,.009-.006.018-.007.027s-.005.021-.008.031-.006.018-.007.027l0,0a.051.051,0,0,0,0,.009.072.072,0,0,1-.006.018l-.006.022v.008l-.006.006-.007.01a.086.086,0,0,1-.013.017l0,.005a.126.126,0,0,1-.015.02.3.3,0,0,1-.026.034l-.013.016c-.028.036-.056.068-.083.1L60.4,47.2l-.042.046-.09.094a.03.03,0,0,1-.016.008Zm.559-1a5.85,5.85,0,0,1,.179.72l.018.083c.041.187.052.237.15.281l.006,0a.229.229,0,0,1,.028.033,2.63,2.63,0,0,0,1.685-.741,1.362,1.362,0,0,0,.124-.127v-.005A5.309,5.309,0,0,0,63.5,46.5l-.006-.029.029.006c.017,0,.163.055.042.735-.034.23-.056.394-.071.507a2.622,2.622,0,0,1,.376-.8l.1-.1-.065.127a5.768,5.768,0,0,0-.421,1.071A2.477,2.477,0,0,0,64,46.5v-.019h.023V45.83l-.121-.1a2.207,2.207,0,0,0-.643-.277l-.039-.011c-.371-.173-.405-.176-.457-.181l-.018,0H62.74l0-.005c-.062-.065-.079-.065-.1-.064h-.025l0-.017a.275.275,0,0,0-.016-.072.2.2,0,0,1,0,.093l.008,0a.192.192,0,0,1,.088.1,1.26,1.26,0,0,1-.176.677c-.028.062-.051.116-.065.155s-.093.2-.182.384c-.144.305-.323.685-.345.724a7.1,7.1,0,0,0-.4,1.155.461.461,0,0,0,.053.147l-.035.018c-.021-.039-.034-.045-.046-.05a.066.066,0,0,1-.042-.051c-.007-.04-.021-.113-.037-.194l0-.023a.179.179,0,0,1-.014-.059c0-.009,0-.03-.008-.055-.013-.071-.026-.138-.033-.185a.839.839,0,0,0-.02-.082c-.005-.02-.016-.054-.031-.094s-.028-.07-.042-.105a1.745,1.745,0,0,1-.068-.183c-.006-.021-.014-.054-.024-.1a1.122,1.122,0,0,1-.039-.16l-.006-.032c-.051-.223-.112-.5-.126-.562-.017-.109-.05-.281-.077-.41.008.055.013.1.014.11v0l-.039,0v0a1.1,1.1,0,0,0-.04-.172l0,.021a.219.219,0,0,1-.006.048l-.01.038-.008.026c0,.008,0,.017-.008.026s-.006.017-.007.024v0a.176.176,0,0,0-.009.023.212.212,0,0,1-.011.028l-.011.025-.012.026-.027.056v0a2.06,2.06,0,0,1,.224.558,2.022,2.022,0,0,0,.171.543l.023.054a2.38,2.38,0,0,1,.188.512c0,.05.132.521.167.638l.031.1-.065-.087a2.936,2.936,0,0,1-.171-.546,2.321,2.321,0,0,0-.129-.368m-1.754.216a1.731,1.731,0,0,0,.156.166,2.621,2.621,0,0,0,.968.6l-.622-2.635a.031.031,0,0,1,0-.028.028.028,0,0,1,.02-.013.031.031,0,0,1,.026,0,.028.028,0,0,1,.013.022l.248,1.048.034-.034.042-.046c.031-.031.058-.062.085-.092s.056-.068.083-.1a.25.25,0,0,1,.025-.034l.013-.016a.118.118,0,0,0,.018-.02l0-.005a.064.064,0,0,0,.012-.018l.006-.024a.1.1,0,0,0,0-.014.087.087,0,0,1,0-.018.333.333,0,0,1,.016-.06.3.3,0,0,1,.016-.058l.019-.057c.021-.067.047-.143.078-.226l.024-.052.012-.025.012-.026a.173.173,0,0,0,.009-.023.24.24,0,0,1,.01-.026c0-.008,0-.016.008-.025s.006-.017.007-.024l.017-.058a.2.2,0,0,0,.006-.042l.016-.112.006-.029L60.83,46l0,0a.051.051,0,0,0,0-.009.072.072,0,0,1,.006-.018.049.049,0,0,0,0-.009.073.073,0,0,1,.005-.018l-.007,0,0-.025.014-.027a.145.145,0,0,0,.018-.03l.01-.019a.039.039,0,0,1,0-.007V45.8a.115.115,0,0,0-.019-.038.073.073,0,0,0-.028-.025.018.018,0,0,0-.019,0l-.027.019a.112.112,0,0,0-.025.017l-.051.047-.047.047-.017.025a.068.068,0,0,0-.009.012.1.1,0,0,1-.011.015l-.005.008a.058.058,0,0,0-.008.014l-.023.047-.013.049a.055.055,0,0,0,0,.01.143.143,0,0,1,0,.016s0,.008,0,.013a.085.085,0,0,0,0,.015v0l0,0a.077.077,0,0,0,0,.022v.021l.009,0a.169.169,0,0,0,.065.014l.01,0,.017,0c.026,0,.027.021.027.023a.024.024,0,0,1-.018.027.117.117,0,0,1-.036,0,.235.235,0,0,1-.095-.022h0l0,0-.008.011a.153.153,0,0,0-.015.027.283.283,0,0,0-.016.039l0,.009,0,0a.045.045,0,0,1,0,.013c.008.008.02.019.034.03a.447.447,0,0,1,.086.094l0,0v.006c0,.026-.021.027-.023.027a.024.024,0,0,1-.026-.016.413.413,0,0,0-.062-.072l-.027-.023-.013-.011,0,0-.005.006-.005.006-.01.011.018.016a.337.337,0,0,1,.066.083l0,0v0c0,.026-.021.027-.023.027a.024.024,0,0,1-.026-.017.289.289,0,0,0-.069-.08l-.015.017a.11.11,0,0,1-.015.017l0,0a1.248,1.248,0,0,1,.111.225v.007c0,.026-.021.027-.023.027a.024.024,0,0,1-.027-.018,1.247,1.247,0,0,0-.105-.213l0-.007h0l-.016-.016h0a.129.129,0,0,1-.037-.009l0,0-.041.006h0c-.029,0-.03-.021-.03-.023,0-.027.021-.027.023-.027l.032-.005.026-.4.023-.4a.278.278,0,0,0-.1-.017.351.351,0,0,0-.062.006l-.015,0a.03.03,0,0,1-.018-.005l-.005.028-.036.208,0,0a.039.039,0,0,1-.029.014A.032.032,0,0,1,60,45.8l0-.077v-.173a.213.213,0,0,0-.113-.03.232.232,0,0,0-.073.013l-.013,0a.026.026,0,0,1-.023-.011,1.186,1.186,0,0,1-.012.169.571.571,0,0,1-.019.121.046.046,0,0,1,0,.014s0,.021-.027.021c0,0-.023,0-.023-.027v-.008l.006-.006s0-.005,0-.01a.071.071,0,0,0,0-.011c0-.023.008-.05.012-.077s.008-.059.01-.087h-.012l0,0a.121.121,0,0,0-.064-.017.149.149,0,0,0-.084.026.022.022,0,0,1-.035,0,.022.022,0,0,1,0-.035.209.209,0,0,1,.119-.037.2.2,0,0,1,.052.007l.008-.025a.279.279,0,0,0-.138.018v0l-.013.008a.023.023,0,0,1-.02,0H59.52l-.008-.013a.025.025,0,0,1,.007-.028.2.2,0,0,1,.142-.037h.053l.069-.218.006,0,.03-.1h0v0a.3.3,0,0,0-.058-.006.316.316,0,0,0-.124.025l0,0h-.012a.78.78,0,0,1-.113.213v.025a1.009,1.009,0,0,1-.031.2.185.185,0,0,1,0,.029.058.058,0,0,0,0,.008v.082c0,.1-.008.264-.008.266v.011l-.01.01a.072.072,0,0,1-.021.015l-.009.007-.036.024a.3.3,0,0,1-.15.05h0a.028.028,0,0,1-.027-.027V46.1l.006-.006a.032.032,0,0,1,.022-.01h0a.327.327,0,0,0,.16-.063.105.105,0,0,0,.019-.012v-.02a.31.31,0,0,0,0-.061c0-.05,0-.115,0-.163a.3.3,0,0,0-.058,0,.385.385,0,0,0-.1.013l-.012,0a.024.024,0,0,1-.027-.023.026.026,0,0,1,.011-.023.024.024,0,0,1-.026-.023.024.024,0,0,1,.017-.026.378.378,0,0,1,.159-.036h.032c0-.006,0-.013,0-.02s.008-.039.012-.062a.592.592,0,0,0,.019-.137v-.008a.375.375,0,0,1-.143-.032.026.026,0,0,1,.01-.05h.012l.008.006.028.011a.3.3,0,0,0,.091.015h0a.606.606,0,0,0,.134-.358v-.022a.02.02,0,0,1-.005-.007l0,0a.048.048,0,0,1-.015-.011l0,0-.015,0a.061.061,0,0,0-.017.011.484.484,0,0,0-.046.043.472.472,0,0,0-.041.049,1.058,1.058,0,0,0-.073.107l-.035.058c-.006.009-.01.019-.015.028s-.01.02-.016.03l0,0a.055.055,0,0,0-.009.015l0,.007a.109.109,0,0,0-.015.029l-.012.032-.012.032-.038.123L59.2,45.6c0,.009,0,.02-.008.032s-.006.02-.007.03a.414.414,0,0,0-.015.066l-.006.033-.006.033a.02.02,0,0,1,0,.011l.023.523c0,.029,0,.059,0,.09s0,.06,0,.089v.585a.142.142,0,0,0,0,.038.209.209,0,0,0,.01.037.247.247,0,0,1,.013.051v.012a.091.091,0,0,1-.01.02l0,.006-.086.146-.072.112a2.592,2.592,0,0,0,.341.558l.4-1.777,0,0a.039.039,0,0,1,.029-.013h.008l.006.006a.039.039,0,0,1,.013.029v0Zm2.057.294,0,.028a.045.045,0,0,0,.009.018.363.363,0,0,1-.014-.046m-.026-.139c.009.049.018.093.024.127a.07.07,0,0,1,0-.024,7.151,7.151,0,0,1,.4-1.168c.019-.035.2-.414.342-.719.089-.189.166-.353.182-.383s.038-.092.065-.155c.089-.2.223-.5.175-.648a.153.153,0,0,0-.072-.081.06.06,0,0,1-.029-.027l-.006-.013c-.01-.021-.031-.065-.046-.089v0l.017.034-.017-.017v.012l-.012-.025,0,0-.007.02V45.1l0,0v.027l-.018-.045,0,0a.088.088,0,0,1,0,.013.105.105,0,0,1,.007.022l.015.034,0,.009a.033.033,0,0,0,0,.007.039.039,0,0,1-.009.018h0l0,0v.012h-.013a.04.04,0,0,1,.006.019.031.031,0,0,1,0,.014v.016a.326.326,0,0,1,.121.247,3.253,3.253,0,0,1-.271.714c-.019.033-.08.165-.126.261s-.055.117-.058.122a3.458,3.458,0,0,0-.166.374l-.033.073a6.856,6.856,0,0,0-.453,1.232Zm-.031-.162.013.069a7.145,7.145,0,0,1,.439-1.172l.033-.072a3.773,3.773,0,0,1,.17-.382l.054-.115c.048-.1.108-.23.127-.264a3.364,3.364,0,0,0,.266-.7.282.282,0,0,0-.1-.209,2.8,2.8,0,0,1-.177.308l-.008.015v0l-.021.031h.014l-.021.011-.014.029v-.01a1.258,1.258,0,0,1-.19.207.751.751,0,0,1-.161.107v.007l0-.006a.652.652,0,0,1-.217.06,2.058,2.058,0,0,1-.216.008h-.012a1.021,1.021,0,0,1-.155-.012.5.5,0,0,1-.187-.077l-.024-.021v.084L61,45.968a.916.916,0,0,0-.076-.085l-.012-.013c0,.01-.009.02-.014.031a.19.19,0,0,0-.011.026v0a1.7,1.7,0,0,1,.1.372c0,.012.035.172.07.343.042.2.088.423.11.535.016.07.031.136.044.188.03.1.07.209.1.3l.03.084a.9.9,0,0,1,.051.172l0,.01c.013.061.026.135.033.187m-.377-.63a.826.826,0,0,0,.05.135c.006.013.013.028.022.048l.018.041c.033.076.084.2.129.309a2.522,2.522,0,0,0-.143-.349L61.1,47.62c-.016-.039-.034-.083-.053-.129M58.812,46.22V46.5a2.43,2.43,0,0,0,.19.954l.1-.166.035-.062.006-.012-.007-.016c-.008-.018-.016-.035-.024-.056a.213.213,0,0,1-.009-.054V46.95l0-.09,0-.179,0-.09v-.039a.175.175,0,0,1,0-.046c0-.057,0-.117-.008-.178l-.016-.359,0-.111-.045.052c-.022.024-.041.05-.06.076l-.025.032-.045.061c-.035.047-.068.092-.1.139m1.443,1.11h0m-1.108-.469h0l0,.09v.135a.169.169,0,0,0,.007.04.19.19,0,0,1,0-.04Zm1.566-.319.008.012a1.829,1.829,0,0,1,.209.5,2.1,2.1,0,0,0-.213-.524l0,.01m2.842.031a2.746,2.746,0,0,1,0,.475,1.109,1.109,0,0,0,0-.475m-3.327-.141h0m.117-.012,0,0,.011-.012a.082.082,0,0,0,.011-.013l.024-.028h0l.017-.019h0l.006-.007.013-.015a.066.066,0,0,1,.017-.017l.013-.013,0-.007a.055.055,0,0,1,.008-.027l0,0a.245.245,0,0,1,.016-.039.166.166,0,0,1,.021-.037l0,0,0,0,0-.006,0,0v0l.012-.012v-.027a.1.1,0,0,1,0-.035.142.142,0,0,1,0-.018.055.055,0,0,0,0-.009v-.006a.1.1,0,0,0,0-.013.085.085,0,0,1,0-.019l.013-.049.023-.047a.082.082,0,0,1,.011-.021l0-.007,0-.005.007-.01a.086.086,0,0,1,.013-.017l.017-.025.072-.073.028-.024a.134.134,0,0,1,.031-.022l.005,0-.024.014a.1.1,0,0,1-.015.011l-.01.007-.028.024a.178.178,0,0,1-.029.025h0l-.02.02-.022.026-.018.026a.068.068,0,0,0-.009.012.086.086,0,0,1-.013.017.059.059,0,0,0-.008.013l-.009.015-.029.059-.007.033a.1.1,0,0,0,0,.016.129.129,0,0,1,0,.02.091.091,0,0,0,0,.029.125.125,0,0,1,0,.021.089.089,0,0,0,0,.014v.035l-.01.01a.033.033,0,0,1-.007.009l0,.006,0,.008a.154.154,0,0,0-.012.023l-.007.016a.187.187,0,0,1-.007.018l-.007.018,0,.01,0,.009,0,.008V46.3l-.034.035-.015.017-.012.014Zm-.029-.037h0l0,0,.014-.014.026-.03.01-.012.018-.02.023-.023v-.009l0-.006,0-.007a.079.079,0,0,1,0-.012.183.183,0,0,1,.007-.019l.007-.018.008-.017a.179.179,0,0,1,.014-.027l.006-.01,0-.008.005-.011h0v-.019a.129.129,0,0,1,0-.021.09.09,0,0,0,0-.014.125.125,0,0,1,0-.041.1.1,0,0,0,0-.015.133.133,0,0,1,0-.02l.007-.033h0c0-.014-.007-.07-.042-.261a1.277,1.277,0,0,1-.02-.253,2.572,2.572,0,0,1,.039-.44l.009-.046-.038.04a.9.9,0,0,1-.019.093v0a.19.19,0,0,0-.012.038v.006a.076.076,0,0,1-.01.033l0,.005a.062.062,0,0,1-.008.016V45.3a.769.769,0,0,1-.008.1.058.058,0,0,1,0,.014.039.039,0,0,0,0,.007.066.066,0,0,1,0,.016.039.039,0,0,0,0,.007.211.211,0,0,1-.008.051l0,.022-.008.026a.052.052,0,0,0,0,.01.08.08,0,0,1,0,.012.048.048,0,0,1-.007.019h0l-.023.408-.026.388h.011ZM61,45.827l.035.043a.335.335,0,0,0,.051.051.467.467,0,0,0,.171.07.979.979,0,0,0,.148.011h.012A2.033,2.033,0,0,0,61.629,46a.616.616,0,0,0,.2-.055l-.018-.031h0a.032.032,0,0,1-.014,0v.018l-.009-.014h-.008a.032.032,0,0,1-.014,0v.036l-.014-.028h0v0h-.025v.011h-.011l-.02.02v-.016h-.008v0h-.027v0h-.047v0h-.031v0h-.088v0h-.114l0,0h-.019v0h-.023v0h-.01l-.018.036v-.039h-.005l0,0a.031.031,0,0,1-.014,0h-.014l0,.018-.043-.043-.01-.006h0l-.008,0-.017-.006a.2.2,0,0,1-.03-.013l-.007,0-.006-.014h-.01v.012l-.028-.014a.085.085,0,0,1-.024-.019l0-.005,0-.005-.011-.011v.061l-.035-.1H61.02v-.023l-.01-.01,0,0v.024l-.037-.074,0,0h0l-.01-.016,0,0-.007-.007v0l-.008-.012-.007-.012v.005l-.006-.012-.018.035v-.07l-.04-.079a.052.052,0,0,1-.01-.021l-.006-.013-.007-.015v0l0,0-.018-.035,0-.008v.018l-.005-.016-.014.028V45.42l-.012.023v-.007h0a.843.843,0,0,0,0,.258l0,.01-.011.011.014-.01a.055.055,0,0,1,.061,0,.107.107,0,0,1,.04.037.15.15,0,0,1,.026.051.069.069,0,0,1,0,.03v.009l.026.027L61,45.9Zm.839.065.007.04a.721.721,0,0,0,.142-.1,1.124,1.124,0,0,0,.134-.138l-.01.007,0,0-.014.013,0,0a.563.563,0,0,1-.05.035l-.011.007-.014.011L62,45.786h0L62,45.792a.072.072,0,0,1-.021.015l-.012.008-.008,0-.011.007-.011.007-.009.006a.116.116,0,0,1-.019.012l0,0-.011.006-.014.014,0-.005-.01.006-.024.022v-.005l-.006,0m-.321-.033.033.033,0,0,.008-.016.013.013a.2.2,0,0,1,.005-.021l.011-.032v-.018l0,.006,0-.011.012.034h0l.028.014a.042.042,0,0,1,.013.01V45.87l-.017-.068.047.046v-.023l.011.011a.065.065,0,0,1,0-.043l.017-.035,0,.008v-.114l.038.153a.044.044,0,0,0,.006.012h0l.02-.04-.035-.07.045.045.036.012a.15.15,0,0,1,.063.045l0,0,0,0-.006-.013a.158.158,0,0,1-.017-.058v-.083l.037.074.013.022.01.017a.059.059,0,0,1,0-.02l.017-.035.011.021,0,0,.018-.018v-.031l.028.014a.067.067,0,0,1,.019.015l.019-.013a.041.041,0,0,1-.008-.023v-.031l.025.012a.026.026,0,0,1,0-.008V45.6l.028.014.009.007L62.1,45.6h.033l-.022-.043.052.026.009.005a.041.041,0,0,1,0-.015v-.034l0,0-.026-.052.025.012a.04.04,0,0,1,0-.008v-.028l-.01-.03.022.011-.017-.051.047.032.013.01c0-.009,0-.016,0-.021v-.082l.016.031v-.019l.026.026a.185.185,0,0,1,0-.03v-.064l.019.029v-.027l.012.012V45.26l.022.022a.067.067,0,0,1-.007-.026v-.047l.023.023v-.039l.018.018,0,0,0,0-.033-.033h.051v-.043l.006.006-.023-.07.031.031v0l-.026-.079.041.041.016-.008a.1.1,0,0,1,0-.013.024.024,0,0,1,0-.01v-.047l0,0v-.1l-.02-.01s0,0,0,.006a.034.034,0,0,0,0,.007.042.042,0,0,1,0,.012v.019h-.012s0,.006,0,.008v.047l-.033-.033-.006-.006v.031l.008.008h-.039l.008.008-.014.014L62.3,45l.027.027H62.29l-.006.006a.032.032,0,0,1-.019.008v.005a.1.1,0,0,1,0,.031v.082l-.037-.074c0-.006-.006-.013-.009-.02v.015l.026.052-.052-.026h0v.034l0,.01,0,0v.043l-.043-.086-.037-.037a.231.231,0,0,1-.022-.03.147.147,0,0,1-.013-.027l-.008-.018c-.006-.016-.01-.028-.013-.038l0-.011a.1.1,0,0,1-.007-.016l-.008-.008a.164.164,0,0,0-.032-.029l0,.01a.065.065,0,0,0,0,.012l.014.028H62a.024.024,0,0,1-.013,0h0l0,0v0h-.019a.028.028,0,0,1-.026-.019.035.035,0,0,1-.005-.02.038.038,0,0,0,0-.007.091.091,0,0,1,0-.021.122.122,0,0,0,0-.019v0h0v.063a.1.1,0,0,0,0,.012L62,45l-.107-.054a.042.042,0,0,1-.022-.041v-.035a.312.312,0,0,0,0-.038h-.008a.927.927,0,0,0-.136-.017.057.057,0,0,1-.006.023l-.012.024-.019-.019a.055.055,0,0,1-.017-.029h-.036c-.048,0-.091,0-.117,0a.1.1,0,0,1-.006.025l-.006.016a.052.052,0,0,0,0,.012v0l0,0a.024.024,0,0,0,0,.011v.047l-.033-.033a.039.039,0,0,1-.009-.018l0-.007a.056.056,0,0,1,0-.043s0,0,0-.005H61.41l0,.006,0,.008a.072.072,0,0,1,.006.025.044.044,0,0,1-.01.033l-.033.033v-.044l0-.008a.081.081,0,0,1-.009-.018l0-.008a.108.108,0,0,1,0-.021h0a.2.2,0,0,1,0,.027.06.06,0,0,0,0,.019.1.1,0,0,0,.008.014l-.028.027-.006,0v.017L61.3,44.9a.072.072,0,0,1-.015-.021l0,0v0a.039.039,0,0,0,0-.007.066.066,0,0,1,0-.016v-.005l-.048.009c0,.006,0,.013,0,.019l0,.009c-.009.023-.017.039-.021.047L61.164,45v-.082a.148.148,0,0,1,.008-.05.418.418,0,0,0-.081.029.25.25,0,0,0-.059.032.424.424,0,0,1,.011.061.127.127,0,0,1,0,.058.2.2,0,0,1-.013.039l-.017.035-.017-.035a.1.1,0,0,1-.01-.044.165.165,0,0,0,0-.018.257.257,0,0,1,0-.029l0-.014,0,.006a.106.106,0,0,1-.009.017l0,.007,0,.005c0,.009.006.02.011.033a.146.146,0,0,1,.009.038.045.045,0,0,1,0,.023.027.027,0,0,0,0,0v.12l-.038-.114-.006-.018-.008-.021-.006.006v0l0,.015a.172.172,0,0,0-.01.05.119.119,0,0,0,.007.033.061.061,0,0,1,0,.046l-.037.074v-.082a.052.052,0,0,0,0-.012l0-.009,0-.009,0-.012-.038.057.029-.088a.078.078,0,0,1,0-.01.092.092,0,0,1-.022.02l-.021.014v0h0a.115.115,0,0,1,0,.037c0,.011-.007.022-.011.036a.03.03,0,0,1,0,.009l0,.006a.047.047,0,0,1,.02,0v-.014l.014.022.019.019h0v0l.024.024h-.024l0,.007a.074.074,0,0,1,.01.036.079.079,0,0,1-.01.038v0a.08.08,0,0,1,.011-.015l.033-.033v.047a.1.1,0,0,1,0,.026l.01-.01v.047s0,0,0,.006l.007,0,.052-.026-.016.032v.058a.08.08,0,0,0,0,.008l.012-.009.081-.054-.054.081h0l.006.022L61,45.568l.018.055a.1.1,0,0,1,0,.013l.033-.065v.105l0,.005.013-.013v.039l.006.011,0,0,.036.018a.05.05,0,0,1,.019.016v0l0-.01.005.005.024-.047v.07l.029.029a.113.113,0,0,1,.013.016l.009,0v-.027l.027.041h0l.03.02,0,0V45.8l.016.031.033.033,0,0,.006-.006.014.014h0l0,0,.017-.017.008-.016,0,0,.006-.019.01.029.029-.088v.058l.007.021.032-.1v.12a.143.143,0,0,0,0,.017l0-.011.021-.042,0,.011.03.03,0,0Zm-.961-.869c0,.015-.006.03-.009.047a2.511,2.511,0,0,0-.039.429,1.258,1.258,0,0,0,.019.241c.015.079.025.133.031.171l0,0,.007-.01a.086.086,0,0,1,.013-.017l.017-.025.016-.019a.833.833,0,0,1-.067-.351,1.49,1.49,0,0,1,.046-.358l-.007-.021c-.009-.028-.018-.056-.03-.085h0m3.475.8.025.02,0,0v-.023Zm-3.4-.566a1.513,1.513,0,0,0-.02.235.845.845,0,0,0,.051.3l.01-.009.028-.024a.083.083,0,0,1,.016-.012l.01-.007,0,0,.019-.011a.9.9,0,0,1,0-.252l-.007-.013a.135.135,0,0,0-.008-.015l-.032-.058a1.216,1.216,0,0,1-.068-.133m-.6.49v.04l.046-.253a.754.754,0,0,1,.016-.085l0-.016.019-.1.019-.083h0l-.022.095-.019.1c0,.018-.007.034-.01.05s-.006.034-.01.052l-.019.1-.015.1Zm3.791-.113a.688.688,0,0,1,.122.087.3.3,0,0,0,.051.042v-.157l-.014-.008c-.01-.006-.013-.016-.021-.041a1.015,1.015,0,0,0-.463-.559,1.023,1.023,0,0,1-.238-.21c-.026.028-.052.057-.06.067a.274.274,0,0,0,.1.249,2.157,2.157,0,0,1,.16.149l-.028.027a.592.592,0,0,0-.095-.07.485.485,0,0,1-.234-.258l-.017.013a.05.05,0,0,1,.028.039v.007a.379.379,0,0,0,.235.372,3.283,3.283,0,0,1,.5.216l.066.036h-.075l-.014,0m-4.441.107a.358.358,0,0,0-.1.014.523.523,0,0,1,.077-.006.439.439,0,0,1,.055,0s0-.008,0-.011h-.035m2.738-.064,0,.005h0l0,0m1.044-.267.07.032.036.01a2.339,2.339,0,0,1,.471.177c-.035-.02-.073-.041-.115-.063l-.16-.082.124.033a2.712,2.712,0,0,0-.253-.1l-.021-.008.013.006-.06.01a.24.24,0,0,1-.1-.018m-2.964.151a.4.4,0,0,1,.114.019v0l0-.006a.072.072,0,0,1,.005-.016l.007-.021,0-.02a.186.186,0,0,0,0-.023.225.225,0,0,1,0-.024.074.074,0,0,1,0-.014.038.038,0,0,0,0-.007.066.066,0,0,1,0-.016.039.039,0,0,0,0-.007.781.781,0,0,0,.008-.093v-.08l-.007,0a.3.3,0,0,0-.087-.011.439.439,0,0,0-.084.008l-.022.093-.023.118a.74.74,0,0,0-.015.083l-.006.03h0a.436.436,0,0,1,.085-.008m-.409,0h0Zm.089-.055a.281.281,0,0,1,.116.024v-.011a.153.153,0,0,1,0-.02.122.122,0,0,0,0-.017l0-.041a.138.138,0,0,1,0-.043l.007-.037a.11.11,0,0,0,0-.018.136.136,0,0,1,0-.023l.007-.037c0-.011,0-.025.008-.038l0-.008h0a.277.277,0,0,0-.171-.039.061.061,0,0,0,0,.01.13.13,0,0,1,0,.018c0,.021-.011.056-.019.092a1.677,1.677,0,0,1-.055.2.275.275,0,0,1,.09-.014m3.527-.962c-.005.014-.01.03-.015.045a.285.285,0,0,1-.048.105.015.015,0,0,0,0,.009c0,.029.043.114.186.223a1.107,1.107,0,0,1,.467.578v-.037a2.111,2.111,0,0,0-.281-.5.211.211,0,0,1-.034-.1.985.985,0,0,0-.234-.484.019.019,0,0,0-.011,0s-.007.007,0,.046a.7.7,0,0,1,.231.533l.007.069-.042-.056a.435.435,0,0,1-.04-.1c-.035-.105-.093-.277-.184-.33m-2.756.648a.835.835,0,0,0,.083.177l.032.058a.16.16,0,0,1,.01.018.139.139,0,0,0,.009.015l0,0V45.38l-.026-.078-.006-.013,0,.006v.018l0-.011,0,.008v-.019L60.7,45.2v0a.064.064,0,0,1,0-.018v0l0-.008v-.006a.024.024,0,0,1,0,0l-.01-.01a.037.037,0,0,1-.009-.015l-.006-.006v-.008a.055.055,0,0,0,0-.013l-.043-.043a.038.038,0,0,1-.008-.011l-.006-.006v-.024a.221.221,0,0,1-.015-.025l0,0h0c.009.025.018.05.025.074l.011.032,0,.006h0l.014.029a.051.051,0,0,1,.006.026m2.414-.094a.382.382,0,0,0,.2.287.456.456,0,0,1-.189-.372v0a.015.015,0,0,0,0-.009c-.005,0-.023.009-.041.025a.047.047,0,0,1,.017.006c.014.008.028.026.021.067m-.084.172a.808.808,0,0,0,.192.1.384.384,0,0,1-.148-.273v0c0-.017,0-.026,0-.028a.018.018,0,0,0-.013,0h0a.177.177,0,0,1-.059.113l-.01.005v0a.237.237,0,0,1,.011.026.279.279,0,0,0,.027.057m-.226-.012h.011a.779.779,0,0,1,.278.1.843.843,0,0,1-.087-.055l0,0a.27.27,0,0,1-.035-.069.235.235,0,0,0-.009-.022l0-.005,0-.011a.025.025,0,0,1,.015-.036l.013-.007a.144.144,0,0,0,.041-.08h0a.521.521,0,0,1-.259.105l-.017,0c-.026,0-.045-.006-.059-.01,0,.009,0,.018.005.028.028,0,.055.011.113.071m-2.666.018,0,.008Zm.675-.064,0,0,0-.005.016-.032,0-.009,0-.009h-.014Zm-.518-.017a.356.356,0,0,1,.107.015h0a.039.039,0,0,0,0-.008.081.081,0,0,1,0-.013l.005-.023.006-.026.012-.05L60.4,45l.013-.078a.033.033,0,0,0,0-.015.251.251,0,0,0-.01-.078.051.051,0,0,0-.026-.021.084.084,0,0,0-.038-.01H60.3l-.005,0,0,.005a.1.1,0,0,0-.008.014.509.509,0,0,0-.032.075l-.006.017a.7.7,0,0,0-.03.095,1,1,0,0,0-.027.1.454.454,0,0,1-.011.053.426.426,0,0,1,.07-.006m-.6-.165v.025a.535.535,0,0,1-.015.123.408.408,0,0,1,.19-.016v-.009c0-.021.006-.047.011-.074a.811.811,0,0,1,.032-.147.318.318,0,0,0,.014-.094v-.051l0,0,.006-.011a.034.034,0,0,0-.006-.009l-.012-.014-.008-.01a.1.1,0,0,0-.018-.016l-.007,0h-.012a.055.055,0,0,0-.019.006l0,0,0,0L59.8,44.7h0l0,0-.026.029a.118.118,0,0,1-.017.022.439.439,0,0,0-.058.106l-.011.03-.012.032a.294.294,0,0,0-.013.05l0,.009a.024.024,0,0,1,0,.014m1.069.071.023.046a.047.047,0,0,1,0,.03l.017-.017h-.012l.008-.016-.025-.025a.1.1,0,0,1-.015-.018Zm-.8.047a.293.293,0,0,1,.126.027l.007-.057c0-.011,0-.02,0-.029s0-.021,0-.031l.06-.3a.057.057,0,0,0,.006-.019V44.7a.089.089,0,0,1,0-.011.2.2,0,0,0-.017-.042.107.107,0,0,0-.03-.03l-.005,0-.006,0-.006,0h-.025a.045.045,0,0,0-.033.014.155.155,0,0,0-.028.038c-.008.015-.015.03-.023.049l-.01.024v.051a.337.337,0,0,1-.017.1,1.019,1.019,0,0,0-.03.156c0,.029-.008.056-.012.075,0,0,0,0,0,0l.035,0m2.78-.019.011,0,.016,0a.556.556,0,0,0,.251-.111l.016-.011.006,0a.219.219,0,0,1,.032-.029l-.01-.005a.781.781,0,0,1-.322.155m-.077-.031h0a.641.641,0,0,0,.374-.156.77.77,0,0,0,.079-.074l-.083.062a.926.926,0,0,1-.374.165v0m-1.915,0,0,0v0l0,0v0m2.43-.189,0,.009a.324.324,0,0,0,.091.162.308.308,0,0,1-.064-.2l-.029.03m-2.422.017a.5.5,0,0,0,.062.067.279.279,0,0,0,.125.07.3.3,0,0,1,.027-.059.188.188,0,0,1,.007-.129c.023-.049.092-.166.119-.209a.2.2,0,0,1,.027-.1.22.22,0,0,1,.147-.094h0a.031.031,0,0,1,.007.062.028.028,0,0,1-.012,0l-.03.011a.155.155,0,0,0-.06.054.165.165,0,0,0-.017.075.108.108,0,0,0,.022.076l0,0a.034.034,0,0,1,0-.014c0-.033.051-.051.1-.051s.1.019.1.051a.054.054,0,0,1,0,.007.105.105,0,0,1,.026.031.066.066,0,0,0,.03.026.113.113,0,0,0,.042.01h.016a.056.056,0,0,0,.019-.006.1.1,0,0,0,.022-.016.35.35,0,0,0,.053-.053l.012-.012a.125.125,0,0,1,.064-.07c.047-.029.1-.031.115-.006a.042.042,0,0,1,0,.025.107.107,0,0,0,.018-.023.134.134,0,0,0,.017-.068.166.166,0,0,0-.017-.077.12.12,0,0,0-.037-.044.176.176,0,0,0-.055-.028H61.66l0,0a.039.039,0,0,1-.013-.029v-.008l.006-.006a.039.039,0,0,1,.029-.013.139.139,0,0,1,.054.023.224.224,0,0,1,.081.085.241.241,0,0,1,.015.039h0a.488.488,0,0,1,.229.234l0,.008c.044.1.068.157.05.19l0,0,.011.011a.067.067,0,0,0,.024.019.021.021,0,0,0,.013,0,.045.045,0,0,0,.02-.008h0l-.016-.031.025.025a.158.158,0,0,0,.028-.027l.007-.008a.8.8,0,0,0,.063-.082.249.249,0,0,0-.049-.153.329.329,0,0,1-.052-.184v-.1l.038.1a1.7,1.7,0,0,0,.073.161.339.339,0,0,1,.037.094l.009-.02,0-.01a1.637,1.637,0,0,0,.088-.554,3.111,3.111,0,0,0-.015-.313v-.024c-.046-.07-.221-.219-.875-.22a.38.38,0,0,1,.022.129.392.392,0,0,1-.02.131.033.033,0,0,1-.034.021h0l0,0a.037.037,0,0,1-.016-.014.028.028,0,0,1,0-.028.313.313,0,0,0,.017-.108.352.352,0,0,0-.025-.128l-.014,0h0a.732.732,0,0,1,.017.177v.078a.031.031,0,0,1-.062,0v-.078A.644.644,0,0,0,61.4,43.6l-.068.012a.158.158,0,0,1,.007.048.118.118,0,0,1-.027.077.03.03,0,0,1-.021.015.028.028,0,0,1-.022-.006.03.03,0,0,1-.014-.021.028.028,0,0,1,.008-.025.065.065,0,0,0,.014-.041.1.1,0,0,0-.007-.036,1.661,1.661,0,0,0-.771.373V44s0,.023.008.061c0,.013,0,.027,0,.042,0,.033.008.07.011.11l.008.074.009.091a.391.391,0,0,1,.16-.139l.011.037a.492.492,0,0,0-.161.208c0,.008,0,.015,0,.021a.212.212,0,0,1,0,.025.143.143,0,0,0,0,.025.092.092,0,0,1,0,.014.2.2,0,0,0,.014.052.657.657,0,0,0,.042.1.877.877,0,0,0,.1.159v0Zm1.893.081a.1.1,0,0,0,0,.054.777.777,0,0,0,.245-.086,1.529,1.529,0,0,1-.249.033M62.531,45l.006.011,0,0c0-.014-.005-.026-.008-.038ZM60.76,45l.012.006,0,0L60.762,45Zm-.022-.018.01.01a.016.016,0,0,0-.01-.01m0,0h.007l-.012-.012,0,.008Zm-.036-.032.008.008v-.011a.7.7,0,0,1-.074-.1l0,.008v0l0,0,.007.011.007.017a.068.068,0,0,1,.013.018l0,0,.018.018a.041.041,0,0,1,.013.021m.3-.159c-.014.025-.026.047-.033.062a.149.149,0,0,0-.008.094.183.183,0,0,1,.024-.025.163.163,0,0,1,.007-.089c0-.016.007-.031.009-.043m1.426.1.007.022V44.9l0,0v-.011Zm.867-.208,0,.036c0,.026.1.121.193.185-.125-.1-.174-.187-.177-.231a.068.068,0,0,1,0-.009l-.014.02m-.856.193.027.027,0,0a.086.086,0,0,1,0-.012v-.047l0,0-.005-.016,0-.011-.019-.01,0,.008h0l0,0h-.005l-.012.014a.024.024,0,0,1-.016.007.024.024,0,0,1,0,.008l.024.048Zm-.367.014.007.007a.2.2,0,0,0-.022-.085c0,.014,0,.026,0,.035l0,.034.008.009m.528,0a.729.729,0,0,0,.148-.006.446.446,0,0,0,.4-.412l.009-.037a1.509,1.509,0,0,0,.038-.411c0-.061-.066-.114-.109-.146a.93.93,0,0,1-.019.215.805.805,0,0,1-.194.51,1.542,1.542,0,0,1-.261.252h0v.006a.127.127,0,0,0-.006.028m-1.534-.161a.146.146,0,0,0-.024.059.4.4,0,0,1-.01.05c0,.011-.007.027-.009.041a.747.747,0,0,1,.293-.091l-.007-.013a.049.049,0,0,0-.017-.019l-.031.005a.1.1,0,0,1-.028.024.1.1,0,0,1-.054.015.111.111,0,0,1-.089-.038.117.117,0,0,1-.023-.034m2,.029a.407.407,0,0,1-.153.119l.061-.02.113-.041a1.027,1.027,0,0,0,.182-.286.967.967,0,0,1-.17.242l-.017.018-.013-.022a.018.018,0,0,1,0-.011m-1.114.049.068.019a.494.494,0,0,0-.181-.286s0,.006,0,.009a.212.212,0,0,1-.022.1.177.177,0,0,1-.058.059.182.182,0,0,1-.111.034h-.012l-.013,0-.018,0-.014.014-.013.014a1.711,1.711,0,0,1,.239.011.58.58,0,0,1,.086.015h.008l0-.008.031.016h0Zm.629.013,0,0a1.5,1.5,0,0,0,.254-.246.714.714,0,0,0,.17-.369,1.18,1.18,0,0,1-.044.143,1.5,1.5,0,0,1-.382.467m-.121-.043.014.009a.04.04,0,0,1,0-.016v-.019h0l-.016-.032c0,.01,0,.018,0,.024Zm.1-.014.009.016a1.465,1.465,0,0,0,.357-.439h0a1.664,1.664,0,0,0,.092-.543.141.141,0,0,0-.049-.056.746.746,0,0,1,.014.139.588.588,0,0,1-.109.35.675.675,0,0,0-.068.1c-.006.015-.01.026-.014.037l-.009.024c0,.006-.006.014-.01.024l-.01.023a.283.283,0,0,1-.09.1.13.13,0,0,1-.09.026c-.007.066-.014.133-.024.2m-.083-.011h.02a.071.071,0,0,1,0-.009v-.019h.011a.051.051,0,0,1,0-.019.212.212,0,0,1,0-.047v-.026a.029.029,0,0,1-.023,0v.049a.035.035,0,0,1,0,.015v.027h0Zm.868-.325a1.021,1.021,0,0,1-.151.316.8.8,0,0,0,.129-.193.674.674,0,0,0,.022-.123m-.966.292,0,0-.006.014h0l0,0,.005-.012h0m-1.2-.017a.109.109,0,0,0,.042.011l.04,0-.007.007a.153.153,0,0,0,.032-.006l.005,0,0,0L61.3,44.7a.106.106,0,0,0-.061-.012.122.122,0,0,0-.059.012m1.243-.115a.985.985,0,0,1-.038.12v0l.01-.021,0-.008h0v0h0l.007-.013a.042.042,0,0,1,0-.006v-.012h.009l0-.006a.21.21,0,0,1,0-.021V44.61a.066.066,0,0,1,0-.016v0M61.6,44.7h0a.08.08,0,0,0,.025,0l.009,0,.033-.022a.1.1,0,0,0,.039-.039.1.1,0,0,0-.061.018c-.032.018-.045.039-.045.046Zm-1.266-.156.011.033a.273.273,0,0,0,.029.066.064.064,0,0,0,.038.03l.014,0h0l.012-.01.005,0,0-.011-.005-.024c0-.013,0-.026-.007-.04-.025.005-.061-.018-.1-.06v.01a.081.081,0,0,1,0,.016m2.94-.433a2.121,2.121,0,0,1-.113.526.778.778,0,0,0,.152-.482Zm-.745.5v0h0Zm0-.015h.008c0-.007,0-.014,0-.021s0-.007,0-.013h-.007a.191.191,0,0,0-.008-.028l0,0,0-.005,0,.015a.15.15,0,0,0,0,.024Zm-2.107-.053h0v0Zm2.022-.019h.007l0-.011,0,.011M60.413,44v.01l0,.013c0,.025.012.076.017.133.011.078.019.162.023.218,0,.027.01.07.019.119h0l0,.017c0-.007,0-.015,0-.023,0-.032-.007-.067-.011-.1s-.005-.062-.009-.092c-.015-.131-.027-.262-.027-.267l0-.015L60.413,44m-.108.372c.059.106.086.128.1.129l.012,0c0-.023-.009-.047-.012-.071a.138.138,0,0,1-.092-.046l-.007-.008m2.272.127a.076.076,0,0,0,.056-.015.3.3,0,0,0,.068-.076.1.1,0,0,0,.016-.033l0-.01a.053.053,0,0,0,.006-.014.133.133,0,0,1,.009-.022.707.707,0,0,1,.088-.136.521.521,0,0,0,.1-.315.612.612,0,0,0,0-.065.615.615,0,0,1-.122.4l0,0a.024.024,0,0,1-.032,0c-.017-.014-.007-.034.024-.1a.522.522,0,0,0,.031-.072v0a.654.654,0,0,0,.019-.063h0c-.012,0-.016-.015-.021-.028a.112.112,0,0,0-.046-.063c-.015-.008-.015-.027-.015-.067s0-.1-.019-.106c0,0,0,0,0,0a.1.1,0,0,0,0,.079.075.075,0,0,1-.029.093.048.048,0,0,1-.043,0c0,.013,0,.026,0,.036h.016a.076.076,0,0,1,.063.032.242.242,0,0,1,.022.176.063.063,0,0,1-.033.041.049.049,0,0,0-.025.031.061.061,0,0,1-.068.044.052.052,0,0,1-.043-.051v0c.006-.026.035-.019.046-.017h.006a.114.114,0,0,1,.052-.076.062.062,0,0,0,0-.047s-.011-.018-.038-.012h0a.019.019,0,0,0-.016.006.049.049,0,0,1-.022.013l-.007,0a.067.067,0,0,1-.047.01v.012c0,.02,0,.04,0,.06.007.13.015.272.019.353m-.094-.145.015.015a.06.06,0,0,1,.01.016l.008.014c0-.008,0-.016,0-.024s0,0,0,0a.178.178,0,0,1-.028-.05l0,.031m-2.13-.025a.076.076,0,0,0,.014.015.063.063,0,0,0,.029.012c0-.008,0-.018,0-.028a.055.055,0,0,1-.036,0l0,0m-.188-.4a.985.985,0,0,0,.071.311l.017.033.02.04a.579.579,0,0,1-.017-.247v0a.355.355,0,0,0-.043-.033.154.154,0,0,1-.035-.029s-.011-.01-.014-.073m2.323.36.025.012h0c0-.065-.006-.135-.01-.2s-.006-.122-.008-.169c0-.028,0-.054-.005-.072s0-.029,0-.035,0-.016-.007-.024l-.009.021v.023c.011.11.015.21.019.3v.017c0,.047,0,.09,0,.131m-2.113-.017h0v0l0,0m-.021-.019h0l.014-.007a.076.076,0,0,1,0-.038c0-.009,0-.016.005-.022a.056.056,0,0,0,0-.01v0a.111.111,0,0,0-.021.08m3.022-.021c0,.006,0,.011,0,.017h0a.053.053,0,0,0,0-.015m-3.051-.119a.657.657,0,0,0,0,.08.15.15,0,0,1,.034-.057.091.091,0,0,1-.031-.023m2.4.018-.011.01a.027.027,0,0,0,.011-.01m-2.544-.3a.086.086,0,0,1,.025,0c.06.018.1.108.134.179.008.018.018.039.026.055l0-.008c0-.032-.008-.047-.008-.047v-.033l-.007-.02a.4.4,0,0,0-.126-.17h0l-.013,0h-.013a.053.053,0,0,0-.02,0l-.008,0-.012.012a.088.088,0,0,0-.026.048.07.07,0,0,1,.015-.014.062.062,0,0,1,.037-.011m.1.2a.073.073,0,0,1,.019.022l0-.025,0-.005a.05.05,0,0,1-.021.008M62.664,44a.066.066,0,0,1,.059.032l0,0a.125.125,0,0,0-.019-.057.037.037,0,0,0-.032-.016.077.077,0,0,0-.022,0l-.015.008a.038.038,0,0,0-.015.034.061.061,0,0,1,.023,0l.019,0m-.069.014h0m-.034-.024a.2.2,0,0,0,.021.018.083.083,0,0,1,.021-.058.183.183,0,0,1,0-.116.4.4,0,0,1,.015-.046v-.025l.006.011a.243.243,0,0,1,.187-.161c.016,0,.047,0,.073.048l0,.01-.005-.017v-.006l0-.01c-.021-.02-.041-.037-.041-.037l-.012-.01a.133.133,0,0,0-.037,0,.2.2,0,0,0-.106.04.575.575,0,0,0-.135.171v0a.075.075,0,0,1,0,.013.367.367,0,0,1,0,.057c0,.017,0,.036,0,.058s0,.019,0,.029,0,.022,0,.034m-2.18-.042.017,0a.109.109,0,0,1,.061.038h0v-.014l0,0a.566.566,0,0,1,.171-.146.8.8,0,0,0-.116.059.19.19,0,0,1-.14.039l-.006,0h0c0,.008.006.016.009.024Zm-.147,0a.055.055,0,0,0,.019.033.357.357,0,0,0-.019-.033m.154-.062a.153.153,0,0,0,.106-.032,3.077,3.077,0,0,1,.893-.3l.037,0h0a2.159,2.159,0,0,1,1.047.165H62.5l.014.013h0a.452.452,0,0,1,.131-.151.252.252,0,0,1,.143-.05.211.211,0,0,1,.07.012c0-.011,0-.015-.006-.019l-.015-.011a1.446,1.446,0,0,0-.844-.235v-.039a1.332,1.332,0,0,1,.865.179.123.123,0,0,0-.019-.055l-.006-.006a1.447,1.447,0,0,0-1.043-.394v-.039a1.528,1.528,0,0,1,1.008.287,1.426,1.426,0,0,0-.337-.65,1.335,1.335,0,0,0-1.05-.423,1.568,1.568,0,0,0-1.024.484.7.7,0,0,0-.186.542.789.789,0,0,1,.761-.419l0,.039a.787.787,0,0,0-.731.562l.025.1a1.053,1.053,0,0,1,1.141-.486l0,.039a1.364,1.364,0,0,0-.843.222.579.579,0,0,0-.227.459.19.19,0,0,1,.008.063.18.18,0,0,0,.061.145m2.412-.2a.072.072,0,0,1,.015.055c0,.036-.007.09.007.1a.115.115,0,0,1,.033.037.243.243,0,0,0-.019-.176.051.051,0,0,0-.036-.016m-.153.131.006.011c.01.018.022.028.029.025a.037.037,0,0,0,.01-.043.148.148,0,0,1-.01-.066.35.35,0,0,0-.035.073m-1.126.019h0m.879-.108a.265.265,0,0,1,.047.05v0l.012-.026-.06-.022m-1.107-.011h0" transform="translate(-58.824 -42.03)" fill="#b2b2b2"/>
      <path id="Path_875" data-name="Path 875" d="M81.032,162.166s-.008,0-.008,0-.008.012-.016.019a.283.283,0,0,1-.051.035.085.085,0,0,0-.019.016s0,0-.008,0l0,0v0a.066.066,0,0,1-.008.019.085.085,0,0,1-.012.019.2.2,0,0,0-.023.027.142.142,0,0,1-.016.019.005.005,0,0,0,0,.008h.008a.141.141,0,0,0,.016-.019.149.149,0,0,1,.019-.023.081.081,0,0,0,.016-.023.055.055,0,0,0,.008-.023,0,0,0,0,1,0,0c.008-.008.031-.019.051-.035a.169.169,0,0,0,.027-.023.063.063,0,0,0,.016-.027c.008,0,0,0,0,0" transform="translate(-80.117 -157.838)" fill="#b2b2b2"/>
      <path id="Path_876" data-name="Path 876" d="M79.533,161.166a.07.07,0,0,0-.027.019.276.276,0,0,1-.1.078c-.078.027-.093.07-.093.074s0,.008,0,.008.008,0,.008,0,.016-.039.09-.066a.229.229,0,0,0,.082-.055c.008-.008.016-.019.023-.027a.082.082,0,0,1,.023-.016s0,0,0-.008a.014.014,0,0,0-.012,0" transform="translate(-78.622 -156.877)" fill="#b2b2b2"/>
      <path id="Path_877" data-name="Path 877" d="M78.5,161.338a.176.176,0,0,1,.031-.023.493.493,0,0,0,.047-.039.061.061,0,0,1,.031-.023.345.345,0,0,1,.039-.023c.016-.008.023-.008.031-.012a.029.029,0,0,0,.016,0,.021.021,0,0,0,.016-.012s0,0,0-.008-.008,0-.008,0a.055.055,0,0,1-.012.008s-.012,0-.019,0a.078.078,0,0,0-.031.012.345.345,0,0,0-.039.023.1.1,0,0,0-.031.027.213.213,0,0,1-.043.039c-.008.008-.016.012-.019.016l-.008.008s0,0,0,.008h0" transform="translate(-77.838 -156.901)" fill="#b2b2b2"/>
      <path id="Path_878" data-name="Path 878" d="M77.915,160.336a.081.081,0,0,1,.023-.016.055.055,0,0,1,.023-.008h0a.113.113,0,0,0,.043-.012.258.258,0,0,1,.047-.023s0,0,0-.008,0,0-.008,0a.209.209,0,0,0-.051.023.063.063,0,0,1-.035.012h-.008a.052.052,0,0,0-.031.012.308.308,0,0,0-.058.051.006.006,0,0,0,.008.008l0,0c.008,0,.019-.019.035-.031" transform="translate(-77.234 -156.012)" fill="#b2b2b2"/>
      <path id="Path_879" data-name="Path 879" d="M76.639,160.013a.323.323,0,0,0,.047,0,.138.138,0,0,0,.039-.008l.031-.012a.058.058,0,0,1,.039-.012.189.189,0,0,1,.047,0h.027a0,0,0,1,0,0-.008h-.027a.189.189,0,0,0-.047,0,.139.139,0,0,0-.043.016.19.19,0,0,1-.027.012.306.306,0,0,1-.055.008h-.027s-.008,0,0,.008h0" transform="translate(-76.051 -155.723)" fill="#b2b2b2"/>
      <path id="Path_880" data-name="Path 880" d="M76.158,158.485a.12.12,0,0,0,.031.008H76.2a.114.114,0,0,0,.035-.008.144.144,0,0,1,.035-.008h0a.072.072,0,0,1,.027.008.092.092,0,0,0,.031.008.006.006,0,0,0,0-.012.1.1,0,0,1-.027-.008.092.092,0,0,0-.031-.008h0a.114.114,0,0,0-.035.008l-.031.008h0l-.031-.008a.139.139,0,0,0-.039-.008.023.023,0,0,0-.016,0s0,0,0,.008,0,0,.008,0h.008s.019,0,.031,0" transform="translate(-75.546 -154.282)" fill="#b2b2b2"/>
      <path id="Path_881" data-name="Path 881" d="M75.339,156.474h0a.023.023,0,0,1,.016,0,.229.229,0,0,0,.031.016.123.123,0,0,0,.035.012h.008a.188.188,0,0,0,.027-.012s0,0,.008,0h.008a.042.042,0,0,1,.019,0l.039.019a.02.02,0,0,0,.016.008.014.014,0,0,0,.012,0h0s0,0,0-.008,0,0-.008,0a.012.012,0,0,1-.008,0,.343.343,0,0,0-.055-.027.049.049,0,0,0-.023,0,.014.014,0,0,0-.012,0s-.008,0-.016.008-.008,0-.016.008h-.008a.082.082,0,0,1-.039-.016.085.085,0,0,1-.019-.012.035.035,0,0,0-.019,0h0s0,0,0,.008,0,0,0,0" transform="translate(-74.802 -152.36)" fill="#b2b2b2"/>
      <path id="Path_882" data-name="Path 882" d="M77.139,154.855s.043.019.074.031a.085.085,0,0,1,.031.019l.012.012,0,0a.014.014,0,0,0,.008,0h0s0,0,0-.008,0,0-.008,0a0,0,0,0,1,0,0,.135.135,0,0,0-.043-.031.237.237,0,0,1-.047-.019c-.008,0-.012-.008-.016-.008a.012.012,0,0,0-.008,0s-.008,0-.008,0,0,0,0,0" transform="translate(-76.531 -150.807)" fill="#b2b2b2"/>
      <path id="Path_883" data-name="Path 883" d="M77.862,153.233c.008.008.019.012.027.019a.056.056,0,0,0,.027.008h0s.008,0,.008,0a.014.014,0,0,0,.008,0s.008,0,.016.008.008,0,.008,0,0-.008,0-.008a.043.043,0,0,1-.016-.008l0,0a.014.014,0,0,0-.008,0,.014.014,0,0,0-.012,0,.065.065,0,0,1-.019-.008.275.275,0,0,1-.035-.027s-.012-.008-.012-.012l0,0s-.008,0-.008,0,0,.008,0,.008.008.016.023.031" transform="translate(-77.204 -149.212)" fill="#b2b2b2"/>
      <path id="Path_884" data-name="Path 884" d="M77.963,152.175v-.008l-.144-.1h-.008v.008l.144.1s0,0,.008,0" transform="translate(-77.18 -148.131)" fill="#b2b2b2"/>
      <path id="Path_885" data-name="Path 885" d="M77.739,149.982a.03.03,0,0,1,.012,0,.787.787,0,0,1,.09.051.061.061,0,0,1,.027.031s0,.008.008.012l.012.012s.008,0,.008,0,0-.008,0-.008,0,0-.008,0,0-.012-.008-.019a.09.09,0,0,0-.027-.031c-.039-.027-.1-.055-.1-.058s-.008,0-.008,0,0,.012,0,.012" transform="translate(-77.108 -146.113)" fill="#b2b2b2"/>
      <path id="Path_886" data-name="Path 886" d="M79.186,149.152a.427.427,0,0,0,.039.043l.016.016.012.012h.008v-.008s-.008,0-.012-.008a.6.6,0,0,1-.062-.07c-.012-.012-.019-.023-.027-.031l-.012-.012s0,0-.008,0,0,0,0,.008a.329.329,0,0,1,.047.051" transform="translate(-78.454 -145.272)" fill="#b2b2b2"/>
      <path id="Path_887" data-name="Path 887" d="M80.772,148.582c.008.008.031.023.055.047a.2.2,0,0,1,.055.078s0,0,.008,0,0,0,0-.008a.314.314,0,0,0-.066-.093l-.051-.043h-.008a.005.005,0,0,0,0,.008s0,.008,0,.008" transform="translate(-80.021 -144.767)" fill="#b2b2b2"/>
      <path id="Path_888" data-name="Path 888" d="M84.111,150.174a.282.282,0,0,1,.016.027.085.085,0,0,0,.012.019s0,0,0,.008v0l0,0s.008,0,.008,0v-.008l0,0a.358.358,0,0,0-.019-.031.2.2,0,0,1-.012-.019s0,0-.008,0Z" transform="translate(-83.235 -146.305)" fill="#b2b2b2"/>
      <path id="Path_889" data-name="Path 889" d="M84.519,149.294h0a0,0,0,0,1,0,0c.008.008.016.023.027.039s.012.016.016.023.012.012.016.016h.008s0-.008,0-.008-.012-.008-.016-.016l-.027-.039a.054.054,0,0,0-.012-.016,0,0,0,0,0,0,0s0,0-.008,0a.005.005,0,0,0-.008,0s0,0,.008,0" transform="translate(-83.619 -145.464)" fill="#b2b2b2"/>
      <path id="Path_890" data-name="Path 890" d="M87.223,149.021a.014.014,0,0,0,.008,0v-.008a.1.1,0,0,0-.008-.039s0,0-.008,0,0,0,0,.008a.087.087,0,0,1,.008.035v0c0,.008,0,.008,0,.008" transform="translate(-86.214 -145.152)" fill="#b2b2b2"/>
      <path id="Path_891" data-name="Path 891" d="M88.423,148.771a.014.014,0,0,0,.008,0c0-.012,0-.035,0-.058a.226.226,0,0,1,0-.039s0,0-.008,0,0,0,0,.008a.228.228,0,0,1,0,.039.336.336,0,0,1,0,.058Z" transform="translate(-87.367 -144.863)" fill="#b2b2b2"/>
      <path id="Path_892" data-name="Path 892" d="M89.719,149.11V149.1c0-.031.012-.125.012-.125a.006.006,0,0,0-.012,0v.019c0,.016,0,.043,0,.066s0,.023,0,.031v.016s0,.008.008.008,0,0,0,0" transform="translate(-88.617 -145.152)" fill="#b2b2b2"/>
      <path id="Path_893" data-name="Path 893" d="M90.611,149.3c0-.016.008-.027.008-.027s0-.008,0-.008-.008,0-.008,0v.008a.383.383,0,0,1-.019.062.119.119,0,0,0-.012.062v.051s0,0-.008,0a.005.005,0,0,0,0,.008.014.014,0,0,0,.008,0h0s0,0,0-.008a.058.058,0,0,0,0-.027V149.4a.138.138,0,0,1,.012-.055.205.205,0,0,1,.012-.047" transform="translate(-89.439 -145.44)" fill="#b2b2b2"/>
      <path id="Path_894" data-name="Path 894" d="M91.83,149.43a.034.034,0,0,1,.012-.023.139.139,0,0,0,.023-.043.41.41,0,0,0,.027-.09s0-.008,0-.008-.008,0-.008,0v.008a.53.53,0,0,1-.023.078.211.211,0,0,1-.023.043.042.042,0,0,0-.012.027.072.072,0,0,1-.008.027s0,.008,0,.012v0s0,.008,0,.008.008,0,.008,0l.008-.016c-.008,0,0-.016,0-.027" transform="translate(-90.635 -145.44)" fill="#b2b2b2"/>
      <path id="Path_895" data-name="Path 895" d="M92.3,151s0,.008,0,.012a0,0,0,0,1,0,0,.165.165,0,0,0-.027.019.005.005,0,0,0,0,.008h.008c0-.008.012-.012.023-.019s.008,0,.008-.008,0-.012.008-.019a.16.16,0,0,1,.012-.031.364.364,0,0,1,.035-.047.068.068,0,0,1,.019-.016,0,0,0,0,0,0,0h0s0,0,0-.008,0,0-.008,0a.2.2,0,0,0-.027.023.127.127,0,0,0-.039.051A.063.063,0,0,0,92.3,151" transform="translate(-91.073 -147.002)" fill="#b2b2b2"/>
      <path id="Path_896" data-name="Path 896" d="M92.811,152.895s0,0,.008,0h0a.021.021,0,0,0,.016-.012c.023-.016.055-.039.055-.039s.019-.016.035-.031.019-.016.027-.023l.019-.019v-.008h-.008l-.016.016a.187.187,0,0,1-.043.035c-.012.012-.019.019-.023.019a.048.048,0,0,1-.012.008c-.008.008-.023.016-.035.027a.054.054,0,0,0-.016.012,0,0,0,0,0,0,0c-.008,0-.008,0-.008.008" transform="translate(-91.596 -148.804)" fill="#b2b2b2"/>
      <path id="Path_897" data-name="Path 897" d="M92.936,154.594l-.066.051a.212.212,0,0,1-.066.039l-.019.008a.03.03,0,0,0-.016.016.005.005,0,0,0,0,.008h.008c0-.008.008-.008.012-.012l.031-.016a.375.375,0,0,0,.058-.035c.031-.023.051-.039.058-.043l.008-.008s0,0,0-.008,0,0-.008,0" transform="translate(-91.553 -150.558)" fill="#b2b2b2"/>
      <path id="Path_898" data-name="Path 898" d="M93.162,156.9a.029.029,0,0,0,.019,0,.2.2,0,0,0,.035-.008c.023-.008.035-.016.047-.019s.008,0,.012,0h.008s.008,0,.008,0,0-.008,0-.008h-.016c-.008,0-.023.008-.055.023a.059.059,0,0,1-.031.008c-.008,0-.012,0-.016,0a.029.029,0,0,0-.019,0,.09.09,0,0,0-.035.012s0,0,0,.008,0,0,.008,0a.048.048,0,0,1,.027-.008h.016" transform="translate(-91.884 -152.744)" fill="#b2b2b2"/>
      <path id="Path_899" data-name="Path 899" d="M92.9,158.521a.012.012,0,0,1-.008,0,.342.342,0,0,0-.062-.035.063.063,0,0,1-.023-.012,0,0,0,0,1,0,0h0a.052.052,0,0,0-.019,0c-.012,0-.027,0-.058,0a.008.008,0,0,0-.008.008s0,0,.008,0a.208.208,0,0,0,.058,0,.023.023,0,0,0,.016,0,.012.012,0,0,1,.008,0s.012,0,.019.008a.509.509,0,0,1,.051.027s.008.008.012.008a.014.014,0,0,0,.012,0s0,0,.008,0,0-.008,0-.008a0,0,0,0,1,0,0" transform="translate(-91.5 -154.282)" fill="#b2b2b2"/>
      <path id="Path_900" data-name="Path 900" d="M92.794,159.532l-.035-.016-.086-.035a.362.362,0,0,0-.035-.012s-.008,0-.012,0h-.008a.014.014,0,0,0-.008,0,0,0,0,0,0,0,0,.012.012,0,0,1,.008,0c.019,0,.055.019.09.031s.066.027.078.031.008,0,.008,0,0,0,0,0" transform="translate(-91.404 -155.243)" fill="#b2b2b2"/>
      <path id="Path_901" data-name="Path 901" d="M92.491,160.438s-.008,0-.012-.012c-.019-.016-.051-.051-.082-.078a.284.284,0,0,1-.035-.039l-.012-.012,0,0s0,0-.008,0,0,0,0,.008l0,0c.008.008.039.039.07.074a.466.466,0,0,0,.047.043.068.068,0,0,0,.019.016s.012.008.012.012H92.5c0-.008,0-.012-.008-.012" transform="translate(-91.14 -156.036)" fill="#b2b2b2"/>
      <path id="Path_902" data-name="Path 902" d="M91.995,161.385a.09.09,0,0,1-.031-.027c-.039-.043-.086-.121-.117-.164,0,0,0,0-.008,0s0,0,0,.008c.019.027.047.074.074.113.016.019.027.039.039.051a.126.126,0,0,0,.035.031s.008,0,.008,0,0-.008,0-.008" transform="translate(-90.659 -156.901)" fill="#b2b2b2"/>
      <path id="Path_903" data-name="Path 903" d="M72.131,184.626h-.008a.321.321,0,0,1-.191-.066.384.384,0,0,1-.058-.047l-.016-.016,0,0a.011.011,0,0,0-.016.016.5.5,0,0,0,.082.07.363.363,0,0,0,.206.07h.012a.01.01,0,0,0,.012-.012.035.035,0,0,0-.019-.012" transform="translate(-71.438 -179.294)" fill="#b2b2b2"/>
      <path id="Path_904" data-name="Path 904" d="M105.423,107.987c.012-.019.093-.121.093-.121-.047.039-.105.093-.105.093s0,.047.012.027" transform="translate(-103.706 -105.652)" fill="#b2b2b2"/>
      <path id="Path_905" data-name="Path 905" d="M105.081,107.566a.231.231,0,0,0-.07.078s.012.016.016,0a.614.614,0,0,1,.055-.078" transform="translate(-103.321 -105.364)" fill="#b2b2b2"/>
      <path id="Path_906" data-name="Path 906" d="M83.056,153.7a.047.047,0,0,0-.051.012.215.215,0,0,0-.023.031c0,.008-.008.012-.012.019a.028.028,0,0,1-.039,0l.023-.023a.048.048,0,0,0-.023-.074.076.076,0,0,0-.058,0c-.012,0-.019.012-.031.016a.344.344,0,0,1,.023.039.082.082,0,0,0,.023-.016.055.055,0,0,1,.043,0c.016,0,.019.016.008.027a.02.02,0,0,1-.016.008h-.047c0,.016.012.031.016.047.008,0,.012,0,.016,0,.019,0,.035,0,.035.023a.042.042,0,0,1-.023.043.073.073,0,0,1-.074-.012.072.072,0,0,1-.027-.047c0-.008,0-.019-.008-.027v.027c0,.012,0,.023.008.035a.092.092,0,0,0,.078.066h.023s.012,0,.016-.008a.059.059,0,0,0,.031-.078c0-.008,0-.016-.008-.023h.019a.037.037,0,0,0,.035-.023l.016-.027c0-.008.012-.008.019-.012a.024.024,0,0,1,.023.012.088.088,0,0,1,0,.055.055.055,0,0,1-.051.035.037.037,0,0,1-.035-.023s0-.008,0-.012a.073.073,0,0,0,.008.058.054.054,0,0,0,.074.008.072.072,0,0,0,.027-.047.014.014,0,0,1,0-.012v-.027c0-.008,0-.016,0-.023a.048.048,0,0,0-.039-.043" transform="translate(-81.985 -149.66)" fill="#b2b2b2"/>
      <path id="Path_907" data-name="Path 907" d="M87.034,152.317a.145.145,0,0,1,.027-.023c-.008-.008-.016-.019-.023-.027a.181.181,0,0,1-.027.027l.023.023" transform="translate(-86.022 -148.323)" fill="#b2b2b2"/>
      <path id="Path_908" data-name="Path 908" d="M86.219,152.682a.03.03,0,0,1-.008-.016.035.035,0,0,0,0,.019.062.062,0,0,0,.051.051.086.086,0,0,0,.055-.008.085.085,0,0,0,.031-.019.168.168,0,0,0-.023-.027l-.035.023a.061.061,0,0,1-.074-.023" transform="translate(-85.253 -148.708)" fill="#b2b2b2"/>
      <path id="Path_909" data-name="Path 909" d="M118.362,137.152s0-.008.008-.012,0-.008,0-.012,0-.016.008-.023a.014.014,0,0,1,0-.012v-.027s0,.008,0,.016,0,.008,0,.008a.014.014,0,0,1,0,.008c0,.008,0,.016-.008.019s0,.008,0,.012,0,.008-.008.012,0,.008-.008.012,0,.008-.008.012-.012.012-.016.019a.074.074,0,0,0-.012.035.361.361,0,0,1,.019-.031.085.085,0,0,0,.016-.019s0-.008.008-.012.008,0,.008,0" transform="translate(-116.103 -133.715)" fill="#b2b2b2"/>
      <path id="Path_910" data-name="Path 910" d="M117.658,137.666a.255.255,0,0,1-.023.047.128.128,0,0,0-.023.047.182.182,0,0,0,.035-.039.084.084,0,0,0,.012-.055" transform="translate(-115.43 -134.292)" fill="#b2b2b2"/>
      <path id="Path_911" data-name="Path 911" d="M117.387,137.493a.022.022,0,0,0-.008-.027.246.246,0,0,0-.008.027.03.03,0,0,0,0,.027c.008,0,.008-.016.012-.027" transform="translate(-115.198 -134.1)" fill="#b2b2b2"/>
      <path id="Path_912" data-name="Path 912" d="M122.215,139.621a.042.042,0,0,0,0,.019.035.035,0,0,0,0,.019.03.03,0,0,0,.008.016s.008.008.012.008-.008-.012-.008-.023v-.016a.042.042,0,0,1,0-.019c.008-.023.019-.043.023-.058a.1.1,0,0,0-.039.055" transform="translate(-119.851 -136.118)" fill="#b2b2b2"/>
      <path id="Path_913" data-name="Path 913" d="M123.415,139.621a.066.066,0,0,0,0,.027.03.03,0,0,0,.008.019s0,0,0,0h0a.1.1,0,0,1,.008-.043c0-.012,0-.019.008-.031v-.023a.423.423,0,0,0-.019.055" transform="translate(-121.005 -136.118)" fill="#b2b2b2"/>
      <path id="Path_914" data-name="Path 914" d="M124.13,139.566v.027a.114.114,0,0,1-.008.035c0,.012-.008.023-.012.039s0,.012,0,.016a.014.014,0,0,0,.012,0,.008.008,0,0,1-.008-.008v-.012a.308.308,0,0,0,.016-.035.07.07,0,0,0,0-.039.056.056,0,0,0-.008-.027" transform="translate(-121.677 -136.118)" fill="#b2b2b2"/>
      <path id="Path_915" data-name="Path 915" d="M125.291,140.052s0,0,0-.008a.058.058,0,0,1,0-.027c0-.019,0-.039-.008-.051a.1.1,0,0,0,0,.051.073.073,0,0,0,.008.031s.008.008.012.008a.014.014,0,0,0,.008,0h-.008" transform="translate(-122.791 -136.502)" fill="#b2b2b2"/>
      <path id="Path_916" data-name="Path 916" d="M125.742,139.948a.19.19,0,0,1-.012-.027.278.278,0,0,0-.019-.055.163.163,0,0,0,.008.055.078.078,0,0,0,.016.031s.012.008.016,0a.008.008,0,0,0,.008-.008.014.014,0,0,0-.008,0s-.008,0-.008,0" transform="translate(-123.215 -136.406)" fill="#b2b2b2"/>
      <path id="Path_917" data-name="Path 917" d="M126.344,140.232a.066.066,0,0,0-.008-.019c0-.008-.008-.019-.012-.027a.042.042,0,0,0,0,.031.054.054,0,0,0,.012.016h0c-.008,0-.012-.012-.019-.023s-.023-.035-.027-.043a.075.075,0,0,0,.016.051c.008.008.016.019.023.023h.008s0,0,.008,0a0,0,0,0,1,0,0v-.008s0,0,0,0,0,0,0,0" transform="translate(-123.767 -136.694)" fill="#b2b2b2"/>
      <path id="Path_918" data-name="Path 918" d="M144.711,135.566v.031c0,.012.012.027.016.039a.247.247,0,0,1,.016.035.076.076,0,0,1,0,.027.067.067,0,0,0,0-.031.082.082,0,0,0-.016-.039c-.008-.016-.016-.027-.019-.035s0-.019,0-.027" transform="translate(-141.475 -132.274)" fill="#b2b2b2"/>
      <path id="Path_919" data-name="Path 919" d="M145.567,133.348a.057.057,0,0,0,0-.043.131.131,0,0,0-.016-.039.057.057,0,0,0,0,.043c.008.016.012.031.016.039" transform="translate(-142.277 -130.063)" fill="#b2b2b2"/>
      <path id="Path_920" data-name="Path 920" d="M146.168,130.283a.073.073,0,0,0,.008.031c0-.008,0-.019,0-.031v-.043c0-.016,0-.031,0-.043s0-.023,0-.031c0,.008,0,.019,0,.031v.043a.157.157,0,0,0,0,.043" transform="translate(-142.874 -127.084)" fill="#b2b2b2"/>
      <path id="Path_921" data-name="Path 921" d="M146.739,128.932a.023.023,0,0,0,0,.016.114.114,0,0,0,.008.035.485.485,0,0,1,.016.062c0,.019,0,.035,0,.043a.084.084,0,0,0,.012-.019.064.064,0,0,0,0-.027.474.474,0,0,0-.012-.066.12.12,0,0,1-.008-.031s0-.012,0-.016a.03.03,0,0,0,0-.016c0-.008,0-.019,0-.027v-.019a.169.169,0,0,0,0,.019v.027a.018.018,0,0,0,0,.019" transform="translate(-143.421 -125.834)" fill="#b2b2b2"/>
      <path id="Path_922" data-name="Path 922" d="M116.95,133.1s0,.008,0,.016,0,.016,0,.023,0,0,0,.008c0,.019-.012.035-.012.043a.071.071,0,0,0,.023-.031v-.012a.076.076,0,0,0,0-.027.02.02,0,0,0-.008-.016.054.054,0,0,0-.012-.016.029.029,0,0,1,0-.019s0,.008-.008.016a.012.012,0,0,0-.008,0s0,.008.008.012a.3.3,0,0,1-.016.043c-.008.027-.016.051-.019.066a.114.114,0,0,0,.031-.062.325.325,0,0,0,.008-.039" transform="translate(-114.758 -129.871)" fill="#b2b2b2"/>
      <path id="Path_923" data-name="Path 923" d="M118.262,133.466a.293.293,0,0,0-.031.055l-.012.035c0,.012,0,.019-.008.023a.085.085,0,0,0,.016-.019.232.232,0,0,0,.016-.031.182.182,0,0,0,.019-.062" transform="translate(-116.007 -130.255)" fill="#b2b2b2"/>
      <path id="Path_924" data-name="Path 924" d="M119.583,134.209a.337.337,0,0,0,0,.07.076.076,0,0,0,0,.031s0-.008,0-.012a.114.114,0,0,1-.008-.035c0-.027,0-.055-.008-.066a.145.145,0,0,0-.008.047.1.1,0,0,0-.016-.027l-.012-.023v0c0-.008-.008-.012-.008-.019v.031l-.012-.023a.056.056,0,0,1-.008-.012.069.069,0,0,0,0,.023s0,.008,0,.016a.108.108,0,0,0,0-.039.412.412,0,0,0-.012.055.108.108,0,0,0,0,.035.042.042,0,0,0,.016.019s0-.012-.008-.023v-.012a.073.073,0,0,0,.008.031.161.161,0,0,0,0-.047V134.2s0,.008,0,.012a.066.066,0,0,1,.008.019.014.014,0,0,0,0,.012.094.094,0,0,0,.023.039v.008a.055.055,0,0,1-.008.023.473.473,0,0,1-.019.055c0,.012-.008.019-.012.031s-.008.019-.012.027a.065.065,0,0,0-.012.043.249.249,0,0,1,.023-.039.222.222,0,0,1,.016-.027.268.268,0,0,0,.012-.031.342.342,0,0,0,.019-.058c0-.008,0-.016,0-.023v0l.008.008a.267.267,0,0,1-.012-.031s.008,0,.008,0a.053.053,0,0,1-.012-.016.014.014,0,0,1,0-.008s0,0,0-.008,0-.008,0-.012v-.012a.111.111,0,0,0,.027.031v.012a.072.072,0,0,0,.008.027s0,.012,0,.016a.055.055,0,0,1-.008.023c0,.016-.012.039-.016.062s0,.023-.008.031a.1.1,0,0,0-.008.027c0,.008,0,.016-.008.023s0,.012-.008.016a.053.053,0,0,0,.012-.016l.012-.023c0-.008.008-.019.012-.027a.092.092,0,0,0,.008-.031.482.482,0,0,0,.016-.062c0-.008,0-.019,0-.027v-.016s0,.008,0,.012a.03.03,0,0,0,.016.016c0,.012,0,.019,0,.027a.337.337,0,0,0,0-.07.164.164,0,0,1-.023-.058" transform="translate(-117.231 -130.928)" fill="#b2b2b2"/>
      <path id="Path_925" data-name="Path 925" d="M122.5,135.379a.152.152,0,0,1-.008-.051v-.035c0-.012,0-.019,0-.027a.058.058,0,0,0,0,.027c0,.008,0,.016,0,.023,0-.008,0-.012,0-.016v-.027s0,.008,0,.012,0,.008,0,.016a.07.07,0,0,0,0,.039l.012.035.012.023a.035.035,0,0,1,0-.019h0l0,0s0,0,0,0,0,0,.008,0,0,0-.008,0" transform="translate(-120.1 -131.985)" fill="#b2b2b2"/>
      <path id="Path_926" data-name="Path 926" d="M123.6,135.591a.1.1,0,0,0-.008-.027.1.1,0,0,0,.043.035.238.238,0,0,0-.035-.047.225.225,0,0,1-.016-.027c0-.008,0-.016-.008-.023s0,.016,0,.023a.042.042,0,0,0,.012.027l0,0a.222.222,0,0,0-.027-.031.069.069,0,0,1-.016-.019v-.031a.094.094,0,0,0-.008.07.079.079,0,0,0,.023.035.052.052,0,0,0,.027.012.032.032,0,0,1-.019-.019.085.085,0,0,1-.019-.031.049.049,0,0,1,0-.023s0,.008.008.016.016.019.023.031a.357.357,0,0,1,.019.031.064.064,0,0,1,0,.027s.012-.008.012-.023" transform="translate(-121.117 -132.177)" fill="#b2b2b2"/>
      <path id="Path_927" data-name="Path 927" d="M125.438,136.136a.531.531,0,0,0-.027-.07.226.226,0,0,0,.016.074.066.066,0,0,0,.023.039.085.085,0,0,0,.019.012.054.054,0,0,0,.016.012.084.084,0,0,0,.016.019l0,.008v-.058a.26.26,0,0,0,0-.062.453.453,0,0,0-.012.062.1.1,0,0,0,0,.035.115.115,0,0,1-.008-.039.286.286,0,0,0,0-.058.105.105,0,0,0-.016.058.035.035,0,0,0,0,.019.268.268,0,0,1-.012-.031c-.008-.023-.012-.047-.016-.058a.119.119,0,0,0,0,.062.03.03,0,0,0,.008.016.122.122,0,0,1-.019-.039" transform="translate(-122.927 -132.754)" fill="#b2b2b2"/>
      <path id="Path_928" data-name="Path 928" d="M127.873,136.767a.17.17,0,0,0-.019-.058V136.7c0-.008,0-.016,0-.023a.033.033,0,0,0-.012.019s0,.008,0,.016a.092.092,0,0,0,0-.047.327.327,0,0,0-.016.055.014.014,0,0,0,0-.012.063.063,0,0,0-.012-.023c0,.012,0,.035,0,.058a.241.241,0,0,0,0,.058.414.414,0,0,0,.012-.055.02.02,0,0,0,.008.016.014.014,0,0,1,0,.012.014.014,0,0,0,0-.008s0-.008.008-.012,0-.019.008-.031v-.008a.2.2,0,0,0,.008.043.365.365,0,0,0,.012.035.063.063,0,0,0,.012.023.076.076,0,0,0,0-.027s0-.012-.008-.023" transform="translate(-125.233 -133.331)" fill="#b2b2b2"/>
      <path id="Path_929" data-name="Path 929" d="M129.319,137.666a.127.127,0,0,0-.008.047.056.056,0,0,0,.008.027.021.021,0,0,0,.016.012.207.207,0,0,1-.012-.043.073.073,0,0,0,0-.043" transform="translate(-126.675 -134.292)" fill="#b2b2b2"/>
      <path id="Path_930" data-name="Path 930" d="M129.95,137.183v0a.146.146,0,0,0,0-.043.16.16,0,0,0,0-.043c0-.012,0-.023-.008-.027s0,.016,0,.027v.078a.056.056,0,0,1-.008-.027c0-.012,0-.023-.008-.031s0-.019-.012-.019,0,.031,0,.055,0,.023.016.031a.012.012,0,0,0,.008,0,.035.035,0,0,0,0,.019.066.066,0,0,1,.008-.019l0,0a0,0,0,0,1,0,0" transform="translate(-127.252 -133.715)" fill="#b2b2b2"/>
      <path id="Path_931" data-name="Path 931" d="M131.127,137.8c0-.016,0-.031-.012-.039a.121.121,0,0,0,0,.043.042.042,0,0,0,.008.023.021.021,0,0,0,.016.012.084.084,0,0,1-.008-.039" transform="translate(-128.405 -134.388)" fill="#b2b2b2"/>
      <path id="Path_932" data-name="Path 932" d="M131.627,136.759s0,0,0-.008v-.031a.125.125,0,0,0,0-.055.163.163,0,0,0-.012.055.108.108,0,0,0,0,.035.054.054,0,0,0,.012.016.14.14,0,0,1-.008.043c0,.008,0,.012,0,.019v.016s0-.008.008-.016,0-.012.008-.019a.055.055,0,0,0,.008-.023s0-.008,0-.012v-.012a.23.23,0,0,0-.008-.082.184.184,0,0,0-.008.074" transform="translate(-128.885 -133.331)" fill="#b2b2b2"/>
      <path id="Path_933" data-name="Path 933" d="M132.446,137.252a.076.076,0,0,1,0-.031.248.248,0,0,0,0-.055.1.1,0,0,0-.012.043c0-.008,0-.012-.008-.019a.085.085,0,0,0-.012-.019v.019c0,.008,0,.019,0,.027a.213.213,0,0,0,.016.047v-.016s0,.008.008.012l.008.008s0-.008,0-.012,0,0,0,0" transform="translate(-129.654 -133.811)" fill="#b2b2b2"/>
      <path id="Path_934" data-name="Path 934" d="M133.239,137.466a.126.126,0,0,0,0,.055c0,.012,0,.023.012.031a.026.026,0,0,0,.019.016.092.092,0,0,1-.016-.047c-.008-.023-.012-.043-.016-.055" transform="translate(-130.447 -134.1)" fill="#b2b2b2"/>
      <path id="Path_935" data-name="Path 935" d="M133.611,137.366a.224.224,0,0,0,0,.047c0,.012,0,.019.012.027s.012.012.016.016a.264.264,0,0,1-.012-.047.227.227,0,0,0-.019-.043" transform="translate(-130.807 -134.003)" fill="#b2b2b2"/>
      <path id="Path_936" data-name="Path 936" d="M134.019,136.866a.18.18,0,0,0-.008.055c0,.012,0,.023,0,.031a.085.085,0,0,0,.012.019.206.206,0,0,1,0-.055.1.1,0,0,0,0-.051" transform="translate(-131.192 -133.523)" fill="#b2b2b2"/>
      <path id="Path_937" data-name="Path 937" d="M134.411,136.866a.116.116,0,0,0,.008.047.09.09,0,0,0,.016.043.185.185,0,0,0,0-.047.14.14,0,0,0-.023-.043" transform="translate(-131.576 -133.523)" fill="#b2b2b2"/>
      <path id="Path_938" data-name="Path 938" d="M134.83,136.528a.167.167,0,0,0-.019-.062c0,.012,0,.039.008.066a.035.035,0,0,0,0,.019c0,.008,0,.012,0,.019s0,.019,0,.027a.058.058,0,0,0,0-.027v-.019c0-.008,0-.016,0-.023" transform="translate(-131.961 -133.139)" fill="#b2b2b2"/>
      <path id="Path_939" data-name="Path 939" d="M135.227,136.485s0-.008-.008-.012-.008,0-.008-.008a.266.266,0,0,1,.016.051.152.152,0,0,0,.019.051.318.318,0,0,0,0-.055.063.063,0,0,0-.016-.027" transform="translate(-132.345 -133.139)" fill="#b2b2b2"/>
      <path id="Path_940" data-name="Path 940" d="M135.911,136.566a.12.12,0,0,0,0,.035.075.075,0,0,0,.016.031.073.073,0,0,0,0-.039.084.084,0,0,0-.016-.027" transform="translate(-133.018 -133.235)" fill="#b2b2b2"/>
      <path id="Path_941" data-name="Path 941" d="M136.43,136.013v.008c-.008-.023-.016-.043-.019-.055a.582.582,0,0,0,.008.066.583.583,0,0,1,.008.066.056.056,0,0,0,.008-.027v-.019a.078.078,0,0,0,.008-.035.121.121,0,0,0,0-.039.078.078,0,0,0-.008.035" transform="translate(-133.498 -132.658)" fill="#b2b2b2"/>
      <path id="Path_942" data-name="Path 942" d="M137.271,135.766a.141.141,0,0,0,0,.055.265.265,0,0,0,.016.051.141.141,0,0,0,0-.055.2.2,0,0,0-.016-.051" transform="translate(-134.324 -132.466)" fill="#b2b2b2"/>
      <path id="Path_943" data-name="Path 943" d="M137.63,135.524l-.012-.035a.153.153,0,0,1-.008-.023v.027a.114.114,0,0,0,.008.035l.012.035a.153.153,0,0,1,.008.023v-.027a.2.2,0,0,0-.008-.035" transform="translate(-134.652 -132.177)" fill="#b2b2b2"/>
      <path id="Path_944" data-name="Path 944" d="M137.85,134.567v-.027a.014.014,0,0,0,0-.012.3.3,0,0,0-.019-.062v.043c0-.008-.012-.012-.016-.016a.322.322,0,0,1,.016.047c0,.008,0,.016.008.023v0c0,.008,0,.012,0,.016a0,0,0,0,0,0,0l0,0s0-.008,0-.016.008,0,.008-.008" transform="translate(-134.844 -131.216)" fill="#b2b2b2"/>
      <path id="Path_945" data-name="Path 945" d="M138.546,134.524a.281.281,0,0,0-.019-.035.234.234,0,0,0-.016-.023.1.1,0,0,0,.008.027.138.138,0,0,0,.016.035.311.311,0,0,0,.016.035.19.19,0,0,0,.012.027.076.076,0,0,0,0-.027c0-.012-.008-.023-.012-.039" transform="translate(-135.517 -131.216)" fill="#b2b2b2"/>
      <path id="Path_946" data-name="Path 946" d="M139.334,134.666v.031s0-.008-.008-.012-.012-.012-.016-.016a.066.066,0,0,0,.008.019c0,.008.008.019.012.027a.187.187,0,0,0,.012.027c0,.008,0,.016.008.019v-.023s0,.008.008.012a.224.224,0,0,0,0-.047l-.019-.039" transform="translate(-136.286 -131.409)" fill="#b2b2b2"/>
      <path id="Path_947" data-name="Path 947" d="M140.227,134.182c0-.008-.012-.012-.016-.016a.169.169,0,0,1,0,.019c0,.008,0,.019.008.027a.1.1,0,0,1,.008.027c0,.008,0,.016.008.019a.138.138,0,0,0,0-.023c0-.008,0-.019,0-.031l-.012-.023" transform="translate(-137.15 -130.928)" fill="#b2b2b2"/>
      <path id="Path_948" data-name="Path 948" d="M140.785,133.278l-.012-.012v.016a.042.042,0,0,0,0,.019.074.074,0,0,0-.027-.031l.019.039.012.023a.014.014,0,0,1-.012,0h0a.014.014,0,0,0,0-.012.029.029,0,0,0-.023-.019.162.162,0,0,1,.008.023v0h0a0,0,0,0,1,0,0,.014.014,0,0,0,0-.008c0-.008,0-.012,0-.016s0,.008-.008.016v.008a.054.054,0,0,0-.012-.016.12.12,0,0,0,0,.035.073.073,0,0,0,.016.035.058.058,0,0,0,0-.035v0s0,0,.008,0a.029.029,0,0,0,.016,0,0,0,0,0,0,0,0v0h0a.014.014,0,0,0,.012,0,.056.056,0,0,1,.008.012.1.1,0,0,0,0-.031s.008.008.008.012v-.016a.042.042,0,0,0,0-.019c.016-.008.012-.016.008-.019" transform="translate(-137.631 -130.063)" fill="#b2b2b2"/>
      <path id="Path_949" data-name="Path 949" d="M143.011,132.513a.173.173,0,0,0,.008.051s0-.008,0-.012a.039.039,0,0,0,0,.012.1.1,0,0,0,0-.078s0,.008,0,.016,0-.012,0-.016a.066.066,0,0,1-.008-.019v.047Z" transform="translate(-139.841 -129.294)" fill="#b2b2b2"/>
      <path id="Path_950" data-name="Path 950" d="M143.568,131.921a.286.286,0,0,0,0,.058.41.41,0,0,0,.012-.055.144.144,0,0,0,0-.058c0,.008-.008.031-.012.055" transform="translate(-140.375 -128.718)" fill="#b2b2b2"/>
      <path id="Path_951" data-name="Path 951" d="M144.211,131.128v.062a.2.2,0,0,0,.012-.062.116.116,0,0,0-.012-.062Z" transform="translate(-140.995 -127.949)" fill="#b2b2b2"/>
      <path id="Path_952" data-name="Path 952" d="M143.246,128.721a.189.189,0,0,1,.012.027c0,.012,0,.027,0,.043a.23.23,0,0,1,0,.074c.008,0,.012-.016.012-.031a.094.094,0,0,0,0-.047v-.012a.074.074,0,0,1,.012.035.167.167,0,0,0,0,.019c0,.008,0,.012,0,.016s0-.012,0-.016v-.023a.167.167,0,0,0-.016-.055l-.012-.023.027.027a.081.081,0,0,0-.008-.023.073.073,0,0,0-.023-.027s-.008,0-.012-.008a.16.16,0,0,1-.012-.031v.023a.121.121,0,0,0-.031-.008.085.085,0,0,0,.035.039" transform="translate(-140.034 -125.642)" fill="#b2b2b2"/>
      <path id="Path_953" data-name="Path 953" d="M115.119,129.824v.047a.056.056,0,0,0,.008.027v.012a.156.156,0,0,0,.012.058v.012c0,.008,0,.016,0,.023a.043.043,0,0,1,0,.031.073.073,0,0,0,.008-.031v-.047c0-.016,0-.031,0-.047a.1.1,0,0,0,0-.035c0,.008,0,.019-.008.031a.014.014,0,0,1,0,.012v-.012c0-.039,0-.074-.008-.09a.014.014,0,0,1,0,.012v-.035a.22.22,0,0,0,0-.027c0,.008,0,.016,0,.027a.167.167,0,0,0,0-.019.058.058,0,0,0,0,.027.055.055,0,0,1,.008.023" transform="translate(-113.028 -126.699)" fill="#b2b2b2"/>
    </g>
  </g>
  <g id="Group_327" data-name="Group 327">
    <g id="Group_326" data-name="Group 326" clip-path="url(#clip-path)">
      <path id="Path_955" data-name="Path 955" d="M62.588,55.057l-.02-.007a3.663,3.663,0,0,1-1.713-1.431,5.356,5.356,0,0,1-.868-2.422l-.005-.053.052-.01A1.218,1.218,0,0,0,61,49.763l0-.041.037-.018a6.952,6.952,0,0,1,3.219,0l.044.017-.007.047a1.193,1.193,0,0,0,.944,1.368l.05.012,0,.051a4.636,4.636,0,0,1-2.666,3.853Zm-2.48-3.822a4.491,4.491,0,0,0,2.479,3.7,4.514,4.514,0,0,0,2.565-3.7,1.3,1.3,0,0,1-.99-1.438,7.2,7.2,0,0,0-3.048,0,1.336,1.336,0,0,1-1.007,1.44" transform="translate(-57.646 -47.586)" fill="#6c6c6c"/>
      <path id="Path_956" data-name="Path 956" d="M7.911,108.472h2.1l-.323-1.106H7.911l.257.557Z" transform="translate(-7.603 -103.185)" fill="#6c6c6c"/>
      <path id="Path_957" data-name="Path 957" d="M195.11,108.472h-2.1l.319-1.106h1.779l-.257.557Z" transform="translate(-185.495 -103.185)" fill="#6c6c6c"/>
      <path id="Path_958" data-name="Path 958" d="M194.229,102.943h-2.536l.391-1.577h2.144l-.311.794Zm-2.387-.117h2.214l-.265-.666.265-.678h-1.882Z" transform="translate(-184.229 -97.419)" fill="#6c6c6c"/>
      <path id="Path_959" data-name="Path 959" d="M2.54,102.943H0l.311-.783L0,101.366H2.145Zm-2.368-.117H2.39l-.337-1.343H.172l.265.678Z" transform="translate(0 -97.419)" fill="#6c6c6c"/>
      <path id="Path_960" data-name="Path 960" d="M18.661,119.5a.048.048,0,0,1-.019.041.092.092,0,0,1-.056.014.173.173,0,0,1-.033,0l-.025-.008V119.5a.166.166,0,0,0,.03.01.122.122,0,0,0,.029,0q.026,0,.026-.015a.013.013,0,0,0,0-.009l-.012-.008-.023-.01a.144.144,0,0,1-.03-.016.044.044,0,0,1-.014-.016.054.054,0,0,1,0-.023.042.042,0,0,1,.018-.036.088.088,0,0,1,.051-.013.146.146,0,0,1,.061.014l-.014.034-.025-.009a.077.077,0,0,0-.023,0q-.021,0-.021.011a.013.013,0,0,0,.007.011l.03.014a.137.137,0,0,1,.03.015.046.046,0,0,1,.014.017.051.051,0,0,1,0,.022" transform="translate(-17.807 -114.723)" fill="#fff"/>
      <path id="Path_961" data-name="Path 961" d="M22.834,117.72q0-.023.026-.023t.026.023a.022.022,0,0,1-.007.017.027.027,0,0,1-.019.006q-.026,0-.026-.023m.05.22h-.048v-.175h.048Z" transform="translate(-21.945 -113.114)" fill="#fff"/>
      <path id="Path_962" data-name="Path 962" d="M25.556,119.549h-.048v-.1a.049.049,0,0,0-.007-.028.024.024,0,0,0-.021-.009.032.032,0,0,0-.029.013.083.083,0,0,0-.009.044v.082H25.4v-.175h.036l.006.022h0a.051.051,0,0,1,.022-.019.074.074,0,0,1,.032-.006.061.061,0,0,1,.046.016.066.066,0,0,1,.016.048Z" transform="translate(-24.406 -114.723)" fill="#fff"/>
      <path id="Path_963" data-name="Path 963" d="M30.607,119.552q-.082,0-.082-.09a.1.1,0,0,1,.022-.068.083.083,0,0,1,.064-.023.121.121,0,0,1,.054.012l-.014.037-.021-.007-.019,0q-.037,0-.037.053t.037.051a.084.084,0,0,0,.026,0,.091.091,0,0,0,.023-.011v.041a.077.077,0,0,1-.023.01.13.13,0,0,1-.03,0" transform="translate(-29.336 -114.723)" fill="#fff"/>
      <path id="Path_964" data-name="Path 964" d="M34.842,119.552a.09.09,0,0,1-.066-.023.088.088,0,0,1-.024-.066.1.1,0,0,1,.022-.068.078.078,0,0,1,.061-.024.077.077,0,0,1,.058.021.08.08,0,0,1,.021.058v.023H34.8a.046.046,0,0,0,.012.032.042.042,0,0,0,.032.011.132.132,0,0,0,.03,0,.152.152,0,0,0,.029-.01v.037a.113.113,0,0,1-.027.009.169.169,0,0,1-.035,0m-.007-.147a.03.03,0,0,0-.024.01.045.045,0,0,0-.01.027h.067a.04.04,0,0,0-.009-.027.031.031,0,0,0-.024-.01" transform="translate(-33.399 -114.723)" fill="#fff"/>
      <path id="Path_965" data-name="Path 965" d="M209.833,118.222h-.16v-.034l.057-.058q.025-.026.033-.036a.079.079,0,0,0,.011-.019.048.048,0,0,0,0-.018.026.026,0,0,0-.008-.02.029.029,0,0,0-.02-.007.058.058,0,0,0-.026.006.132.132,0,0,0-.026.017l-.026-.031a.176.176,0,0,1,.028-.02.1.1,0,0,1,.024-.009.123.123,0,0,1,.029,0,.087.087,0,0,1,.038.008.06.06,0,0,1,.025.022.058.058,0,0,1,.009.032.079.079,0,0,1-.006.03.113.113,0,0,1-.017.028.416.416,0,0,1-.041.041l-.029.028v0h.1Z" transform="translate(-201.509 -113.396)" fill="#fff"/>
      <path id="Path_966" data-name="Path 966" d="M214.509,118.1a.159.159,0,0,1-.02.089.068.068,0,0,1-.06.029.067.067,0,0,1-.06-.03.156.156,0,0,1-.02-.088.16.16,0,0,1,.02-.089.076.076,0,0,1,.12,0,.157.157,0,0,1,.02.088m-.112,0a.177.177,0,0,0,.007.06.025.025,0,0,0,.049,0,.244.244,0,0,0,0-.12.025.025,0,0,0-.049,0,.178.178,0,0,0-.007.06" transform="translate(-206.003 -113.388)" fill="#fff"/>
      <path id="Path_967" data-name="Path 967" d="M219.343,118.3H219.3v-.178l-.017.016-.026.021-.023-.029.074-.059h.04Z" transform="translate(-210.694 -113.477)" fill="#fff"/>
      <path id="Path_968" data-name="Path 968" d="M223.726,118.14a.151.151,0,0,1,.029-.1.108.108,0,0,1,.086-.033l.031,0v.039a.127.127,0,0,0-.028,0,.1.1,0,0,0-.041.008.051.051,0,0,0-.024.022.1.1,0,0,0-.009.042h0a.053.053,0,0,1,.05-.027.061.061,0,0,1,.048.019.076.076,0,0,1,.017.053.08.08,0,0,1-.021.058.076.076,0,0,1-.057.021.082.082,0,0,1-.044-.012.076.076,0,0,1-.029-.034.13.13,0,0,1-.01-.054m.083.062a.029.029,0,0,0,.024-.01.046.046,0,0,0,.008-.03.041.041,0,0,0-.008-.026.028.028,0,0,0-.023-.01.036.036,0,0,0-.025.01.029.029,0,0,0-.01.022.05.05,0,0,0,.01.031.03.03,0,0,0,.025.013" transform="translate(-215.015 -113.411)" fill="#fff"/>
      <path id="Path_969" data-name="Path 969" d="M129.911,91.293a.19.19,0,0,1,.027.012s.008-.012.016-.019a.165.165,0,0,0-.027-.019.039.039,0,0,1-.016.027" transform="translate(-124.853 -87.712)" fill="#c3c3c3"/>
      <path id="Path_970" data-name="Path 970" d="M128.569,90.585c-.016-.008-.035-.012-.055-.019,0,.012,0,.023,0,.035l.039.012a.266.266,0,0,0,.019-.027" transform="translate(-123.507 -87.04)" fill="#c3c3c3"/>
      <path id="Path_971" data-name="Path 971" d="M126.911,90.5c.012,0,.023,0,.035,0a.229.229,0,0,1,.016-.031.206.206,0,0,0-.051,0,.043.043,0,0,1,0,.031" transform="translate(-121.969 -86.943)" fill="#c3c3c3"/>
      <path id="Path_972" data-name="Path 972" d="M121.775,95.235a.356.356,0,0,0,.164-.074,2.812,2.812,0,0,0-.327.051.491.491,0,0,0,.164.023" transform="translate(-116.876 -91.456)" fill="#c3c3c3"/>
      <path id="Path_973" data-name="Path 973" d="M131.211,92.082c.019.008.031.016.035.016a.223.223,0,0,0-.027-.031c0,.008-.008.012-.008.016" transform="translate(-126.102 -88.481)" fill="#c3c3c3"/>
    </g>
  </g>
</svg>
