<svg xmlns="http://www.w3.org/2000/svg" width="15" height="19.467" viewBox="0 0 15 19.467">
  <g id="Group_367" data-name="Group 367" transform="translate(-192 -682.143)">
    <path id="money" d="M6,7H9V6.25H8V2.75H7.11L5.953,3.82l.6.625A2.609,2.609,0,0,0,6.984,4H7V6.25H6Zm4-2a3.947,3.947,0,0,1-.164,1.11,4.2,4.2,0,0,1-.465,1.047,2.422,2.422,0,0,1-.793.789,2.06,2.06,0,0,1-2.156,0,2.411,2.411,0,0,1-.793-.789,4.221,4.221,0,0,1-.465-1.047,3.832,3.832,0,0,1,0-2.219,4.214,4.214,0,0,1,.465-1.047,2.414,2.414,0,0,1,.793-.789,2.06,2.06,0,0,1,2.156,0,2.427,2.427,0,0,1,.793.789A4.185,4.185,0,0,1,9.835,3.89,3.967,3.967,0,0,1,10,5Zm4,2V3a1.928,1.928,0,0,1-1.414-.586A1.925,1.925,0,0,1,12,1H3a1.928,1.928,0,0,1-.586,1.414A1.925,1.925,0,0,1,1,3V7a1.928,1.928,0,0,1,1.414.586A1.925,1.925,0,0,1,3,9h9a2,2,0,0,1,2-2ZM15,.5v9a.507.507,0,0,1-.5.5H.5a.481.481,0,0,1-.352-.148A.478.478,0,0,1,0,9.5V.5A.481.481,0,0,1,.148.148.478.478,0,0,1,.5,0h14a.481.481,0,0,1,.352.148A.478.478,0,0,1,15,.5Z" transform="translate(192 691.611)" fill="#6ed9af"/>
    <g id="arrow-down-short" transform="translate(194.912 682.143)">
      <path id="Path_590" data-name="Path 590" d="M10.294,17.043a.581.581,0,0,1,.823,0l3.076,3.077,3.076-3.077a.582.582,0,1,1,.823.823L14.6,21.354a.581.581,0,0,1-.823,0l-3.488-3.488a.581.581,0,0,1,0-.823Z" transform="translate(-10.123 -13.386)" fill="#6ed9af" fill-rule="evenodd"/>
      <path id="Path_591" data-name="Path 591" d="M17.456,10.125a.581.581,0,0,1,.581.581v5.813a.581.581,0,1,1-1.163,0V10.706A.581.581,0,0,1,17.456,10.125Z" transform="translate(-13.387 -10.125)" fill="#6ed9af" fill-rule="evenodd"/>
    </g>
  </g>
</svg>
