<svg xmlns="http://www.w3.org/2000/svg" width="21.23" height="21.23" viewBox="0 0 21.23 21.23">
  <g id="Group_375" data-name="Group 375" transform="translate(-358.058 -207.578)">
    <path id="Path_458" data-name="Path 458" d="M394.24,208.775a1.2,1.2,0,1,1-1.2-1.2,1.2,1.2,0,0,1,1.2,1.2" transform="translate(-24.369)" fill="#ed0c6e"/>
    <path id="Path_459" data-name="Path 459" d="M394.24,276.349a1.2,1.2,0,1,1-1.2-1.2,1.2,1.2,0,0,1,1.2,1.2" transform="translate(-24.369 -48.739)" fill="#ed0c6e"/>
    <path id="Path_460" data-name="Path 460" d="M377.185,212.7a1.2,1.2,0,1,1-1.636-.438,1.2,1.2,0,0,1,1.636.438" transform="translate(-12.184 -3.263)" fill="#ed0c6e"/>
    <path id="Path_461" data-name="Path 461" d="M410.976,271.23a1.2,1.2,0,1,1-1.632-.437,1.195,1.195,0,0,1,1.632.437" transform="translate(-36.559 -45.479)" fill="#ed0c6e"/>
    <path id="Path_462" data-name="Path 462" d="M364.38,224.63a1.2,1.2,0,1,1-1.636.438,1.2,1.2,0,0,1,1.636-.438" transform="translate(-3.264 -12.183)" fill="#ed0c6e"/>
    <path id="Path_463" data-name="Path 463" d="M422.9,258.418a1.2,1.2,0,1,1-1.636.438,1.2,1.2,0,0,1,1.636-.438" transform="translate(-45.473 -36.553)" fill="#ed0c6e"/>
    <path id="Path_464" data-name="Path 464" d="M359.255,241.364a1.2,1.2,0,1,1-1.2,1.2,1.2,1.2,0,0,1,1.2-1.2" transform="translate(0 -24.369)" fill="#ed0c6e"/>
    <path id="Path_465" data-name="Path 465" d="M426.83,241.364a1.2,1.2,0,1,1-1.2,1.2,1.2,1.2,0,0,1,1.2-1.2" transform="translate(-48.739 -24.369)" fill="#ed0c6e"/>
    <path id="Path_466" data-name="Path 466" d="M363.022,258.237a1.25,1.25,0,1,1-.457,1.707,1.25,1.25,0,0,1,.457-1.707" transform="translate(-3.129 -36.418)" fill="#ed0c6e"/>
    <path id="Path_467" data-name="Path 467" d="M421.7,224.63a1.2,1.2,0,1,1-.438,1.636,1.2,1.2,0,0,1,.438-1.636" transform="translate(-45.473 -12.183)" fill="#ed0c6e"/>
    <path id="Path_468" data-name="Path 468" d="M375.112,271.223a1.2,1.2,0,1,1,.438,1.636,1.2,1.2,0,0,1-.438-1.636" transform="translate(-12.184 -45.473)" fill="#ed0c6e"/>
    <path id="Path_469" data-name="Path 469" d="M408.9,212.7a1.2,1.2,0,1,1,.438,1.636,1.2,1.2,0,0,1-.438-1.636" transform="translate(-36.553 -3.263)" fill="#ed0c6e"/>
    <path id="Path_470" data-name="Path 470" d="M394.859,224.959a.808.808,0,1,1-.807-.808.808.808,0,0,1,.807.808" transform="translate(-25.378 -11.953)" fill="#ed0c6e"/>
    <path id="Path_471" data-name="Path 471" d="M394.826,262.126A.828.828,0,1,1,394,261.3a.827.827,0,0,1,.828.828" transform="translate(-25.326 -38.746)" fill="#ed0c6e"/>
    <path id="Path_472" data-name="Path 472" d="M385.446,227.049a.807.807,0,1,1-1.1-.3.807.807,0,0,1,1.1.3" transform="translate(-18.667 -13.752)" fill="#ed0c6e"/>
    <path id="Path_473" data-name="Path 473" d="M404.02,259.218a.828.828,0,1,1-1.131-.3.828.828,0,0,1,1.131.3" transform="translate(-32.037 -36.947)" fill="#ed0c6e"/>
    <path id="Path_474" data-name="Path 474" d="M378.3,233.494a.828.828,0,1,1-1.131.3.828.828,0,0,1,1.131-.3" transform="translate(-13.702 -18.612)" fill="#ed0c6e"/>
    <path id="Path_475" data-name="Path 475" d="M410.528,252.1a.828.828,0,1,1-1.131.3.828.828,0,0,1,1.131-.3" transform="translate(-36.949 -32.035)" fill="#ed0c6e"/>
    <path id="Path_476" data-name="Path 476" d="M375.39,242.688a.828.828,0,1,1-.828.828.827.827,0,0,1,.828-.828" transform="translate(-11.904 -25.323)" fill="#ed0c6e"/>
    <path id="Path_477" data-name="Path 477" d="M412.609,242.688a.828.828,0,1,1-.828.828.827.827,0,0,1,.828-.828" transform="translate(-38.748 -25.323)" fill="#ed0c6e"/>
    <path id="Path_478" data-name="Path 478" d="M377.541,252.185a.8.8,0,1,1-.294,1.1.8.8,0,0,1,.294-1.1" transform="translate(-13.762 -32.095)" fill="#ed0c6e"/>
    <path id="Path_479" data-name="Path 479" d="M409.7,233.494a.828.828,0,1,1-.3,1.131.828.828,0,0,1,.3-1.131" transform="translate(-36.949 -18.612)" fill="#ed0c6e"/>
    <path id="Path_480" data-name="Path 480" d="M384.047,259.28a.808.808,0,1,1,.3,1.1.807.807,0,0,1-.3-1.1" transform="translate(-18.667 -36.999)" fill="#ed0c6e"/>
    <path id="Path_481" data-name="Path 481" d="M402.668,227.058a.8.8,0,1,1,.294,1.1.8.8,0,0,1-.294-1.1" transform="translate(-32.097 -13.76)" fill="#ed0c6e"/>
    <path id="Path_482" data-name="Path 482" d="M395.063,238.577a.679.679,0,1,1-.678-.678.679.679,0,0,1,.678.678" transform="translate(-25.712 -21.869)" fill="#ed0c6e"/>
    <path id="Path_483" data-name="Path 483" d="M395.063,249.035a.679.679,0,1,1-.678-.678.679.679,0,0,1,.678.678" transform="translate(-25.712 -29.412)" fill="#ed0c6e"/>
    <path id="Path_484" data-name="Path 484" d="M389.156,243.127a.679.679,0,1,1-.678.678.678.678,0,0,1,.678-.678" transform="translate(-21.941 -25.64)" fill="#ed0c6e"/>
    <path id="Path_485" data-name="Path 485" d="M399.613,243.127a.679.679,0,1,1-.678.678.678.678,0,0,1,.678-.678" transform="translate(-29.483 -25.64)" fill="#ed0c6e"/>
  </g>
</svg>
