<svg xmlns="http://www.w3.org/2000/svg" width="36" height="28.456" viewBox="0 0 36 28.456">
  <g id="upload" transform="translate(0 -3.044)">
    <path id="Path_4479" data-name="Path 4479" d="M1.125,18A1.125,1.125,0,0,1,2.25,19.125V27A2.25,2.25,0,0,0,4.5,29.25h27A2.25,2.25,0,0,0,33.75,27V19.125a1.125,1.125,0,0,1,2.25,0V27a4.5,4.5,0,0,1-4.5,4.5H4.5A4.5,4.5,0,0,1,0,27V19.125A1.125,1.125,0,0,1,1.125,18ZM11.25,10.921a1.125,1.125,0,0,0,1.591,0L18,5.76l5.159,5.159a1.125,1.125,0,1,0,1.591-1.59L18.8,3.375a1.125,1.125,0,0,0-1.593,0L11.25,9.329a1.125,1.125,0,0,0,0,1.593Z" fill="#999" fill-rule="evenodd"/>
    <path id="Path_4480" data-name="Path 4480" d="M18,4.5a1.125,1.125,0,0,1,1.125,1.125v18a1.125,1.125,0,0,1-2.25,0v-18A1.125,1.125,0,0,1,18,4.5Z" fill="#999" fill-rule="evenodd"/>
  </g>
</svg>
