<svg xmlns="http://www.w3.org/2000/svg" width="15.014" height="22.613" viewBox="0 0 15.014 22.613">
  <g id="group-line" transform="translate(-7.2 -6.258)">
    <path id="Path_4457" data-name="Path 4457" d="M17.541,16.59A4.5,4.5,0,1,0,13,12.049,4.549,4.549,0,0,0,17.541,16.59Zm-.093-7.136h0a2.69,2.69,0,0,1,2.688,2.688,2.642,2.642,0,0,1-5.283,0A2.672,2.672,0,0,1,17.449,9.454Z" transform="translate(-3.02 -1.342)" fill="#fff"/>
    <path id="Path_4462" data-name="Path 4462" d="M24.921,22.429l-.185-.278A9.354,9.354,0,0,0,17.507,19a9.547,9.547,0,0,0-7.322,3.151L10,22.429v7.043a1.562,1.562,0,0,0,1.576,1.576H23.438a1.624,1.624,0,0,0,1.576-1.576V22.429Zm-1.854,6.765H11.854V23.077a7.909,7.909,0,0,1,5.653-2.224,7.475,7.475,0,0,1,5.561,2.224Z" transform="translate(-2.8 -2.177)" fill="#fff"/>
  </g>
</svg>
